<?xml version="1.0" encoding="UTF-8" standalone="no"?>
<svg width="89px" height="68px" viewBox="0 0 89 68" version="1.1" xmlns="http://www.w3.org/2000/svg" xmlns:xlink="http://www.w3.org/1999/xlink">
    <!-- Generator: Sketch 3.8.3 (29802) - http://www.bohemiancoding.com/sketch -->
    <title>Group 5</title>
    <desc>Created with Sketch.</desc>
    <defs></defs>
    <g id="Page-1" stroke="none" stroke-width="1" fill="none" fill-rule="evenodd">
        <g id="Group-5" transform="translate(-17.000000, -23.000000)">
            <rect id="Rectangle-1-Copy-6" x="0" y="0" width="122.703297" height="113.352802"></rect>
            <g id="autoprefixer-seeklogo.com" transform="translate(17.002920, 23.379015)" fill="#DD3835">
                <g id="Group">
                    <path d="M21.6140292,66.7832778 L32.3421604,66.7832778 L35.6552597,55.4159113 L52.2207567,55.4159113 L55.5338562,66.7832778 L66.8930537,66.7832778 L44.4901917,0 L21.6140292,66.7832778 L21.6140292,66.7832778 L21.6140292,66.7832778 Z M44.4901917,29.0499365 L50.1697904,47.3640268 L38.8105926,47.3640268 L44.4901917,29.0499365 L44.4901917,29.0499365 L44.4901917,29.0499365 Z M88.8226161,53.6792304 L87.7182499,49.1007077 L64.3687875,46.7325066 L67.3663539,54.7843911 L88.8226161,53.6792304 L88.8226161,53.6792304 L88.8226161,53.6792304 Z M24.4538287,47.3640268 L1.10436646,49.7322283 L0,54.3107509 L21.6140292,55.4159113 L24.4538287,47.3640268 L24.4538287,47.3640268 L24.4538287,47.3640268 Z" id="Shape"></path>
                </g>
            </g>
        </g>
    </g>
</svg>