<?xml version="1.0" encoding="UTF-8" standalone="no"?>
<svg width="197px" height="200px" viewBox="0 0 197 200" version="1.1" xmlns="http://www.w3.org/2000/svg" xmlns:xlink="http://www.w3.org/1999/xlink">
    <!-- Generator: Sketch 3.8.3 (29802) - http://www.bohemiancoding.com/sketch -->
    <title>Group 6</title>
    <desc>Created with Sketch.</desc>
    <defs></defs>
    <g id="Page-1" stroke="none" stroke-width="1" fill="none" fill-rule="evenodd">
        <g id="Group-6">
            <rect id="Rectangle-1-Copy-6" fill="#FFFFFF" x="0" y="0" width="196.875" height="200"></rect>
            <g id="autoprefixer-seeklogo.com" transform="translate(35.714286, 52.678571)" fill="#DD3835">
                <g id="Group">
                    <path d="M30.5086828,94.2660815 L45.6516786,94.2660815 L50.3281918,78.220791 L73.7107592,78.220791 L78.3872727,94.2660815 L94.4210326,94.2660815 L62.7988947,0 L30.5086828,94.2660815 L30.5086828,94.2660815 L30.5086828,94.2660815 Z M62.7988947,41.0046312 L70.8157747,66.8553769 L54.7820143,66.8553769 L62.7988947,41.0046312 L62.7988947,41.0046312 L62.7988947,41.0046312 Z M125.375098,75.7694272 L123.81626,69.3067407 L90.8579747,65.9639721 L95.0891063,77.3293862 L125.375098,75.7694272 L125.375098,75.7694272 L125.375098,75.7694272 Z M34.5171229,66.8553769 L1.55883781,70.1981459 L0,76.6608325 L30.5086828,78.220791 L34.5171229,66.8553769 L34.5171229,66.8553769 L34.5171229,66.8553769 Z" id="Shape"></path>
                </g>
            </g>
        </g>
    </g>
</svg>