<?xml version="1.0" encoding="UTF-8" standalone="no"?>
<svg width="225px" height="114px" viewBox="0 0 225 114" version="1.1" xmlns="http://www.w3.org/2000/svg" xmlns:xlink="http://www.w3.org/1999/xlink">
    <!-- Generator: Sketch 3.8.3 (29802) - http://www.bohemiancoding.com/sketch -->
    <title>Group 8</title>
    <desc>Created with Sketch.</desc>
    <defs></defs>
    <g id="Page-1" stroke="none" stroke-width="1" fill="none" fill-rule="evenodd">
        <g id="Group-8">
            <rect id="Rectangle-1-Copy-7" fill="#FFFFFF" x="0" y="0" width="224.816925" height="113.352802"></rect>
            <g id="browser-sync_logo" transform="translate(9.918370, 36.131206)" fill="#F24747">
                <g id="Layer_1">
                    <g id="Group">
                        <path d="M12.6295781,0.170082901 L0.363815006,6.27827752 C0.155920717,6.38180624 0.0519735723,6.58886369 0.0519735723,6.79592113 L0.0519735723,33.713389 C0.0519735723,33.9204464 0.155920717,34.1275038 0.363815006,34.2310326 L12.6295781,40.3392272 C13.0453666,40.5462846 13.5131288,40.2356985 13.5131288,39.8215836 L13.5131288,0.739490874 C13.5131288,0.273611623 13.0453666,-0.0369745437 12.6295781,0.170082901 L12.6295781,0.170082901 Z" id="Shape"></path>
                        <path d="M15.2282567,40.3392272 L27.4940197,34.2310326 C27.701914,34.1275038 27.8058612,33.9204464 27.8058612,33.713389 L27.8058612,20.6170056 C27.8058612,20.4099481 27.701914,20.2028907 27.4940197,20.099362 L15.2282567,13.9911673 C14.8124681,13.7841099 14.344706,14.0946961 14.344706,14.508811 L14.344706,39.7698192 C14.344706,40.2356985 14.8124681,40.5462846 15.2282567,40.3392272 L15.2282567,40.3392272 Z" id="Shape"></path>
                        <g transform="translate(41.578858, 13.162938)" id="Shape">
                            <path d="M7.95195656,0.155293084 C12.0578688,0.155293084 14.2927324,1.70822392 14.2927324,5.53878665 C14.2927324,8.02347598 13.5131288,9.26582065 11.8499745,10.1975792 C13.6170759,10.8705158 14.8124681,12.1646249 14.8124681,15.0116647 C14.8124681,19.2563424 12.2137895,20.8610376 8.21182442,20.8610376 L0.103947145,20.8610376 L0.103947145,0.207057445 L7.95195656,0.207057445 L7.95195656,0.155293084 Z M3.43025577,3.05409731 L3.43025577,8.95523449 L7.89998299,8.95523449 C9.97892588,8.95523449 10.8624766,7.91994726 10.8624766,5.90113718 C10.8624766,3.93409145 9.82300517,3.05409731 7.79603585,3.05409731 L3.43025577,3.05409731 L3.43025577,3.05409731 Z M3.43025577,11.8022744 L3.43025577,17.910469 L8.00393013,17.910469 C10.082873,17.910469 11.3302388,17.2375323 11.3302388,14.7528429 C11.3302388,12.4234467 9.5631373,11.75051 7.95195656,11.75051 L3.43025577,11.75051 L3.43025577,11.8022744 Z"></path>
                            <path d="M18.2427239,5.74584409 L21.5170589,5.74584409 L21.5170589,7.55759673 C21.5170589,7.55759673 24.1157375,5.90113718 26.6624426,5.43525792 L26.6624426,8.74817704 C23.9078433,9.26582065 21.5690325,11.1293377 21.5690325,11.1293377 L21.5690325,20.8610376 L18.2427239,20.8610376 L18.2427239,5.74584409 L18.2427239,5.74584409 Z"></path>
                            <path d="M97.9182102,5.74584409 L101.192545,5.74584409 L101.192545,7.55759673 C101.192545,7.55759673 103.791224,5.90113718 106.337929,5.43525792 L106.337929,8.74817704 C103.58333,9.26582065 101.244519,11.1293377 101.244519,11.1293377 L101.244519,20.8610376 L97.9182102,20.8610376 L97.9182102,5.74584409 L97.9182102,5.74584409 Z"></path>
                            <path d="M41.8387257,13.1999121 C41.8387257,18.2210551 40.2795185,21.1716237 35.0821613,21.1716237 C29.8848041,21.1716237 28.3255969,18.2210551 28.3255969,13.1999121 C28.3255969,8.33406215 30.0407248,5.43525792 35.0821613,5.43525792 C40.1235978,5.43525792 41.8387257,8.33406215 41.8387257,13.1999121 L41.8387257,13.1999121 Z M38.4604435,13.1999121 C38.4604435,9.67993554 37.6808399,8.17876907 35.0301877,8.17876907 C32.3795355,8.17876907 31.599932,9.67993554 31.599932,13.1999121 C31.599932,16.7198887 32.2236148,18.3763482 35.0301877,18.3763482 C37.8887342,18.3763482 38.4604435,16.7198887 38.4604435,13.1999121 L38.4604435,13.1999121 Z"></path>
                            <polygon points="47.1400301 5.74584409 49.5308144 18.0139977 50.1544973 18.0139977 53.0130438 6.05643026 56.391326 6.05643026 59.2498724 18.0139977 59.8735553 18.0139977 62.212366 5.74584409 65.4867011 5.74584409 62.2643396 20.8092732 57.0150088 20.8092732 54.6761981 10.456401 52.3373873 20.8092732 47.0880565 20.8092732 43.865695 5.74584409"></polygon>
                            <path d="M78.8439092,8.85170576 C78.8439092,8.85170576 75.2577327,8.38582651 73.4386577,8.38582651 C71.6195826,8.38582651 70.7880055,8.7999414 70.7880055,10.0422861 C70.7880055,11.0258089 71.4116883,11.2846307 74.374182,11.8022744 C78.012332,12.4234467 79.3116713,13.3552052 79.3116713,16.3575381 C79.3116713,19.8775147 77.0768077,21.1716237 73.3347105,21.1716237 C71.2557676,21.1716237 67.7215647,20.498687 67.7215647,20.498687 L67.8255119,17.7551759 C67.8255119,17.7551759 71.4636619,18.2210551 73.0228691,18.2210551 C75.2057591,18.2210551 76.0373363,17.7551759 76.0373363,16.4610669 C76.0373363,15.4257796 75.5176006,15.0634291 72.5031334,14.5975499 C69.1768247,14.0799062 67.4616969,13.3552052 67.4616969,10.1458148 C67.4616969,6.72936695 70.112349,5.48702229 73.1268162,5.48702229 C75.3616798,5.48702229 78.8439092,6.15995898 78.8439092,6.15995898 L78.8439092,8.85170576 L78.8439092,8.85170576 Z"></path>
                            <path d="M94.176113,18.0139977 L94.2280866,20.4469227 C94.2280866,20.4469227 90.7978308,21.1198594 88.0952051,21.1198594 C83.5735043,21.1198594 81.8064028,18.6869344 81.8064028,13.4069695 C81.8064028,7.8681829 84.1971871,5.38349356 88.3550729,5.38349356 C92.6169058,5.38349356 94.6958487,7.60936109 94.6958487,12.2681536 L94.4879545,14.5975499 L85.0807379,14.5975499 C85.1327114,17.0304748 86.0162622,18.2210551 88.5109936,18.2210551 C91.0057251,18.3245839 94.176113,18.0139977 94.176113,18.0139977 L94.176113,18.0139977 Z M91.5254608,12.1646249 C91.5254608,9.16229193 90.6419101,8.17876907 88.4070465,8.17876907 C86.1721829,8.17876907 85.184685,9.31758501 85.1327114,12.1646249 L91.5254608,12.1646249 L91.5254608,12.1646249 Z"></path>
                            <path d="M118.915533,7.60936109 C118.915533,7.60936109 115.693172,7.14348184 113.666203,7.14348184 C111.795154,7.14348184 110.080026,7.66112546 110.080026,9.7316999 C110.080026,11.2846307 110.85963,11.75051 114.133965,12.319918 C118.031983,12.9410903 119.487243,13.6657914 119.487243,16.5645956 C119.487243,20.0845721 117.252379,21.2233881 113.666203,21.2233881 C111.795154,21.2233881 108.468845,20.7057445 108.468845,20.7057445 L108.572793,19.1010493 C108.572793,19.1010493 111.951075,19.6186929 113.510282,19.6186929 C116.108961,19.6186929 117.616194,18.9975206 117.616194,16.6681243 C117.616194,14.8563717 116.732643,14.4422568 113.302388,13.9763775 C109.820158,13.4587339 108.208978,12.7857972 108.208978,9.88699299 C108.208978,6.57407387 110.911603,5.64231537 113.562255,5.64231537 C115.849093,5.64231537 118.915533,6.15995898 118.915533,6.15995898 L118.915533,7.60936109 L118.915533,7.60936109 Z"></path>
                            <polygon points="123.333287 5.74584409 127.335252 19.2563424 128.426697 19.2563424 132.480636 5.74584409 134.351684 5.74584409 127.906961 27.5386402 126.087886 27.5386402 128.062882 20.8092732 125.983939 20.8092732 121.514212 5.74584409"></polygon>
                            <path d="M137.418125,20.8610376 L137.418125,5.79760845 L139.185227,5.79760845 L139.185227,6.9364244 C139.185227,6.9364244 141.731932,5.53878665 144.122716,5.53878665 C148.280602,5.53878665 149.164153,7.45406801 149.164153,12.9928547 L149.164153,20.9128019 L147.345077,20.9128019 L147.345077,13.0963834 C147.345077,8.64464832 146.877315,7.19524621 143.810875,7.19524621 C141.472064,7.19524621 139.133253,8.43759087 139.133253,8.43759087 L139.133253,20.9128019 L137.418125,20.9128019 L137.418125,20.8610376 Z"></path>
                            <path d="M163.09307,5.84937281 L162.989123,7.40230365 C162.989123,7.40230365 160.598338,7.09171748 159.45492,7.09171748 C155.81677,7.09171748 154.777298,8.69641268 154.777298,13.044619 C154.777298,17.7551759 155.504928,19.5151642 159.45492,19.5151642 C160.598338,19.5151642 163.041096,19.2563424 163.041096,19.2563424 L163.09307,20.8092732 C163.09307,20.8092732 160.390444,21.1716237 159.091105,21.1716237 C154.205589,21.1716237 152.854276,18.9975206 152.854276,13.044619 C152.854276,7.50583237 154.621378,5.48702229 159.143078,5.48702229 C160.494391,5.43525792 163.09307,5.84937281 163.09307,5.84937281 L163.09307,5.84937281 Z"></path>
                        </g>
                    </g>
                </g>
            </g>
        </g>
    </g>
</svg>