<?xml version="1.0" encoding="UTF-8" standalone="no"?>
<svg width="361px" height="200px" viewBox="0 0 361 200" version="1.1" xmlns="http://www.w3.org/2000/svg" xmlns:xlink="http://www.w3.org/1999/xlink">
    <!-- Generator: Sketch 3.8.3 (29802) - http://www.bohemiancoding.com/sketch -->
    <title>Group 3</title>
    <desc>Created with Sketch.</desc>
    <defs></defs>
    <g id="Page-1" stroke="none" stroke-width="1" fill="none" fill-rule="evenodd">
        <g id="Group-3">
            <rect id="Rectangle-1-Copy-7" fill="#FFFFFF" x="0" y="0" width="360.714286" height="200"></rect>
            <g id="browser-sync_logo" transform="translate(35.714286, 70.982143)" fill="#F24747">
                <g id="Layer_1">
                    <g id="Group">
                        <path d="M17.8269303,0.240075797 L0.51353297,8.86192831 C0.220085559,9.00806141 0.0733618529,9.3003276 0.0733618529,9.59259378 L0.0733618529,47.5871981 C0.0733618529,47.8794643 0.220085559,48.1717305 0.51353297,48.3178636 L17.8269303,56.9397161 C18.4138251,57.2319823 19.0740818,56.793583 19.0740818,56.2090506 L19.0740818,1.04380781 C19.0740818,0.38620889 18.4138251,-0.0521903905 17.8269303,0.240075797 L17.8269303,0.240075797 Z" id="Shape"></path>
                        <path d="M21.4950229,56.9397161 L38.8084202,48.3178636 C39.1018676,48.1717305 39.2485913,47.8794643 39.2485913,47.5871981 L39.2485913,29.1013618 C39.2485913,28.8090956 39.1018676,28.5168294 38.8084202,28.3706963 L21.4950229,19.7488438 C20.9081281,19.4565776 20.2478714,19.8949769 20.2478714,20.4795092 L20.2478714,56.1359841 C20.2478714,56.793583 20.9081281,57.2319823 21.4950229,56.9397161 L21.4950229,56.9397161 Z" id="Shape"></path>
                        <g transform="translate(58.689482, 18.579779)" id="Shape">
                            <path d="M11.2243635,0.21919964 C17.0199499,0.21919964 20.1745095,2.41119604 20.1745095,7.8181205 C20.1745095,11.3253147 19.0740818,13.0789119 16.7265025,14.3941097 C19.2208055,15.3439748 20.9081281,17.1706385 20.9081281,21.1892986 C20.9081281,27.1807554 17.2400354,29.4458183 11.5911728,29.4458183 L0.146723706,29.4458183 L0.146723706,0.292266187 L11.2243635,0.292266187 L11.2243635,0.21919964 Z M4.84188229,4.31092626 L4.84188229,12.6405126 L11.1510016,12.6405126 C14.0854758,12.6405126 15.3326273,11.1791817 15.3326273,8.32958633 C15.3326273,5.55305755 13.8653902,4.31092626 11.0042779,4.31092626 L4.84188229,4.31092626 L4.84188229,4.31092626 Z M4.84188229,16.6591727 L4.84188229,25.2810252 L11.2977253,25.2810252 C14.2321995,25.2810252 15.9928839,24.3311601 15.9928839,20.8239658 C15.9928839,17.5359712 13.4985809,16.5861061 11.2243635,16.5861061 L4.84188229,16.5861061 L4.84188229,16.6591727 Z"></path>
                            <path d="M25.7500104,8.11038669 L30.3718071,8.11038669 L30.3718071,10.6677158 C30.3718071,10.6677158 34.0398997,8.32958633 37.6346305,7.67198741 L37.6346305,12.3482464 C33.7464523,13.0789119 30.445169,15.7093076 30.445169,15.7093076 L30.445169,29.4458183 L25.7500104,29.4458183 L25.7500104,8.11038669 L25.7500104,8.11038669 Z"></path>
                            <path d="M138.213731,8.11038669 L142.835528,8.11038669 L142.835528,10.6677158 C142.835528,10.6677158 146.50362,8.32958633 150.098351,7.67198741 L150.098351,12.3482464 C146.210173,13.0789119 142.908889,15.7093076 142.908889,15.7093076 L142.908889,29.4458183 L138.213731,29.4458183 L138.213731,8.11038669 L138.213731,8.11038669 Z"></path>
                            <path d="M59.0562916,18.6319694 C59.0562916,25.7194245 56.855436,29.8842176 49.5192507,29.8842176 C42.1830654,29.8842176 39.9822098,25.7194245 39.9822098,18.6319694 C39.9822098,11.763714 42.403151,7.67198741 49.5192507,7.67198741 C56.6353504,7.67198741 59.0562916,11.763714 59.0562916,18.6319694 L59.0562916,18.6319694 Z M54.2877712,18.6319694 C54.2877712,13.6634442 53.1873434,11.5445144 49.4458889,11.5445144 C45.7044344,11.5445144 44.6040066,13.6634442 44.6040066,18.6319694 C44.6040066,23.6004946 45.4843488,25.9386241 49.4458889,25.9386241 C53.4807908,25.9386241 54.2877712,23.6004946 54.2877712,18.6319694 L54.2877712,18.6319694 Z"></path>
                            <polygon points="66.5392006 8.11038669 69.9138458 25.4271583 70.7941881 25.4271583 74.82909 8.54878597 79.5976104 8.54878597 83.6325123 25.4271583 84.5128545 25.4271583 87.8141379 8.11038669 92.4359347 8.11038669 87.8874998 29.3727518 80.4779526 29.3727518 77.1766693 14.7594424 73.8753859 29.3727518 66.4658387 29.3727518 61.9174039 8.11038669"></polygon>
                            <path d="M111.289931,12.4943795 C111.289931,12.4943795 106.227963,11.8367806 103.660298,11.8367806 C101.092633,11.8367806 99.9188437,12.4213129 99.9188437,14.1749101 C99.9188437,15.5631745 100.799186,15.9285072 104.980812,16.6591727 C110.116141,17.5359712 111.950188,18.8511691 111.950188,23.0890288 C111.950188,28.057554 108.795628,29.8842176 103.513574,29.8842176 C100.5791,29.8842176 95.5904943,28.9343525 95.5904943,28.9343525 L95.737218,25.0618255 C95.737218,25.0618255 100.872548,25.7194245 103.073403,25.7194245 C106.154601,25.7194245 107.328391,25.0618255 107.328391,23.2351619 C107.328391,21.7738309 106.594772,21.2623651 102.339785,20.6047662 C97.6446262,19.8741007 95.2236851,18.8511691 95.2236851,14.3210432 C95.2236851,9.49865108 98.9651396,7.74505396 103.220127,7.74505396 C106.374687,7.74505396 111.289931,8.69491906 111.289931,8.69491906 L111.289931,12.4943795 L111.289931,12.4943795 Z"></path>
                            <path d="M132.931677,25.4271583 L133.005039,28.861286 C133.005039,28.861286 128.163157,29.8111511 124.348341,29.8111511 C117.965859,29.8111511 115.471556,26.3770234 115.471556,18.9242356 C115.471556,11.1061151 118.846202,7.59892086 124.71515,7.59892086 C130.730822,7.59892086 133.665296,10.7407824 133.665296,17.3167716 L133.371849,20.6047662 L120.093353,20.6047662 C120.166715,24.0388939 121.413867,25.7194245 124.935235,25.7194245 C128.456604,25.8655576 132.931677,25.4271583 132.931677,25.4271583 L132.931677,25.4271583 Z M129.190223,17.1706385 C129.190223,12.9327788 127.943071,11.5445144 124.788512,11.5445144 C121.633952,11.5445144 120.240077,13.1519784 120.166715,17.1706385 L129.190223,17.1706385 L129.190223,17.1706385 Z"></path>
                            <path d="M167.851919,10.7407824 C167.851919,10.7407824 163.303485,10.0831835 160.442372,10.0831835 C157.801346,10.0831835 155.380404,10.8138489 155.380404,13.7365108 C155.380404,15.9285072 156.480832,16.5861061 161.102629,17.3898381 C166.604768,18.2666367 168.6589,19.2895683 168.6589,23.381295 C168.6589,28.3498201 165.50434,29.9572842 160.442372,29.9572842 C157.801346,29.9572842 153.106187,29.2266187 153.106187,29.2266187 L153.252911,26.9615558 C153.252911,26.9615558 158.021431,27.6922212 160.222287,27.6922212 C163.890379,27.6922212 166.017873,26.8154227 166.017873,23.5274281 C166.017873,20.9700989 164.770722,20.3855665 159.928839,19.7279676 C155.013595,18.9973022 152.739378,18.0474371 152.739378,13.9557104 C152.739378,9.27945144 156.554194,7.9642536 160.295649,7.9642536 C163.52357,7.9642536 167.851919,8.69491906 167.851919,8.69491906 L167.851919,10.7407824 L167.851919,10.7407824 Z"></path>
                            <polygon points="174.087677 8.11038669 179.73654 27.1807554 181.277139 27.1807554 186.999363 8.11038669 189.64039 8.11038669 180.54352 38.8714029 177.975855 38.8714029 180.763606 29.3727518 177.829131 29.3727518 171.520012 8.11038669"></polygon>
                            <path d="M193.968739,29.4458183 L193.968739,8.18345324 L196.463042,8.18345324 L196.463042,9.79091727 C196.463042,9.79091727 200.057773,7.8181205 203.432418,7.8181205 C209.301366,7.8181205 210.548518,10.5215827 210.548518,18.3397032 L210.548518,29.5188849 L207.980853,29.5188849 L207.980853,18.4858363 C207.980853,12.2021133 207.320596,10.15625 202.992247,10.15625 C199.690964,10.15625 196.38968,11.9098471 196.38968,11.9098471 L196.38968,29.5188849 L193.968739,29.5188849 L193.968739,29.4458183 Z"></path>
                            <path d="M230.209494,8.25651978 L230.062771,10.4485162 C230.062771,10.4485162 226.688125,10.0101169 225.074165,10.0101169 C219.938835,10.0101169 218.471598,12.2751799 218.471598,18.4127698 C218.471598,25.0618255 219.498664,27.5460881 225.074165,27.5460881 C226.688125,27.5460881 230.136133,27.1807554 230.136133,27.1807554 L230.209494,29.3727518 C230.209494,29.3727518 226.394678,29.8842176 224.560632,29.8842176 C217.664618,29.8842176 215.757209,26.8154227 215.757209,18.4127698 C215.757209,10.5946493 218.251512,7.74505396 224.633994,7.74505396 C226.541402,7.67198741 230.209494,8.25651978 230.209494,8.25651978 L230.209494,8.25651978 Z"></path>
                        </g>
                    </g>
                </g>
            </g>
        </g>
    </g>
</svg>