<?xml version="1.0" encoding="UTF-8" standalone="no"?>
<svg width="167px" height="200px" viewBox="0 0 167 200" version="1.1" xmlns="http://www.w3.org/2000/svg" xmlns:xlink="http://www.w3.org/1999/xlink">
    <!-- Generator: Sketch 3.8.3 (29802) - http://www.bohemiancoding.com/sketch -->
    <title>Group 7</title>
    <desc>Created with Sketch.</desc>
    <defs></defs>
    <g id="Page-1" stroke="none" stroke-width="1" fill="none" fill-rule="evenodd">
        <g id="Group-7">
            <rect id="Rectangle-1-Copy-3" fill="#FFFFFF" x="0" y="0" width="166.517857" height="200"></rect>
            <g id="cssnano_logo" transform="translate(35.714286, 34.821429)">
                <g id="Layer_2">
                    <path d="M47.6017808,0.121067521 L10.3832861,21.5763378 L10.3832861,66.5283927 L47.6017808,87.9821892 L84.8105767,66.5283927 L84.8105767,21.5754956 L47.6017808,0.120225313 L47.6017808,0.121067521 L47.6017808,0.121067521 Z M69.9249921,57.9464951 L47.6015699,70.8190257 L25.2688708,57.9473373 L25.2688708,30.1586565 L47.6015699,43.0320293 L69.9249921,30.1586565 L69.9249921,57.9473373 L69.9249921,57.9464951 L69.9249921,57.9464951 Z M7.94322339,115.738866 L13.3580417,115.738866 L13.3580417,110.84837 C13.3580417,107.452794 11.6358925,105.733425 8.23692489,105.733425 L5.25668752,105.733425 C1.85624406,105.733425 0.134938232,107.452794 0.134938232,110.84837 L0.134938232,124.62459 C0.134938232,128.021008 1.85603322,129.739114 5.25668752,129.739114 L8.27888225,129.739114 C11.6774281,129.739114 13.3978906,128.021008 13.3978906,124.625433 L13.3978906,119.008952 L7.9839157,119.008952 L7.9839157,123.95714 C7.9839157,124.584796 7.69084673,124.87978 7.06064302,124.87978 L6.59932293,124.87978 C5.96827586,124.87978 5.67626109,124.585007 5.67626109,123.95714 L5.67626109,111.518979 C5.67626109,110.89048 5.96827586,110.596549 6.59932293,110.596549 L7.01973986,110.596549 C7.64846769,110.596549 7.94322339,110.89048 7.94322339,111.518979 L7.94322339,115.738866 L7.94322339,115.738866 L7.94322339,115.738866 Z M22.466794,114.397017 L27.7976976,114.397017 L27.7976976,110.84837 C27.7976976,107.452794 26.0763917,105.732162 22.6767917,105.732162 L20.115917,105.732162 C16.7156844,105.732162 14.9941677,107.452794 14.9941677,110.84837 L14.9941677,114.144565 C14.9941677,116.283354 15.79199,117.289583 17.5132959,118.379822 L21.794633,121.019937 C22.3822468,121.397878 22.5922444,121.690335 22.5922444,122.361575 L22.5922444,124.122423 C22.5922444,124.751764 22.2991754,125.044221 21.6696043,125.044221 L21.2076516,125.044221 C20.5774479,125.044221 20.284379,124.751764 20.284379,124.122423 L20.284379,120.936768 L14.9524212,120.936768 L14.9524212,124.62438 C14.9524212,128.020798 16.6728837,129.738904 20.0731163,129.738904 L22.7176948,129.738904 C26.1183491,129.738904 27.8386007,128.020798 27.8386007,124.625222 L27.8386007,121.230699 C27.8386007,119.092331 27.0416218,118.086523 25.320316,116.996705 L21.0385572,114.355538 C20.4498891,113.97865 20.240524,113.684929 20.240524,113.013689 L20.240524,111.350326 C20.240524,110.721617 20.5344364,110.42895 21.1640076,110.42895 L21.5416238,110.42895 C22.1709841,110.42895 22.4648965,110.721617 22.4648965,111.350326 L22.4648965,114.397017 L22.466794,114.397017 L22.466794,114.397017 Z M36.9058174,114.397017 L42.2369318,114.397017 L42.2105767,110.84837 C42.2105767,107.452794 40.4892709,105.732162 37.0888274,105.732162 L34.5281636,105.732162 C31.1289852,105.732162 29.4089444,107.452794 29.4089444,110.84837 L29.4361429,114.144565 C29.4361429,116.283354 30.2339652,117.289583 31.9542168,118.379822 L36.2361865,121.019937 C36.8240111,121.397878 37.0340088,121.690335 37.0340088,122.361575 L37.0340088,124.122423 C37.0340088,124.751764 36.7403073,125.044221 36.1109469,125.044221 L35.6496268,125.044221 C35.0185797,125.044221 34.7259325,124.751764 34.7259325,124.122423 L34.7259325,120.936768 L29.3946072,120.936768 L29.3946072,124.62438 C29.3946072,128.020798 31.1157022,129.738904 34.5150915,129.738904 L37.1598808,129.738904 C40.5601134,129.738904 42.2812084,128.020798 42.2812084,124.625222 L42.2812084,121.230699 C42.2812084,119.092331 41.4838078,118.086523 39.7618695,116.996705 L35.4794781,114.355538 C34.8920752,113.97865 34.6820775,113.684929 34.6820775,113.013689 L34.6546682,111.350326 C34.6546682,110.721617 34.9475263,110.42895 35.5779409,110.42895 L35.9555571,110.42895 C36.5851283,110.42895 36.8779864,110.721617 36.8779864,111.350326 L36.9058174,114.397017 L36.9058174,114.397017 L36.9058174,114.397017 Z" id="Shape" fill="#40B97B"></path>
                    <path d="M44.5719958,129.767749 L47.9115062,129.767749 L47.9115062,110.075643 C49.0981193,109.244594 50.0639818,108.891498 51.1194518,108.891498 C52.26221,108.891498 52.8329565,109.4642 52.8329565,110.691719 L52.8329565,129.76796 L56.1712019,129.76796 L56.1712019,109.989317 C56.1712019,107.312777 54.8975115,105.733636 52.130856,105.733636 C50.1535892,105.733636 48.8798988,106.611217 47.9131929,107.534489 L47.9131929,105.734057 L44.5741042,105.734057 L44.5741042,129.767749 L44.5719958,129.767749 L44.5719958,129.767749 Z M57.579198,125.583445 C57.579198,128.216822 58.8092443,129.750695 61.4892441,129.750695 C63.4228668,129.750695 64.6533349,128.873745 65.5755533,127.9949 L65.5755533,129.767749 L68.9140095,129.767749 L68.9140095,111.085452 C68.9140095,107.534489 67.1134275,105.734057 63.5542208,105.734057 L63.2033814,105.734057 C59.6441747,105.734057 57.8423276,107.534489 57.8423276,111.085452 L57.8423276,113.692299 L61.0941281,113.692299 L61.0941281,110.956173 C61.0941281,109.552421 61.7968611,108.807277 63.2042247,108.807277 L63.4665109,108.807277 C64.8728203,108.807277 65.5763967,109.552421 65.5763967,110.956173 L65.5763967,114.70337 L61.0941281,116.240191 C58.5461148,117.117351 57.5783546,118.300234 57.5783546,121.239753 L57.5783546,125.584498 L57.579198,125.583445 L57.579198,125.583445 Z M62.544925,126.593043 C61.4892441,126.593043 60.9191301,126.025394 60.9191301,124.884412 L60.9191301,121.284811 C60.9191301,119.923802 61.314457,119.311516 62.544925,118.828088 L65.5763967,117.774274 L65.5763967,125.495645 C64.4777043,126.24121 63.5546425,126.594728 62.544925,126.594728 L62.544925,126.593043 L62.544925,126.593043 Z M70.3397163,129.767749 L73.6781725,129.767749 L73.6781725,110.075643 C74.865629,109.244594 75.8317024,108.891498 76.8844314,108.891498 C78.0309847,108.891498 78.6008879,109.4642 78.6008879,110.691719 L78.6008879,129.76796 L81.9406092,129.76796 L81.9406092,109.989317 C81.9406092,107.312777 80.6660754,105.733636 77.8987874,105.733636 C75.9202556,105.733636 74.6463543,106.611217 73.6798592,107.534489 L73.6798592,105.734057 L70.341403,105.734057 L70.341403,129.767749 L70.3397163,129.767749 L70.3397163,129.767749 Z M89.6105826,108.849598 C91.0147836,108.849598 91.7206792,109.551579 91.7206792,110.955751 L91.7206792,124.529842 C91.7206792,125.933383 91.015627,126.63768 89.6105826,126.63768 L88.8180314,126.63768 C87.412987,126.63768 86.710254,125.934225 86.710254,124.529842 L86.710254,110.955751 C86.710254,109.551579 87.412987,108.849598 88.8180314,108.849598 L89.6088959,108.849598 L89.6105826,108.849598 L89.6105826,108.849598 Z M89.6959732,129.751958 C93.2560233,129.751958 95.0574487,127.953842 95.0574487,124.400773 L95.0574487,111.085452 C95.0574487,107.534489 93.2560233,105.734057 89.6959732,105.734057 L88.7315866,105.734057 C85.1711148,105.734057 83.3715869,107.534489 83.3715869,111.085452 L83.3715869,124.399089 C83.3715869,127.953842 85.1717473,129.750274 88.7301107,129.750274 L89.6959732,129.750274 L89.6959732,129.751958 L89.6959732,129.751958 Z" id="Shape" fill="#ACBAB3"></path>
                </g>
            </g>
        </g>
    </g>
</svg>