<?xml version="1.0" encoding="UTF-8" standalone="no"?>
<svg width="68px" height="93px" viewBox="0 0 68 93" version="1.1" xmlns="http://www.w3.org/2000/svg" xmlns:xlink="http://www.w3.org/1999/xlink">
    <!-- Generator: Sketch 3.8.3 (29802) - http://www.bohemiancoding.com/sketch -->
    <title>Group 4</title>
    <desc>Created with Sketch.</desc>
    <defs></defs>
    <g id="Page-1" stroke="none" stroke-width="1" fill="none" fill-rule="evenodd">
        <g id="Group-4" transform="translate(-18.000000, -10.000000)">
            <rect id="Rectangle-1-Copy-3" x="0" y="5.68434189e-14" width="103.783061" height="113.352802"></rect>
            <g id="cssnano_logo" transform="translate(18.419830, 10.626825)">
                <g id="Layer_2">
                    <path d="M33.7237201,0.0857708922 L7.3560911,15.2858647 L7.3560911,47.1323732 L33.7237201,62.3314228 L60.084478,47.1323732 L60.084478,15.285268 L33.7237201,0.0851742251 L33.7237201,0.0857708922 L33.7237201,0.0857708922 Z M49.538711,41.0524848 L33.7235707,50.1720936 L17.9018581,41.0530815 L17.9018581,21.3660513 L33.7235707,30.4862568 L49.538711,21.3660513 L49.538711,41.0530815 L49.538711,41.0524848 L49.538711,41.0524848 Z M5.62741642,81.9957796 L9.46357155,81.9957796 L9.46357155,78.5310831 C9.46357155,76.1254706 8.24350632,74.9073748 5.83549071,74.9073748 L3.72412661,74.9073748 C1.31506541,74.9073748 0.095597667,76.1254706 0.095597667,78.5310831 L0.095597667,88.2909156 C0.095597667,90.6971248 1.31491604,91.9143256 3.72412661,91.9143256 L5.86521561,91.9143256 C8.27293248,91.9143256 9.49180273,90.6971248 9.49180273,88.2915123 L9.49180273,84.3124887 L5.65624509,84.3124887 L5.65624509,87.818057 C5.65624509,88.2627231 5.4486189,88.4717057 5.00214792,88.4717057 L4.6753234,88.4717057 C4.22825494,88.4717057 4.02137561,88.2628723 4.02137561,87.818057 L4.02137561,79.0061792 C4.02137561,78.5609164 4.22825494,78.3526796 4.6753234,78.3526796 L4.97316988,78.3526796 C5.41859526,78.3526796 5.62741642,78.5609164 5.62741642,79.0061792 L5.62741642,81.9957796 L5.62741642,81.9957796 L5.62741642,81.9957796 Z M15.9167128,81.0451398 L19.6934181,81.0451398 L19.6934181,78.5310831 C19.6934181,76.1254706 18.4739504,74.9064798 16.0654867,74.9064798 L14.2512222,74.9064798 C11.8423104,74.9064798 10.6226933,76.1254706 10.6226933,78.5310831 L10.6226933,80.8662888 C10.6226933,82.3815249 11.1879145,83.0943929 12.4073822,83.8667784 L15.4405169,85.7371805 C15.8568149,86.0049349 16.0055888,86.2121275 16.0055888,86.6876712 L16.0055888,87.9351529 C16.0055888,88.3810123 15.7979626,88.588205 15.3519397,88.588205 L15.0246671,88.588205 C14.5781961,88.588205 14.3705699,88.3810123 14.3705699,87.9351529 L14.3705699,85.6782596 L10.5931177,85.6782596 L10.5931177,88.2907664 C10.5931177,90.6969756 11.811988,91.9141764 14.2208998,91.9141764 L16.0944647,91.9141764 C18.5036753,91.9141764 19.7223962,90.6969756 19.7223962,88.2913631 L19.7223962,85.8864965 C19.7223962,84.3715588 19.1577725,83.6589891 17.9383047,82.8869019 L14.9048713,81.0157539 C14.4878264,80.7487454 14.3395007,80.5406578 14.3395007,80.0651141 L14.3395007,78.8866967 C14.3395007,78.4412847 14.5477243,78.2339429 14.9937472,78.2339429 L15.2612713,78.2339429 C15.7071448,78.2339429 15.9153685,78.4412847 15.9153685,78.8866967 L15.9153685,81.0451398 L15.9167128,81.0451398 L15.9167128,81.0451398 Z M26.1461113,81.0451398 L29.922966,81.0451398 L29.9042946,78.5310831 C29.9042946,76.1254706 28.6848268,74.9064798 26.2757656,74.9064798 L24.4616505,74.9064798 C22.0534855,74.9064798 20.834914,76.1254706 20.834914,78.5310831 L20.8541829,80.8662888 C20.8541829,82.3815249 21.4194041,83.0943929 22.638125,83.8667784 L25.6717079,85.7371805 C26.0881552,86.0049349 26.2369291,86.2121275 26.2369291,86.6876712 L26.2369291,87.9351529 C26.2369291,88.3810123 26.0288548,88.588205 25.5829813,88.588205 L25.2561568,88.588205 C24.8090883,88.588205 24.6017609,88.3810123 24.6017609,87.9351529 L24.6017609,85.6782596 L20.8247568,85.6782596 L20.8247568,88.2907664 C20.8247568,90.6969756 22.0440752,91.9141764 24.4523895,91.9141764 L26.3261038,91.9141764 C28.7350156,91.9141764 29.954334,90.6969756 29.954334,88.2913631 L29.954334,85.8864965 C29.954334,84.3715588 29.3894115,83.6589891 28.1694957,82.8869019 L25.1356141,81.0157539 C24.7194655,80.7487454 24.5706916,80.5406578 24.5706916,80.0651141 L24.5512733,78.8866967 C24.5512733,78.4412847 24.7587501,78.2339429 25.2053705,78.2339429 L25.4728946,78.2339429 C25.9189175,78.2339429 26.1263943,78.4412847 26.1263943,78.8866967 L26.1461113,81.0451398 L26.1461113,81.0451398 L26.1461113,81.0451398 Z" id="Shape" fill="#40B97B"></path>
                    <path d="M31.5772537,91.9346123 L33.9431466,91.9346123 L33.9431466,77.983641 C34.7838086,77.3948798 35.4680788,77.1447271 36.2158318,77.1447271 C37.0254245,77.1447271 37.4297728,77.5504607 37.4297728,78.420103 L37.4297728,91.9347614 L39.7947695,91.9347614 L39.7947695,77.9224827 C39.7947695,76.0262747 38.8924171,74.9075239 36.9323662,74.9075239 C35.5315616,74.9075239 34.6292093,75.529251 33.9443416,76.1833473 L33.9443416,74.9078223 L31.5787475,74.9078223 L31.5787475,91.9346123 L31.5772537,91.9346123 L31.5772537,91.9346123 Z M40.7922714,88.9702211 C40.7922714,90.8358499 41.6637038,91.9225298 43.5623631,91.9225298 C44.9322478,91.9225298 45.8039791,91.3012502 46.4573294,90.6786281 L46.4573294,91.9346123 L48.8224754,91.9346123 L48.8224754,78.6990449 C48.8224754,76.1833473 47.546844,74.9078223 45.0253062,74.9078223 L44.7767522,74.9078223 C42.2552144,74.9078223 40.9786868,76.1833473 40.9786868,78.6990449 L40.9786868,80.5458786 L43.2824412,80.5458786 L43.2824412,78.6074565 C43.2824412,77.6129616 43.7802959,77.0850604 44.7773497,77.0850604 L44.9631677,77.0850604 C45.9594746,77.0850604 46.4579268,77.6129616 46.4579268,78.6074565 L46.4579268,81.2621775 L43.2824412,82.3509457 C41.4772884,82.9723745 40.7916739,83.8103934 40.7916739,85.8929106 L40.7916739,88.9709669 L40.7922714,88.9702211 L40.7922714,88.9702211 Z M44.3102655,89.6854757 C43.5623631,89.6854757 43.158463,89.2833221 43.158463,88.4749874 L43.158463,85.9248323 C43.158463,84.9606183 43.4385343,84.5268414 44.3102655,84.1843545 L46.4579268,83.4377748 L46.4579268,88.9080185 C45.6795527,89.4362181 45.0256049,89.6866691 44.3102655,89.6866691 L44.3102655,89.6854757 L44.3102655,89.6854757 Z M49.8325245,91.9346123 L52.1976705,91.9346123 L52.1976705,77.983641 C53.03893,77.3948798 53.7233495,77.1447271 54.4691607,77.1447271 C55.2814421,77.1447271 55.6851929,77.5504607 55.6851929,78.420103 L55.6851929,91.9347614 L58.0512352,91.9347614 L58.0512352,77.9224827 C58.0512352,76.0262747 57.1482853,74.9075239 55.1877863,74.9075239 C53.7860855,74.9075239 52.8835838,75.529251 52.1988655,76.1833473 L52.1988655,74.9078223 L49.8337195,74.9078223 L49.8337195,91.9346123 L49.8325245,91.9346123 L49.8325245,91.9346123 Z M63.4850663,77.1150429 C64.4798795,77.1150429 64.9799748,77.6123649 64.9799748,78.6071581 L64.9799748,88.2237906 C64.9799748,89.2181362 64.480477,89.7170991 63.4850663,89.7170991 L62.9235794,89.7170991 C61.9281687,89.7170991 61.4303139,89.2187329 61.4303139,88.2237906 L61.4303139,78.6071581 C61.4303139,77.6123649 61.9281687,77.1150429 62.9235794,77.1150429 L63.4838713,77.1150429 L63.4850663,77.1150429 L63.4850663,77.1150429 Z M63.5455617,91.9234248 C66.067697,91.9234248 67.3439259,90.6495406 67.3439259,88.1323513 L67.3439259,78.6990449 C67.3439259,76.1833473 66.067697,74.9078223 63.5455617,74.9078223 L62.8623371,74.9078223 C60.3399031,74.9078223 59.0650185,76.1833473 59.0650185,78.6990449 L59.0650185,88.131158 C59.0650185,90.6495406 60.3403512,91.9222314 62.8612915,91.9222314 L63.5455617,91.9222314 L63.5455617,91.9234248 L63.5455617,91.9234248 Z" id="Shape" fill="#ACBAB3"></path>
                </g>
            </g>
        </g>
    </g>
</svg>