<?xml version="1.0" encoding="UTF-8" standalone="no"?>
<svg width="61px" height="53px" viewBox="0 0 61 53" version="1.1" xmlns="http://www.w3.org/2000/svg" xmlns:xlink="http://www.w3.org/1999/xlink">
    <!-- Generator: Sketch 3.8.3 (29802) - http://www.bohemiancoding.com/sketch -->
    <title>Group 6</title>
    <desc>Created with Sketch.</desc>
    <defs></defs>
    <g id="Page-1" stroke="none" stroke-width="1" fill="none" fill-rule="evenodd">
        <g id="Group-6" transform="translate(-18.000000, -30.000000)">
            <rect id="Rectangle-1-Copy-2" x="0" y="0" width="97.1053304" height="113.352802"></rect>
            <g id="eslint_logo" transform="translate(18.419830, 30.463565)">
                <g id="Group">
                    <path d="M18.2046998,18.7998467 L29.5458465,12.2565513 C29.8296561,12.0927465 30.1795008,12.0927465 30.4633104,12.2565513 L41.8046915,18.7998467 C42.0882669,18.9636514 42.2634233,19.266222 42.2634233,19.5938314 L42.2634233,32.6804222 C42.2634233,33.0077977 42.0882669,33.3106023 41.8046915,33.4746411 L30.4633104,40.0179364 C30.1795008,40.1817411 29.8296561,40.1817411 29.5458465,40.0179364 L18.2046998,33.4746411 C17.9208901,33.3108364 17.7459678,33.0080316 17.7459678,32.6804222 L17.7459678,19.5938314 C17.746202,19.266222 17.9211243,18.9636514 18.2046998,18.7998467" id="Shape" fill="#8080F2"></path>
                    <path d="M59.4061917,25.0646251 L45.8413703,1.48166541 C45.3486324,0.628975751 44.4384039,0 43.4531627,0 L16.3230511,0 C15.3375756,0 14.4271125,0.628975751 13.9343748,1.48166541 L0.369553305,25.0126203 C-0.123184435,25.8655444 -0.123184435,26.941948 0.369553305,27.7948719 L13.9343748,51.1845709 C14.4271125,52.0372605 15.3375756,52.4732098 16.3230511,52.4732098 L43.4529283,52.4732098 C44.4381695,52.4732098 45.3486324,52.0503789 45.8411358,51.197455 L59.4059572,27.7695722 C59.8991639,26.9171169 59.8991639,25.9173149 59.4061917,25.0646251 L59.4061917,25.0646251 L59.4061917,25.0646251 Z M48.1737872,36.4049291 C48.1737872,36.7516271 47.9649247,37.0723228 47.6641716,37.2459061 L30.3855329,47.2080854 C30.0850145,47.3814344 29.7085459,47.3814344 29.4080276,47.2080854 L12.1160272,37.2459061 C11.8155087,37.0723228 11.6052396,36.7518614 11.6052396,36.4049291 L11.6052396,16.480336 C11.6052396,16.1334037 11.8124613,15.8129423 12.1132142,15.6393591 L29.3911497,5.67717964 C29.6916681,5.50359639 30.0676678,5.50359639 30.3681862,5.67717964 L47.6613587,15.6393591 C47.9621117,15.8129423 48.1737872,16.1334037 48.1737872,16.480336 L48.1737872,36.4049291 L48.1737872,36.4049291 L48.1737872,36.4049291 Z" id="Shape" fill="#4B32C3"></path>
                </g>
            </g>
        </g>
    </g>
</svg>