<?xml version="1.0" encoding="UTF-8" standalone="no"?>
<svg width="156px" height="200px" viewBox="0 0 156 200" version="1.1" xmlns="http://www.w3.org/2000/svg" xmlns:xlink="http://www.w3.org/1999/xlink">
    <!-- Generator: Sketch 3.8.3 (29802) - http://www.bohemiancoding.com/sketch -->
    <title>Group 5</title>
    <desc>Created with Sketch.</desc>
    <defs></defs>
    <g id="Page-1" stroke="none" stroke-width="1" fill="none" fill-rule="evenodd">
        <g id="Group-5">
            <rect id="Rectangle-1-Copy-2" fill="#FFFFFF" x="0" y="0" width="155.803571" height="200"></rect>
            <g id="eslint_logo" transform="translate(35.714286, 62.946429)">
                <g id="Group">
                    <path d="M25.6963385,26.5364016 L41.7046192,17.3003946 C42.1052228,17.0691806 42.5990364,17.0691806 42.99964,17.3003946 L59.0082515,26.5364016 C59.4085245,26.7676155 59.6557617,27.1947008 59.6557617,27.6571287 L59.6557617,46.1291425 C59.6557617,46.5912404 59.4085245,47.0186558 59.0082515,47.2502001 L42.99964,56.486207 C42.5990364,56.7174209 42.1052228,56.7174209 41.7046192,56.486207 L25.6963385,47.2502001 C25.2957348,47.0189862 25.0488281,46.5915704 25.0488281,46.1291425 L25.0488281,27.6571287 C25.0491587,27.1947008 25.2960654,26.7676155 25.6963385,26.5364016" id="Shape" fill="#8080F2"></path>
                    <path d="M83.8531604,35.3792757 L64.7061134,2.09140367 C64.010603,0.887813258 62.7257952,0 61.3351054,0 L23.0403495,0 C21.649329,0 20.3641901,0.887813258 19.6686798,2.09140367 L0.521632706,35.3058697 C-0.173877568,36.509791 -0.173877568,38.0291587 0.521632706,39.2330796 L19.6686798,72.2481599 C20.3641901,73.4517502 21.649329,74.0671023 23.0403495,74.0671023 L61.3347745,74.0671023 C62.7254643,74.0671023 64.010603,73.4702671 64.7057825,72.2663461 L83.8528295,39.1973685 C84.5490017,37.994109 84.5490017,36.5828662 83.8531604,35.3792757 L83.8531604,35.3792757 L83.8531604,35.3792757 Z M67.9983718,51.3863668 C67.9983718,51.8757388 67.7035577,52.3284079 67.279038,52.5734246 L42.8898553,66.6352622 C42.4656669,66.8799482 41.9342732,66.8799482 41.5100848,66.6352622 L17.1020418,52.5734246 C16.6778533,52.3284079 16.3810537,51.8760694 16.3810537,51.3863668 L16.3810537,23.2623607 C16.3810537,22.7726581 16.6735518,22.3203197 17.0980712,22.0753031 L41.4862614,8.01346529 C41.9104497,7.76844867 42.4411817,7.76844867 42.8653701,8.01346529 L67.2750675,22.0753031 C67.6995871,22.3203197 67.9983718,22.7726581 67.9983718,23.2623607 L67.9983718,51.3863668 L67.9983718,51.3863668 L67.9983718,51.3863668 Z" id="Shape" fill="#4B32C3"></path>
                </g>
            </g>
        </g>
    </g>
</svg>