<svg xmlns="http://www.w3.org/2000/svg" width="123" height="114" viewBox="0 0 123 114">
  <g fill="none" fill-rule="evenodd">
    <rect width="122.703" height="113.353" fill="#FFFFFF"/>
    <path fill="#00C775" d="M31.0240312,72.5726005 C15.8374425,70.1679239 3.76952827,58.7119363 0.650853801,43.6624432 C0.406783626,42.4736143 0.135594542,39.9608623 0.0542378168,38.0695436 C-0.406783626,27.6943096 3.33562573,18.1026219 10.7390877,10.7534978 C25.0849903,-3.5664867 48.0818246,-3.5664867 62.4277271,10.7534978 C69.8311891,18.1026219 73.5735984,27.6943096 73.112577,38.0695436 C72.9498635,41.9602564 72.4346043,44.7161779 71.2413723,48.2556458 C67.4447251,59.5495203 57.5192047,68.7899631 45.9665497,71.7890542 C41.4919298,72.9508642 35.4444133,73.2750903 31.0240312,72.5726005 L31.0240312,72.5726005 Z M26.5765302,50.1469645 C28.5833294,49.9308138 31.1053879,48.714966 32.7596413,47.1748922 C34.3054191,45.7158749 35.6071267,43.9326316 35.3901754,43.5543678 C35.3088187,43.4192736 34.03423,42.6627462 32.5969279,41.9062187 C30.6714854,40.8795028 29.9392749,40.6093144 29.8307992,40.852484 C29.7765614,41.0686347 29.0985887,41.852181 28.3392593,42.6357273 C26.1697466,44.7972344 23.8917583,45.2835735 20.5018947,44.2838765 C18.9289981,43.7975374 17.2476257,42.1764071 16.3798207,40.2310507 C15.701848,38.7990522 15.5933723,38.177619 15.5662534,36.2322626 C15.5662534,34.151812 15.6476101,33.7465294 16.4611774,32.1253991 C17.4916959,29.9909109 18.7934035,28.8291008 20.6917271,28.2617052 C23.376499,27.45114 26.1426277,27.8834414 27.9053567,29.3964964 C28.9358752,30.2881181 29.8036803,31.5309847 29.8036803,32.1794368 C29.8036803,32.3415498 28.6918051,32.4496252 26.6850058,32.4496252 L23.5663314,32.4496252 L23.5663314,35.0164148 L23.5663314,37.5832045 L30.2104639,37.5832045 L36.8545965,37.5832045 L36.8545965,36.4754321 C36.8545965,34.6381511 36.0410292,31.6120412 34.929154,29.2884211 C32.271501,23.7225403 26.9833138,21.3448825 19.7696842,22.4526549 C17.1391501,22.8849563 14.9425185,24.0467664 13.0441949,26.0731793 C10.1153528,29.1803457 9.0577154,32.3415498 9.24754776,37.1779219 C9.41026121,40.5552768 9.89840156,42.1764071 11.6340117,44.8512721 C12.8814815,46.7696096 15.2408265,48.6068907 17.5459337,49.4985123 C19.0645926,50.0659079 22.6714074,50.552247 24.2443041,50.390134 C24.7053255,50.3360963 25.7358441,50.228021 26.5765302,50.1469645 L26.5765302,50.1469645 Z M47.7021598,44.3108953 C47.7021598,41.2847854 47.8106355,38.9341464 47.94623,38.9881841 C48.0818246,39.0422218 50.1699805,41.4739173 52.5835634,44.4189707 L56.9768265,49.7416819 L60.7734737,49.7416819 C64.3531696,49.7416819 64.5701209,49.714663 64.217575,49.2823616 C64.0006238,49.0121732 61.6141598,46.202214 58.902269,43.0139911 C56.1632593,39.8257681 53.9395088,37.1509031 53.9395088,37.0428277 C53.9395088,36.8807147 63.0785809,25.7219344 65.2752125,23.2091824 C65.6548772,22.7498621 65.4650448,22.7228433 61.6141598,22.7228433 L57.5192047,22.7228433 L52.8276335,28.5318936 C50.2513372,31.7201165 48.0547057,34.3409439 47.9191111,34.3409439 C47.8106355,34.3409439 47.7021598,31.7201165 47.7021598,28.5318936 L47.7021598,22.7228433 L44.5834854,22.7228433 L41.4648109,22.7228433 L41.4648109,36.2322626 L41.4648109,49.7416819 L44.5834854,49.7416819 L47.7021598,49.7416819 L47.7021598,44.3108953 L47.7021598,44.3108953 Z" transform="matrix(1 0 0 -1 24.027 93.757)"/>
  </g>
</svg>
