<?xml version="1.0" encoding="UTF-8" standalone="no"?>
<svg width="122px" height="200px" viewBox="0 0 122 200" version="1.1" xmlns="http://www.w3.org/2000/svg" xmlns:xlink="http://www.w3.org/1999/xlink">
    <!-- Generator: Sketch 3.8.3 (29802) - http://www.bohemiancoding.com/sketch -->
    <title>Group 9</title>
    <desc>Created with Sketch.</desc>
    <defs></defs>
    <g id="Page-1" stroke="none" stroke-width="1" fill="none" fill-rule="evenodd">
        <g id="Group-9">
            <rect id="Rectangle-1-Copy" fill="#FFFFFF" x="0" y="0" width="121.875" height="200"></rect>
            <g id="gulp_logo" transform="translate(35.714286, 44.196429)" fill="#DA4648">
                <g id="gulp">
                    <g id="Page-1">
                        <g id="gulp">
                            <g id="Gulp-Logo">
                                <path d="M25.0740192,88.1115262 C18.5470254,88.1115262 13.5035969,87.1310603 11.07831,86.5467131 C9.41981634,86.1471248 8.08804821,85.7336579 7.07635548,85.3089147 L10.3109387,90.8352031 L11.5762051,108.102216 C11.5762051,110.037993 17.7255852,111.607143 25.3111121,111.607143 C32.8966391,111.607143 39.0460192,110.037993 39.0460192,108.102216 L40.0478812,90.6472636 L43.1084035,85.292723 C42.0923737,85.723249 40.7487509,86.1422095 39.0694393,86.5467131 C36.6441525,87.1310603 31.600724,88.1115262 25.0740192,88.1115262 L25.0740192,88.1115262 Z M43.2133605,31.9239799 C38.4229275,32.5930445 32.0650791,32.961695 25.3111121,32.961695 C18.5571452,32.961695 12.1992968,32.5930445 7.4088638,31.9239799 C5.0359109,31.5926281 3.15853997,31.201714 1.8287958,30.762803 C1.51161177,30.657846 0.97410483,30.4788698 0.456837528,30.1937801 L3.42483577,57.5094837 C3.56275444,57.0390567 3.71628655,56.569208 3.88658864,56.1010941 C4.23499954,55.1417353 4.63805746,54.2037727 5.09547326,53.2874954 C5.5531782,52.3715072 6.05136242,51.5055399 6.59002591,50.6898825 C7.12840026,49.8745142 7.70176027,49.1236237 8.30923853,48.4375 C8.91700592,47.7516654 9.54038675,47.1618246 10.1805376,46.6673991 C10.8203992,46.173552 11.4663328,45.7872641 12.1183383,45.5091136 C12.7706329,45.2309632 13.4165664,45.0915988 14.0564281,45.0915988 C14.79344,45.0915988 15.5064536,45.2931278 16.1951795,45.6961857 C16.8836163,46.0989545 17.5272368,46.7515382 18.1269083,47.6533586 C18.2645378,47.8548876 18.3518574,48.0587296 18.3879996,48.2648848 C18.4247201,48.4713291 18.4426467,48.6656296 18.4426467,48.8477864 C18.4426467,49.2794689 18.3394245,49.6203622 18.1329802,49.8695989 C17.9265359,50.1191247 17.6813472,50.2437431 17.3979922,50.2437431 C17.1383466,50.2437431 16.8974949,50.1069809 16.6748589,49.8337458 C16.4519338,49.5602216 16.2029862,49.1693075 15.927438,48.6607143 C15.6680815,48.200118 15.3827026,47.8670314 15.0710122,47.6605871 C14.7590327,47.4544319 14.4210307,47.3512098 14.0564281,47.3512098 C13.4894291,47.3512098 12.8839748,47.5862787 12.2400652,48.0564165 C11.5958665,48.5262653 10.9580288,49.1476221 10.3265521,49.9199089 C9.69449713,50.6924847 9.08904284,51.5749329 8.50990007,52.5681208 C7.93075731,53.5610196 7.41811621,54.5779168 6.97255505,55.6188125 C6.52699389,56.6602864 6.17308938,57.6870142 5.90968496,58.6989961 C5.64628053,59.710978 5.51472289,60.6200268 5.51472289,61.4258535 C5.51472289,61.6947516 5.5332277,61.9708781 5.56936991,62.2533656 C5.6060904,62.5367205 5.67461603,62.7931856 5.77610335,63.0236283 C5.8770124,63.2540711 6.01493107,63.4431671 6.18899195,63.5914947 C6.36334197,63.7406898 6.58395402,63.814709 6.85111723,63.814709 C7.150953,63.814709 7.4909789,63.7140891 7.87206236,63.5125601 C8.25256754,63.3116095 8.64752961,63.0473376 9.05637028,62.7214795 C9.46550009,62.395043 9.87665387,62.0258142 10.2898316,61.6129256 C10.7032985,61.2006153 11.0878516,60.7833896 11.4440692,60.3609595 C11.8002868,59.9391076 12.1163143,59.5334474 12.3915734,59.1451355 C12.6671216,58.7565345 12.8735659,58.4182434 13.0114845,58.1302623 L14.1414346,54.7482189 C14.2790641,54.3839054 14.4591969,54.1248381 14.682122,53.971306 C14.904758,53.8177739 15.1337551,53.7408632 15.368824,53.7408632 C15.4818769,53.7408632 15.5952188,53.7602355 15.7088499,53.7984016 C15.822481,53.836857 15.9233901,53.8969976 16.0127336,53.9782453 C16.101788,54.0600712 16.1726268,54.1653174 16.2252498,54.2951402 C16.2778729,54.4243847 16.3041844,54.5756037 16.3041844,54.7482189 C16.3041844,55.2088152 16.2637051,55.6402086 16.1827466,56.0435557 C16.101788,56.4469028 15.9985659,56.8398409 15.872791,57.2238157 C15.7473052,57.6072123 15.6073626,57.9935002 15.4535414,58.3821012 C15.2997201,58.7707023 15.1496577,59.1760733 15.0042214,59.5985034 C14.971838,59.6465003 14.913143,59.797141 14.8278474,60.051293 C14.742841,60.3060233 14.6399079,60.6252313 14.518181,61.0086279 C14.3967432,61.3926027 14.2648964,61.821683 14.1232189,62.2967362 C13.9812523,62.7717894 13.8358161,63.256095 13.6860427,63.7502313 C13.5359803,64.2443676 13.3922789,64.7289623 13.2546493,65.2040155 C13.1167307,65.6787796 12.9929797,66.1081491 12.8839748,66.4921239 C12.7746808,66.8755204 12.6836024,67.1967524 12.6104506,67.4561089 C12.5375879,67.7151763 12.4930607,67.8684192 12.476869,67.9169944 C12.4363897,68.0699482 12.3713337,68.2405394 12.2825685,68.4273224 C12.1935141,68.6143944 12.0882679,68.7922141 11.966541,68.959914 C11.8451032,69.1276138 11.7115216,69.2672673 11.565507,69.3771396 C11.4197816,69.4873011 11.2700083,69.5428155 11.1158979,69.5428155 C10.8568306,69.5428155 10.6683128,69.4563633 10.5512121,69.2840373 C10.433533,69.111133 10.3751272,68.7945272 10.3751272,68.33422 L10.3751272,68.1326911 C10.3751272,68.065322 10.378886,67.9930376 10.3869819,67.9169944 C10.3947886,67.7631731 10.4557966,67.475192 10.5694277,67.0527618 C10.6827697,66.63091 10.8183753,66.1538328 10.9765336,65.6212412 C11.1344028,65.0886496 11.3047048,64.5369749 11.4868616,63.965928 C11.6687292,63.3951702 11.8329594,62.8845531 11.9789739,62.4334983 C11.5490262,62.9134669 11.0838037,63.390544 10.5815715,63.8655972 C10.0790502,64.3403613 9.56467432,64.7674177 9.03844375,65.146188 C8.5116349,65.5252475 7.98106726,65.8346248 7.44674084,66.0746091 C6.91212528,66.3143042 6.39774935,66.4345855 5.90361306,66.4345855 C5.33661408,66.4345855 4.84854969,66.309678 4.43913074,66.0601522 C4.36540063,66.0147576 4.29571845,65.9641585 4.22632541,65.9138485 L5.87787981,83.2297257 C6.30782754,84.3073418 14.4019476,86.9549755 25.0740192,86.9549755 C35.7510062,86.9549755 43.8483068,84.3047395 44.270737,83.2279908 L46.6431116,62.64081 C46.4467871,62.8209428 46.2556671,62.9970277 46.0729321,63.1676189 C45.392302,63.8005413 44.7501272,64.3449875 44.1466969,64.8006685 C43.5435557,65.2563495 42.954004,65.6093866 42.3789091,65.8583341 C41.8035252,66.1081491 41.1879511,66.2327674 40.5318977,66.2327674 C39.9163236,66.2327674 39.4401138,66.0983184 39.1041358,65.8297095 C38.7681578,65.5613897 38.5998797,65.1921609 38.5998797,64.7217339 L38.5998797,64.6138855 C38.5998797,64.5803456 38.6039276,64.539288 38.6123126,64.4912912 C38.6444069,64.2038883 38.7704709,63.8722474 38.989059,63.4983924 C39.2076471,63.1239591 39.4707624,62.7356472 39.7784049,62.3328784 C40.0863365,61.9298205 40.4142186,61.5218472 40.7626295,61.1092478 C41.1110404,60.6969375 41.4331398,60.3060233 41.7289276,59.9362162 C42.0244264,59.5675657 42.269326,59.2292746 42.4636265,58.9219213 C42.6585053,58.6148571 42.7556555,58.3656204 42.7556555,58.173633 C42.7556555,58.0585562 42.7148871,57.9674778 42.6342177,57.8998196 C42.55297,57.8333179 42.4190993,57.7991997 42.2331838,57.7991997 C41.9090604,57.7991997 41.5748173,57.8833387 41.2310326,58.0510386 C40.8863805,58.2187384 40.5457763,58.4448441 40.2097983,58.7276207 C39.8738203,59.0106865 39.5456491,59.3348099 39.2255736,59.6991233 C38.9060765,60.0637259 38.6062407,60.4427854 38.3266446,60.8357235 C38.0470485,61.2295291 37.7923182,61.6253585 37.5612972,62.0235011 C37.3302762,62.4216437 37.1339517,62.7885594 36.9717455,63.1239591 C36.9231703,63.2297835 36.8543556,63.3786894 36.765012,63.5700985 C36.6759576,63.762086 36.5788074,63.9783609 36.4735613,64.2180561 C36.368026,64.4580403 36.256708,64.7052531 36.1393181,64.9588268 C36.0219282,65.2135571 35.9146581,65.4535414 35.8175079,65.6787796 C35.7203576,65.904307 35.6333272,66.1052577 35.5567057,66.2830774 C35.4792168,66.4603187 35.4245698,66.5829131 35.3921863,66.6502822 C35.3517071,66.7364452 35.2849163,66.8992297 35.1918139,67.139214 C35.0987116,67.3791983 34.9911524,67.659951 34.8700037,67.9811829 C34.7485659,68.3024149 34.620767,68.640706 34.4868963,68.9960562 C34.3538929,69.350539 34.2278289,69.6868061 34.110439,70.0034118 C33.99276,70.3197284 33.8895378,70.598168 33.8007726,70.8381523 C33.7117182,71.0775583 33.6544689,71.2409211 33.6301813,71.3273732 C33.5495119,71.5768991 33.4540965,71.8113897 33.3450916,72.0328692 C33.2355084,72.2531921 33.1103118,72.4474926 32.9683452,72.6157707 C32.8266677,72.7834706 32.6647506,72.9176305 32.4823048,73.0182504 C32.2998589,73.1194486 32.0954386,73.1694694 31.8690438,73.1694694 C31.5770147,73.1694694 31.3364522,73.0994981 31.1456213,72.960712 C30.9556578,72.8216368 30.8602424,72.5550518 30.8602424,72.1621137 C30.8602424,71.9701263 30.88453,71.7735127 30.9331051,71.5722729 C30.9816802,71.3707439 31.0426883,71.1712389 31.115551,70.9749144 C31.1884137,70.7777225 31.2635895,70.5863134 31.3405001,70.3992413 C31.4171216,70.2118801 31.4882494,70.0323256 31.5527271,69.8594213 C31.9904816,68.9000625 32.4360427,67.9383905 32.8894106,66.9738273 C33.3427785,66.0098422 33.7782198,65.0553988 34.1957346,64.1102077 C34.2824759,63.9130158 34.3622779,63.7198719 34.4469953,63.5238365 C34.4215512,63.5487024 34.3966853,63.5747247 34.3718195,63.5990123 C33.8450106,64.1078946 33.320804,64.556058 32.7983323,64.944659 C32.2755713,65.3332601 31.7571475,65.6426374 31.2433498,65.8730801 C30.7286848,66.1029446 30.2284766,66.2183105 29.742147,66.2183105 C29.410217,66.2183105 29.1329339,66.1656875 28.9102979,66.0601522 C28.6873728,65.9543278 28.5095531,65.8103373 28.3756824,65.6284697 C28.2418116,65.4463129 28.1463962,65.2303271 28.0897252,64.9808013 C28.0706421,64.8955056 28.0587875,64.8064512 28.0463546,64.717686 C27.9040988,64.8284257 27.7606865,64.9362741 27.6161177,65.0386288 C27.1138855,65.3931116 26.6197493,65.6787796 26.1337088,65.8944763 C25.6479575,66.1104622 25.2102031,66.2183105 24.8218912,66.2183105 C24.4327119,66.2183105 24.1169735,66.0887768 23.8735196,65.8297095 C23.630644,65.5709313 23.5094953,65.129418 23.5094953,64.5060372 C23.5094953,64.0642348 23.5742621,63.5510155 23.7035067,62.9660899 C23.4930144,63.3402341 23.2298991,63.7192936 22.9141608,64.1026901 C22.5978442,64.486665 22.2375786,64.8368107 21.8327859,65.1537056 C21.4271257,65.4700222 20.9737579,65.7267765 20.4718149,65.9233901 C19.9692936,66.1200037 19.4225342,66.2183105 18.8315368,66.2183105 C18.5640845,66.2183105 18.3070411,66.1847705 18.0598284,66.1176906 C17.8126157,66.0503215 17.5960515,65.9352447 17.4098469,65.7721711 C17.2233531,65.6093866 17.0738689,65.3907985 16.9602378,65.1175634 C16.8468958,64.8443283 16.7902248,64.5008327 16.7902248,64.0885224 C16.7902248,64.0789808 16.8064165,63.9326772 16.8388,63.6493223 C16.8711834,63.3662565 16.9744055,62.920117 17.1487556,62.310904 C17.3228164,61.70198 17.5922927,60.9126342 17.9563171,59.9434447 C18.3212088,58.9745443 18.8355848,57.7991997 19.499734,56.417989 C19.6697469,56.0530972 19.8663606,55.7917168 20.0887074,55.6335585 C20.3119217,55.475111 20.5524843,55.3958873 20.8115516,55.3958873 C20.9251827,55.3958873 21.0425726,55.4129464 21.1640105,55.4461973 C21.2860266,55.4800264 21.3990794,55.5326494 21.5046146,55.6046447 C21.6095716,55.67664 21.6948672,55.7680075 21.7599232,55.8781689 C21.8241118,55.9883304 21.8570735,56.1152618 21.8570735,56.2592524 C21.8570735,56.3552461 21.8446405,56.4469028 21.820353,56.5324875 C21.7795846,56.6964286 21.6925541,56.9092339 21.5595508,57.1729275 C21.4256801,57.4371993 21.2695457,57.7393482 21.0911478,58.0799524 C20.9133281,58.4205565 20.7248103,58.7874722 20.5264619,59.1812778 C20.3278243,59.5742159 20.1436436,59.9819 19.9736306,60.4043301 C19.8036177,60.8267603 19.6576032,61.2558406 19.5361653,61.6924385 C19.4147275,62.1290364 19.3456236,62.5537796 19.329721,62.9660899 C19.329721,63.1387051 19.3699112,63.2968634 19.4511589,63.440854 C19.5321174,63.5848446 19.6659882,63.6565507 19.8521928,63.6565507 C20.3784234,63.6565507 20.8806555,63.4836464 21.3588892,63.1387051 C21.8365447,62.7931856 22.2777688,62.3638162 22.6831398,61.8505968 C23.0882217,61.3373774 23.4545591,60.7854136 23.7827304,60.1952836 C24.1109016,59.6051536 24.3841368,59.0659118 24.6027248,58.5764017 C24.7568352,58.2505436 24.8924408,57.8998196 25.0098307,57.5259646 C25.1272206,57.1515313 25.2550194,56.80659 25.392649,56.4896951 C25.5305676,56.1728002 25.6881477,55.9091067 25.8665456,55.6980362 C26.0443653,55.4872548 26.2675796,55.3814304 26.5344536,55.3814304 C26.8264827,55.3814304 27.0569254,55.491881 27.2275167,55.7124931 C27.3975296,55.9333942 27.4822469,56.1970878 27.4822469,56.5038629 C27.4822469,56.6764781 27.4278891,56.9144384 27.3183059,57.2165873 C27.2087227,57.5187361 27.0710932,57.8642556 26.9051281,58.2528567 C26.738874,58.6414577 26.5587412,59.0563703 26.3647298,59.4973052 C26.1704293,59.9391076 25.9897183,60.387271 25.8243315,60.8432411 C25.6574991,61.2989221 25.5204478,61.7450615 25.4108646,62.1816594 C25.3012815,62.6179682 25.2469236,63.0236283 25.2469236,63.3974833 C25.2469236,63.7430029 25.4250324,63.9159072 25.78125,63.9159072 C26.0325106,63.9159072 26.3442011,63.829455 26.7168995,63.6565507 C27.089598,63.4836464 27.4805121,63.2416381 27.8893528,62.9296586 C27.9914184,62.8518806 28.0943514,62.7706329 28.196417,62.6853373 C28.3106264,62.214332 28.4444971,61.7788906 28.6003423,61.3830612 C28.8836973,60.6341946 29.1713892,59.8911108 29.4631292,59.152364 C29.7545799,58.4136172 30.0217432,57.7370351 30.2651971,57.1229066 L33.946498,47.8404307 C34.0922234,47.4662865 34.288837,47.2023038 34.5354714,47.0487717 C34.7829733,46.8955288 35.0319208,46.8186182 35.2831814,46.8186182 C35.5338638,46.8186182 35.7625717,46.900155 35.9693051,47.0632286 C36.1760386,47.2265914 36.2795499,47.490285 36.2795499,47.8548876 C36.2795499,48.0275028 36.2448533,48.2099486 36.1760386,48.4016469 C36.1072238,48.5936343 36.0201934,48.7997895 35.9146581,49.0204016 C35.7125509,49.4717455 35.4714101,50.023131 35.1918139,50.6754256 C34.9122178,51.3280093 34.612382,52.0381315 34.2925958,52.8055029 C33.9725204,53.5731634 33.6443491,54.3717617 33.3083711,55.2015868 C32.9723931,56.0317011 32.6442219,56.8398409 32.3241465,57.6265845 C32.0046493,58.4136172 31.7045244,59.1590142 31.4249283,59.8645101 C31.1456213,60.5697169 30.9050588,61.1815322 30.7020841,61.6993778 C30.6130297,61.9199898 30.5259993,62.1770332 30.4412819,62.4696405 C30.3559863,62.7619587 30.3137722,63.0236283 30.3137722,63.2540711 C30.3137722,63.3974833 30.3380598,63.5125601 30.3866349,63.5990123 C30.43521,63.6854645 30.5283124,63.7288351 30.6659419,63.7288351 C30.8359548,63.7288351 31.048471,63.6689836 31.3037796,63.5487024 C31.558799,63.4289994 31.8340581,63.2702628 32.1298459,63.0736491 C32.4259229,62.8773247 32.7335654,62.6517973 33.0530625,62.3973561 C33.3734271,62.1432041 33.6911894,61.8795105 34.0069277,61.6059863 C34.3232444,61.3321729 34.624815,61.0589378 34.9122178,60.7854136 C35.1996207,60.5121785 35.4572423,60.2603396 35.6842154,60.0298968 C35.7374167,59.9746715 35.801027,59.935638 35.8709983,59.906435 C36.0077605,59.4978835 36.1326679,59.097717 36.2428294,58.7062246 C36.3075962,58.5333202 36.3969398,58.2889989 36.5102817,57.972104 C36.6233346,57.6552091 36.7531574,57.3435187 36.8988828,57.0364545 C37.0446082,56.7296794 37.2091275,56.4630945 37.390706,56.2378562 C37.5731518,56.012618 37.7697655,55.8995651 37.9802577,55.8995651 C38.304381,55.8995651 38.5394499,55.9741627 38.6851753,56.1224903 C38.8309007,56.2716853 38.9037634,56.4896951 38.9037634,56.7776763 C38.9037634,56.8352147 38.8956676,56.926293 38.8794759,57.0509114 C38.862995,57.1758188 38.8433336,57.3079548 38.8190461,57.44703 C38.7947585,57.5858161 38.7681578,57.717952 38.7398224,57.8428595 C38.7111977,57.9674778 38.6851753,58.0585562 38.6608878,58.1160946 C38.9601453,57.7896581 39.2842686,57.4661131 39.6326795,57.1448811 C39.9810904,56.82336 40.3413559,56.5324875 40.7140544,56.2739984 C41.087042,56.0146419 41.4675472,55.8041497 41.8567265,55.6402086 C42.2450384,55.4777133 42.6342177,55.3958873 43.0228187,55.3958873 C43.289982,55.3958873 43.5554103,55.4343426 43.8185256,55.5112532 C44.0816409,55.5878747 44.316999,55.7006384 44.5231541,55.8492552 C44.7298876,55.9984502 44.8981657,56.1852332 45.0274103,56.4107605 C45.1569439,56.6359988 45.2217108,56.8973793 45.2217108,57.1949019 C45.2217108,57.5887074 45.1228257,58.0082462 44.9241881,58.4543856 C44.7258397,58.9005251 44.4768921,59.3489776 44.1770563,59.7994541 C43.8772206,60.250798 43.5530972,60.6894199 43.2052646,61.1164762 C42.8568537,61.5435326 42.5309956,61.9318445 42.2271119,62.2819902 C41.9232282,62.6327142 41.6679196,62.9296586 41.4611862,63.1742691 C41.2553201,63.4194578 41.1471826,63.5848446 41.1393759,63.6712967 C41.1393759,63.7863735 41.1760964,63.879765 41.2489591,63.9520494 C41.3218218,64.0237556 41.4432596,64.0598978 41.6132726,64.0598978 C41.7509021,64.0598978 41.9538768,63.9829871 42.2207508,63.829455 C42.487914,63.6759229 42.8629256,63.4099163 43.344629,63.0308568 C43.8263323,62.6517973 44.4384368,62.1432041 45.1794967,61.5050773 C45.6878007,61.0679011 46.282846,60.5465859 46.9533563,59.9535645 L50.1668324,30.1929127 C49.649276,30.4785807 49.1109016,30.657846 48.7934285,30.762803 C47.4639734,31.201714 45.5866025,31.5926281 43.2133605,31.9239799 L43.2133605,31.9239799 Z M25.2920291,24.8629487 C11.3993969,24.8629487 0.137051258,26.4163064 0.137051258,28.3326009 C0.137051258,30.2488952 11.3993969,31.802253 25.2920291,31.802253 C39.1846612,31.802253 50.4470068,30.2488952 50.4470068,28.3326009 C50.4470068,26.4163064 39.1846612,24.8629487 25.2920291,24.8629487 L25.2920291,24.8629487 Z M35.3360936,29.3466067 C35.3360936,29.7962158 33.9976753,30.1608184 32.3464101,30.1608184 C30.6954339,30.1608184 29.3570156,29.7962158 29.3570156,29.3466067 C29.3570156,28.8967085 30.6954339,28.5321058 32.3464101,28.5321058 C33.9976753,28.5321058 35.3360936,28.8967085 35.3360936,29.3466067 L35.3360936,29.3466067 Z" id="Cup"></path>
                                <path d="M29.9623991,28.9866285 C29.9475762,29.0102611 29.9399172,29.0343927 29.9399172,29.0589147 C29.9399172,29.3500763 31.0175333,29.5857235 32.3464101,29.5857235 C33.675576,29.5857235 34.7529029,29.3500763 34.7529029,29.0589147 L37.8961186,16.3143042 L50.3964211,3.1166841 C50.4005025,3.1126576 50.4044504,3.10849069 50.4082624,3.10418209 C50.6728234,2.80492459 50.1358947,1.87881662 49.2450615,1.08455542 C48.3542283,0.290294226 47.3922673,0.021396188 47.0932989,0.323834197 C47.0910642,0.32609607 47.0888847,0.328389896 47.0867595,0.330715418 L33.7495952,14.364938 L29.9623991,28.9866285 L29.9623991,28.9866285 Z" id="Straw"></path>
                            </g>
                        </g>
                    </g>
                </g>
            </g>
        </g>
    </g>
</svg>