<?xml version="1.0" encoding="UTF-8" standalone="no"?>
<svg width="37px" height="80px" viewBox="0 0 37 80" version="1.1" xmlns="http://www.w3.org/2000/svg" xmlns:xlink="http://www.w3.org/1999/xlink">
    <!-- Generator: Sketch 3.8.3 (29802) - http://www.bohemiancoding.com/sketch -->
    <title>Group 2</title>
    <desc>Created with Sketch.</desc>
    <defs></defs>
    <g id="Page-1" stroke="none" stroke-width="1" fill="none" fill-rule="evenodd">
        <g id="Group-2" transform="translate(-19.000000, -17.000000)">
            <rect id="Rectangle-1-Copy" x="0" y="0" width="75.959184" height="113.352802"></rect>
            <g id="gulp_logo" transform="translate(19.836740, 17.002920)" fill="#DA4648">
                <g id="gulp">
                    <g id="Page-1">
                        <g id="gulp">
                            <g id="Gulp-Logo">
                                <path d="M17.7638146,62.4230522 C13.139733,62.4230522 9.56669087,61.7284363 7.84848427,61.3144526 C6.67351609,61.0313623 5.73001828,60.7384396 5.0132795,60.4375281 L7.30483616,64.3526548 L8.20122053,76.5855566 C8.20122053,77.9569673 12.5577797,79.0686396 17.9317842,79.0686396 C23.3057888,79.0686396 27.6623479,77.9569673 27.6623479,76.5855566 L28.3721221,64.2195081 L30.5403645,60.426057 C29.8205531,60.7310653 28.8686568,61.02788 27.6789401,61.3144526 C25.9607334,61.7284363 22.3876913,62.4230522 17.7638146,62.4230522 L17.7638146,62.4230522 Z M30.6147218,22.6167035 C27.2209155,23.0907057 22.716666,23.351878 17.9317842,23.351878 C13.1469025,23.351878 8.64265296,23.0907057 5.24884669,22.6167035 C3.56771631,22.3819557 2.23768347,22.1050106 1.29561955,21.7940619 C1.07090893,21.7197047 0.690109448,21.5929081 0.323648836,21.3909348 L2.42634206,40.7428819 C2.52405124,40.4096056 2.63282183,40.0767389 2.7534732,39.7451012 C3.00030664,39.0654387 3.28585505,38.4009344 3.60991356,37.7517931 C3.93417692,37.1028567 4.28711803,36.4893578 4.66873688,35.9115013 C5.05015088,35.3338495 5.45635066,34.8018774 5.88672167,34.3157896 C6.31729753,33.8299067 6.7589348,33.4120309 7.21245285,33.0617528 C7.66576606,32.7118843 8.12338094,32.4382167 8.58529747,32.2411596 C9.04741885,32.0441025 9.50503372,31.9453691 9.95834693,31.9453691 C10.4804867,31.9453691 10.9856247,32.0881433 11.4735561,32.3736917 C11.9612826,32.6590353 12.4172587,33.1213615 12.842099,33.7602607 C12.9396034,33.9030349 13.0014654,34.0474478 13.0270705,34.1934995 C13.0530853,34.339756 13.0657854,34.4774092 13.0657854,34.606459 C13.0657854,34.9122867 12.9926572,35.1537943 12.8464007,35.3303672 C12.7001442,35.5071451 12.526439,35.5954315 12.3256948,35.5954315 C12.1417475,35.5954315 11.9711149,35.4985417 11.8133873,35.304967 C11.6554549,35.1111873 11.4790868,34.8342423 11.2838733,34.4739269 C11.1001309,34.1476151 10.8979528,33.9116382 10.6771341,33.7653817 C10.4561106,33.6193301 10.2166515,33.5462018 9.95834693,33.5462018 C9.55665366,33.5462018 9.12771653,33.7127376 8.67153555,34.0458091 C8.21514972,34.3786758 7.7632704,34.8188792 7.31589757,35.3660096 C6.86811507,35.9133448 6.43917794,36.5385197 6.02888135,37.2421486 C5.61858476,37.9455727 5.2554016,38.6659987 4.93974157,39.4034264 C4.62408153,40.1412638 4.3733561,40.8686543 4.18674592,41.5855979 C4.00013574,42.3025416 3.90693307,42.9465618 3.90693307,43.5174537 C3.90693307,43.7079559 3.92004289,43.9035791 3.94564802,44.1037088 C3.97166283,44.304453 4.02021016,44.486147 4.09210936,44.6494053 C4.16359888,44.8126636 4.26130806,44.9466296 4.38462236,45.0517131 C4.5081415,45.1574111 4.66443521,45.2098504 4.85370833,45.2098504 C5.06612848,45.2098504 5.30702154,45.1385657 5.57700203,44.9957915 C5.84657283,44.853427 6.12638568,44.6662023 6.41603091,44.4353464 C6.70588097,44.2040809 6.99716492,43.9424989 7.28988276,43.6499859 C7.58280544,43.3578826 7.85524402,43.062297 8.10760818,42.7630242 C8.35997233,42.4641611 8.58386358,42.1767692 8.77887225,41.9016677 C8.97408576,41.6263613 9.12034225,41.3866973 9.21805143,41.1826756 L10.0185702,38.78665 C10.1160745,38.5285503 10.2436905,38.3450128 10.4016229,38.2362422 C10.5593505,38.1274716 10.7215846,38.0729839 10.8881204,38.0729839 C10.9682132,38.0729839 11.0485109,38.0867082 11.1290134,38.1137472 C11.209516,38.1409911 11.2810055,38.183598 11.3443014,38.2411584 C11.4073924,38.2991284 11.4575785,38.3736905 11.4948595,38.4656641 C11.5321406,38.5572281 11.5507811,38.6643599 11.5507811,38.78665 C11.5507811,39.1129618 11.5221034,39.4185846 11.4647479,39.7043379 C11.4073924,39.9900911 11.3342642,40.2684701 11.2451583,40.540499 C11.1562573,40.8121182 11.0571142,41.0857858 10.9481388,41.3610922 C10.8391634,41.6363985 10.7328509,41.9235856 10.6298158,42.2228584 C10.6068736,42.256862 10.5652909,42.3635842 10.5048628,42.5436395 C10.4446395,42.7241044 10.3717161,42.9502489 10.2854781,43.2218681 C10.1994448,43.493897 10.1060373,43.7978811 10.0056652,44.1344349 C9.90508826,44.4709888 9.80205322,44.8140975 9.69594556,45.1641708 C9.58963307,45.5142442 9.48782707,45.8575577 9.39032274,46.1941115 C9.29261357,46.5304605 9.2049416,46.8346495 9.12771653,47.1066784 C9.05028662,47.3782976 8.98576169,47.605876 8.93393691,47.7896184 C8.88231697,47.9731559 8.85077145,48.0817217 8.83930035,48.116135 C8.81062261,48.2244959 8.76453338,48.3453521 8.70164718,48.4776794 C8.63855614,48.6102116 8.563994,48.7361888 8.47775593,48.8549966 C8.39172269,48.9738044 8.29708613,49.0727426 8.19364141,49.1505822 C8.09040153,49.2286266 7.98429387,49.2679561 7.8751136,49.2679561 C7.69157603,49.2679561 7.55801968,49.2067087 7.47505906,49.0846234 C7.39168876,48.9621285 7.35031087,48.7378275 7.35031087,48.4117206 L7.35031087,48.2689464 C7.35031087,48.2212184 7.3529738,48.1700082 7.35870935,48.116135 C7.36424006,48.0071596 7.40746152,47.8031379 7.48796404,47.5038651 C7.56826173,47.2050021 7.66433218,46.8670143 7.77638022,46.4896972 C7.88822343,46.11238 8.0088748,45.7215433 8.13792465,45.3169822 C8.26676966,44.912626 8.38311937,44.5508768 8.48656409,44.2313247 C8.18196547,44.5713609 7.85237625,44.9093486 7.49656737,45.2459024 C7.14055365,45.5822514 6.77614145,45.8848016 6.40333076,46.1531433 C6.0301104,46.4216899 5.6542271,46.6408698 5.27568086,46.8108879 C4.89692979,46.9807011 4.53251759,47.065915 4.18244426,47.065915 C3.78075099,47.065915 3.43497932,46.9774237 3.14492441,46.8006459 C3.09268995,46.7684858 3.04332326,46.7326386 2.99416141,46.6969963 L4.16421341,58.9645162 C4.46881203,59.7279587 10.203132,61.6036881 17.7638146,61.6036881 C25.3279795,61.6036881 31.0645527,59.7261152 31.3638254,58.9632872 L33.0445461,44.3781958 C32.9054591,44.5058117 32.7700591,44.6305599 32.6405996,44.7514161 C32.1584038,45.1998132 31.7034519,45.5855288 31.2759486,45.9083583 C30.8486502,46.2311878 30.4309794,46.4812987 30.0235505,46.6576668 C29.6159169,46.8346495 29.1798103,46.922936 28.715026,46.922936 C28.2789194,46.922936 27.9415463,46.8276849 27.703521,46.6373875 C27.4654957,46.4472951 27.3462782,46.1857131 27.3462782,45.8524367 L27.3462782,45.776031 C27.3462782,45.7522694 27.349146,45.723182 27.3550864,45.6891784 C27.3778237,45.4855664 27.4671344,45.2506137 27.6219942,44.9857543 C27.7768541,44.7204851 27.9632594,44.4453836 28.1812103,44.1600401 C28.399366,43.8744917 28.6316557,43.585461 28.8784892,43.2931528 C29.1253226,43.0010495 29.3535155,42.7241044 29.5630679,42.4621127 C29.7724154,42.2009404 29.9459158,41.9612764 30.083569,41.7435304 C30.2216318,41.5259892 30.2904584,41.3494162 30.2904584,41.2134018 C30.2904584,41.131875 30.2615758,41.0673501 30.2044252,41.0194173 C30.1468648,40.9723039 30.0520234,40.9481326 29.9203107,40.9481326 C29.6906839,40.9481326 29.4538876,41.0077414 29.2103316,41.1265492 C28.9661611,41.245357 28.7248584,41.4055427 28.4868331,41.6058772 C28.2488078,41.8064166 28.0163132,42.0360434 27.7895542,42.2941431 C27.5632049,42.5524476 27.3507847,42.8209942 27.1527034,43.0993732 C26.9546222,43.3783667 26.7741572,43.6587941 26.6104892,43.9408602 C26.4468212,44.2229263 26.3077342,44.4828695 26.1928183,44.7204851 C26.158405,44.795457 26.1096529,44.9009501 26.046357,45.0365549 C25.983266,45.1725693 25.9144394,45.3257904 25.8398772,45.4956036 C25.7651103,45.6656217 25.6862465,45.8407608 25.603081,46.0204063 C25.5199155,46.2008713 25.4439195,46.3708894 25.3750929,46.5304605 C25.3062663,46.6902365 25.2446092,46.8326011 25.1903263,46.9585783 C25.1354289,47.0841458 25.096714,47.1709984 25.0737718,47.2187264 C25.045094,47.279769 24.9977757,47.3950945 24.9318169,47.5651126 C24.8658581,47.7351307 24.7896572,47.9340313 24.7038289,48.1616097 C24.6177956,48.3891881 24.5272559,48.6288521 24.4324145,48.8806017 C24.3381876,49.1317368 24.2488769,49.369967 24.1657115,49.5942679 C24.0823412,49.818364 24.0092129,50.0156259 23.9463267,50.185644 C23.8832357,50.3552523 23.8426771,50.4709875 23.8254705,50.532235 C23.7683198,50.7090128 23.7007223,50.8751389 23.6234972,51.0320471 C23.5458625,51.188136 23.4571663,51.3257892 23.3565894,51.4450066 C23.2562173,51.5638144 23.1415063,51.6588607 23.0122516,51.7301454 C22.8829969,51.8018397 22.7381743,51.8372772 22.5777837,51.8372772 C22.3708943,51.8372772 22.2004666,51.7877057 22.0652715,51.689382 C21.9306909,51.5908535 21.8630934,51.40199 21.8630934,51.1236111 C21.8630934,50.9875966 21.8803,50.8483047 21.9147133,50.7057353 C21.9491266,50.5629611 21.9923481,50.4216208 22.043968,50.2825338 C22.095588,50.1428322 22.1488466,50.0072274 22.2033343,49.8746953 C22.2576172,49.7419583 22.3080081,49.614752 22.3536877,49.4922571 C22.663817,48.8125945 22.979477,48.1312932 23.3006678,47.4479435 C23.6218585,46.7650035 23.9303491,46.0888233 24.2261396,45.4191979 C24.2875919,45.2794963 24.344128,45.1426625 24.4041464,45.0037803 C24.3861204,45.0213966 24.3685041,45.0398323 24.3508878,45.057039 C23.9776674,45.4175592 23.6062906,45.7350628 23.2361428,46.0103691 C22.8657902,46.2856755 22.4985103,46.5048554 22.1345077,46.6681137 C21.7698907,46.8309623 21.4155157,46.9126939 21.0709731,46.9126939 C20.8358156,46.9126939 20.639373,46.8754128 20.4816454,46.8006459 C20.323713,46.725674 20.1977358,46.6236632 20.1028944,46.4948182 C20.008053,46.3657683 19.9404554,46.2127521 19.9003066,46.0359743 C19.8867871,45.9755462 19.8783886,45.9124551 19.8695804,45.8495689 C19.7687986,45.928023 19.6671975,46.0044287 19.564777,46.0769425 C19.2089681,46.3280776 18.8588948,46.5304605 18.514557,46.6832719 C18.170424,46.8362882 17.8602947,46.9126939 17.5851932,46.9126939 C17.3094772,46.9126939 17.0857908,46.8209251 16.9133146,46.6373875 C16.7412481,46.4540548 16.6554197,46.1412626 16.6554197,45.6996253 C16.6554197,45.3866282 16.7013041,45.0230353 16.7928681,44.6086419 C16.6437438,44.8737062 16.4573385,45.1422528 16.233652,45.413872 C16.009556,45.6859009 15.754324,45.9339634 15.4675466,46.1584692 C15.1801546,46.3825653 14.8589639,46.5644641 14.5033598,46.703756 C14.1473461,46.8430479 13.7599917,46.9126939 13.3412966,46.9126939 C13.1518187,46.9126939 12.969715,46.8889323 12.7945759,46.8414092 C12.6194368,46.7936813 12.4660109,46.7121545 12.3340933,46.5966242 C12.2019708,46.4812987 12.096068,46.3264389 12.0155654,46.1328641 C11.9352678,45.9392893 11.8951189,45.6959381 11.8951189,45.4038348 C11.8951189,45.3970751 11.90659,45.2934255 11.9295322,45.0926813 C11.9524744,44.8921419 12.0256027,44.5760722 12.1491218,44.1444721 C12.2724361,43.7130769 12.463348,43.1538609 12.7212428,42.4672338 C12.9797522,41.7808114 13.3441644,40.9481326 13.8146843,39.969607 C13.9351308,39.7110976 14.0744227,39.5259213 14.2319454,39.4138733 C14.3900827,39.3016204 14.5605105,39.2454939 14.744048,39.2454939 C14.8245506,39.2454939 14.907716,39.2575796 14.9937493,39.2811363 C15.0801922,39.3051027 15.160285,39.3423838 15.235052,39.3933892 C15.3094093,39.4443946 15.3698374,39.5091244 15.4159266,39.5871688 C15.4614013,39.6652132 15.4847532,39.7551384 15.4847532,39.8571493 C15.4847532,39.9251565 15.4759451,39.9900911 15.4587384,40.0507241 C15.4298558,40.1668689 15.3681987,40.3176319 15.2739718,40.504447 C15.1791304,40.6916717 15.0685162,40.9057305 14.9421293,41.1470333 C14.8161521,41.388336 14.6825957,41.6482793 14.5420748,41.9272728 C14.401349,42.2056517 14.2708652,42.4944776 14.1504187,42.7937504 C14.0299722,43.0930231 13.9265275,43.3970072 13.8404942,43.7063172 C13.754461,44.0156271 13.705504,44.3165386 13.6942377,44.6086419 C13.6942377,44.730932 13.7227106,44.8429801 13.780271,44.9449909 C13.8376265,45.0470017 13.9324679,45.0978023 14.0643855,45.0978023 C14.4371962,45.0978023 14.793005,44.9753074 15.1318121,44.730932 C15.4702095,44.486147 15.7827969,44.1819581 16.0699841,43.8183652 C16.3569663,43.4547724 16.6164999,43.0637308 16.8489945,42.6456503 C17.0814891,42.2275697 17.2750639,41.8455412 17.4299237,41.4987453 C17.539104,41.2678895 17.6351744,41.0194173 17.7183399,40.7545579 C17.8015053,40.4892887 17.8920451,40.2449134 17.9895494,40.0204076 C18.0872586,39.7959018 18.1988969,39.6090868 18.3252839,39.4595528 C18.4512611,39.3102237 18.6093984,39.2352519 18.7984666,39.2352519 C19.0053561,39.2352519 19.1686144,39.3135012 19.2894706,39.4697949 C19.4099171,39.6262934 19.4699356,39.8131085 19.4699356,40.0304448 C19.4699356,40.1527349 19.4314254,40.3213191 19.3537907,40.5353779 C19.2761559,40.7494368 19.1786516,40.9942219 19.0610729,41.2695282 C18.9432893,41.5448346 18.8156733,41.8387815 18.678225,42.151164 C18.5405718,42.4641611 18.4125461,42.7816647 18.2953771,43.1046991 C18.1771838,43.4275285 18.0800891,43.7435982 18.0024544,44.0529082 C17.9248196,44.3620133 17.8863095,44.6494053 17.8863095,44.9142648 C17.8863095,45.1590498 18.0124916,45.2815447 18.2648558,45.2815447 C18.4428626,45.2815447 18.6636812,45.2202973 18.9277213,45.0978023 C19.1917614,44.9753074 19.4687065,44.8038554 19.7583517,44.582832 C19.8306606,44.5277297 19.903584,44.4701694 19.9758929,44.4097413 C20.0568051,44.0760552 20.1516465,43.7675646 20.2620558,43.4871373 C20.4628001,42.956599 20.6666169,42.4301575 20.8733015,41.9067887 C21.0797813,41.3834198 21.2690544,40.9040918 21.4415305,40.4690095 L24.0495666,33.8927929 C24.1528065,33.6277286 24.2920984,33.4407087 24.4668278,33.3319381 C24.6421717,33.2233724 24.8185398,33.1688846 24.9965467,33.1688846 C25.1741439,33.1688846 25.3361731,33.2266498 25.4826345,33.3421802 C25.6290958,33.4579153 25.7024289,33.6447304 25.7024289,33.9030349 C25.7024289,34.025325 25.677848,34.1545797 25.6290958,34.2903893 C25.5803436,34.4264038 25.5186865,34.5724554 25.4439195,34.7287491 C25.3007356,35.048506 25.1298982,35.4391378 24.9318169,35.9012592 C24.7337356,36.3635854 24.5213155,36.866675 24.2947613,37.4103231 C24.0680023,37.9541761 23.8355077,38.519947 23.5974824,39.1078408 C23.3594571,39.6959394 23.1269626,40.2684701 22.9002035,40.8258425 C22.6738542,41.3834198 22.4612292,41.9115 22.2631479,42.4113121 C22.0652715,42.9109194 21.8948437,43.3443631 21.7510453,43.7112334 C21.6879543,43.8675271 21.6262971,44.0496307 21.5662787,44.2569299 C21.5058506,44.4640242 21.4759438,44.6494053 21.4759438,44.8126636 C21.4759438,44.9142648 21.4931505,44.9957915 21.5275638,45.057039 C21.5619771,45.1182864 21.6279359,45.1490126 21.7254402,45.1490126 C21.8458867,45.1490126 21.9964449,45.1066105 22.1773195,45.0213966 C22.3579893,44.9365924 22.552998,44.8241347 22.7625504,44.6848428 C22.9723076,44.5457557 23.1902584,44.3859797 23.4166078,44.2057196 C23.6435717,44.0256643 23.868692,43.8388493 24.0923784,43.6450697 C24.3164745,43.4510852 24.5301237,43.2575105 24.7337356,43.0637308 C24.9373476,42.8701561 25.119861,42.6917395 25.2806612,42.5284812 C25.318352,42.4893566 25.363417,42.461703 25.4129885,42.4410141 C25.5098783,42.1515737 25.5983697,41.8680737 25.6764141,41.590719 C25.7222985,41.468224 25.7855944,41.2951333 25.865892,41.0706276 C25.9459849,40.8461218 26.0379585,40.6253032 26.1411984,40.407762 C26.2444383,40.1904256 26.3609928,40.0015622 26.489633,39.841991 C26.6188877,39.6824199 26.7581796,39.602327 26.9073039,39.602327 C27.1369307,39.602327 27.3034664,39.655176 27.4067063,39.7602595 C27.5099462,39.8659574 27.5615661,40.0204076 27.5615661,40.2244293 C27.5615661,40.2651926 27.5558306,40.3297175 27.5443595,40.418004 C27.5326836,40.5064954 27.5187544,40.6001077 27.5015477,40.6986363 C27.4843411,40.7969599 27.4654957,40.8905723 27.4454213,40.9790636 C27.425142,41.0673501 27.4067063,41.131875 27.3894997,41.1726384 C27.6015101,40.9413729 27.8311369,40.7121558 28.0779704,40.4845774 C28.3248038,40.2567941 28.5800358,40.0507241 28.8440759,39.8675962 C29.1083208,39.6838538 29.3778916,39.5347295 29.6536076,39.4185846 C29.9287091,39.303464 30.2044252,39.2454939 30.4797315,39.2454939 C30.6690046,39.2454939 30.8570487,39.2727378 31.0434541,39.3272255 C31.2298594,39.3815084 31.3966,39.4613964 31.5426517,39.5666847 C31.689113,39.6723827 31.8083305,39.80471 31.8998944,39.964486 C31.9916632,40.1240571 32.0375476,40.3092334 32.0375476,40.5200149 C32.0375476,40.7990084 31.967492,41.0962327 31.8267662,41.4123024 C31.6862452,41.7283721 31.5098771,42.0460806 31.2974569,42.3652229 C31.0850368,42.6849798 30.85541,42.9957236 30.6089862,43.2982738 C30.3621528,43.600824 30.1312969,43.8759256 29.916009,44.123988 C29.7007211,44.3724602 29.5198464,44.582832 29.3733851,44.7561275 C29.2275383,44.9298327 29.1509277,45.0470017 29.145397,45.1082492 C29.145397,45.189776 29.1714118,45.2559396 29.2230318,45.3071499 C29.2746517,45.3579504 29.360685,45.3835556 29.4811315,45.3835556 C29.5786358,45.3835556 29.7224342,45.3290679 29.9115025,45.2202973 C30.1007756,45.1115267 30.3664544,44.9230729 30.7077196,44.6545263 C31.0489848,44.3859797 31.4826332,44.0256643 32.0076408,43.5735802 C32.3677513,43.2638605 32.7893142,42.8945322 33.2643406,42.4744032 L35.5409438,21.3903203 C35.1742784,21.5927032 34.7928644,21.7197047 34.5679489,21.7940619 C33.6260898,22.1050106 32.296057,22.3819557 30.6147218,22.6167035 L30.6147218,22.6167035 Z M17.9182647,17.6142806 C8.07595983,17.6142806 0.0970946507,18.7147647 0.0970946507,20.072373 C0.0970946507,21.4299814 8.07595983,22.5304655 17.9182647,22.5304655 C27.7605696,22.5304655 35.7394348,21.4299814 35.7394348,20.072373 C35.7394348,18.7147647 27.7605696,17.6142806 17.9182647,17.6142806 L17.9182647,17.6142806 Z M25.0340326,20.7907506 C25.0340326,21.1092784 24.0858235,21.3675829 22.9159763,21.3675829 C21.746334,21.3675829 20.7981248,21.1092784 20.7981248,20.7907506 C20.7981248,20.4720179 21.746334,20.2137134 22.9159763,20.2137134 C24.0858235,20.2137134 25.0340326,20.4720179 25.0340326,20.7907506 L25.0340326,20.7907506 Z" id="Cup"></path>
                                <path d="M21.2270118,20.5357222 C21.2165104,20.5524649 21.2110844,20.569561 21.2110844,20.5869337 C21.2110844,20.7932086 21.9745269,20.9601541 22.9159763,20.9601541 C23.8576305,20.9601541 24.6208682,20.7932086 24.6208682,20.5869337 L26.8476951,11.5579506 L35.703597,2.20803047 C35.7064886,2.20517787 35.7092855,2.2022258 35.7119861,2.19917335 C35.8994156,1.98716288 35.5190258,1.33105705 34.8879106,0.768358723 C34.2567954,0.205660399 33.5752893,0.0151582366 33.3634836,0.22942196 C33.3619004,0.231024395 33.3603563,0.232649468 33.3588507,0.234296995 L23.9100698,10.1769123 L21.2270118,20.5357222 L21.2270118,20.5357222 Z" id="Straw"></path>
                            </g>
                        </g>
                    </g>
                </g>
            </g>
        </g>
    </g>
</svg>