<?xml version="1.0" encoding="UTF-8" standalone="no"?>
<svg width="241px" height="200px" viewBox="0 0 241 200" version="1.1" xmlns="http://www.w3.org/2000/svg" xmlns:xlink="http://www.w3.org/1999/xlink">
    <!-- Generator: Sketch 3.8.3 (29802) - http://www.bohemiancoding.com/sketch -->
    <title>Group 4</title>
    <desc>Created with Sketch.</desc>
    <defs></defs>
    <g id="Page-1" stroke="none" stroke-width="1" fill="none" fill-rule="evenodd">
        <g id="Group-4">
            <rect id="Rectangle-1-Copy-8" fill="#FFFFFF" x="0" y="0" width="240.178571" height="200"></rect>
            <g id="handlebars_logo" transform="translate(35.714286, 79.464286)" fill="#423426">
                <path d="M61.9441648,0.000285608243 C67.7953639,-0.0251892334 73.7958469,1.65251105 78.3435427,5.43370538 C80.6738271,7.31884373 82.5562601,9.68436472 84.1546897,12.2027348 C87.0311352,7.55539578 91.2329291,3.60679534 96.4141719,1.70346074 C102.727787,-0.665699537 109.864284,-0.5019327 116.166975,1.81991716 C121.672272,3.82879038 126.485767,7.32976151 130.851409,11.1801019 C134.266733,14.1934117 137.427182,17.490584 140.944455,20.3910767 C142.797759,21.8940924 144.789424,23.3024872 147.068734,24.0812895 C150.098104,25.1148402 153.680916,24.1395177 155.847353,21.8067501 C157.853583,19.6231922 157.729786,15.8492763 155.519657,13.8549602 C154.114204,12.6430856 151.711098,12.8869163 150.717086,14.502749 C149.84687,15.7837696 150.334774,17.3814062 151.015654,18.6223949 C149.206042,17.3013424 147.39279,15.4598752 147.400071,13.0579616 C147.025041,10.2812038 149.085887,7.83197981 151.554532,6.86029651 C156.371667,4.93512636 162.412202,6.59463031 165.452495,10.8343718 C168.376274,14.7902508 168.609302,19.9907578 168.099553,24.7036035 C167.484212,29.1798971 164.979156,33.357771 161.265265,35.9489264 C156.051253,39.6682534 149.442711,40.8218999 143.154584,40.7418359 C137.110408,40.578069 131.128131,39.2133453 125.528166,36.9570023 C116.163334,33.1940045 107.399279,27.9934973 97.7285978,24.987466 C94.5208154,23.742838 91.1091331,23.0695743 87.6792455,22.8621364 C84.9484434,22.8439401 82.3596424,22.7165658 79.7817649,22.8912505 C76.635881,23.1933093 73.5082018,23.8374589 70.5625766,24.9911053 C60.7280471,28.0480863 51.8329139,33.3796066 42.2896702,37.1498832 C34.2319826,40.2832889 25.3040797,41.738994 16.7512069,39.9994262 C11.9668413,39.0313821 7.20432205,36.9169704 3.97469322,33.1503331 C1.21112128,29.9477816 -0.11422811,25.6607297 0.0168504013,21.4610201 C-0.136074529,17.4978626 0.734141139,13.2872352 3.35571136,10.2011401 C5.79522806,7.27517255 9.72394237,5.7903532 13.4960906,6.11788687 C15.9246841,6.23070404 18.3860472,7.28972958 19.886168,9.24401385 C21.0658746,10.7907007 21.138696,12.9087518 20.6216641,14.7174656 C19.991759,16.3442162 18.6918971,17.614319 17.279162,18.5896415 C18.0000938,17.3741276 18.4370222,15.7692126 17.5850119,14.4991098 C16.5363838,12.8068525 13.9548653,12.6358071 12.5894642,14.0260056 C10.90729,15.7546556 10.5541062,18.5787237 11.6828378,20.6967748 C12.9062373,22.9167253 15.4367808,24.1831889 17.8872207,24.4415765 C21.5938297,24.7618317 24.8088943,22.4654567 27.5287734,20.2382277 C33.1578673,15.3943685 38.2262363,9.85177085 44.4706708,5.75396057 C49.6191437,2.30393914 55.6851659,-0.0288284966 61.9441648,0.000285608243 L61.9441648,0.000285608243 L61.9441648,0.000285608243 L61.9441648,0.000285608243 Z" id="Shape"></path>
            </g>
        </g>
    </g>
</svg>