<?xml version="1.0" encoding="UTF-8" standalone="no"?>
<svg width="120px" height="30px" viewBox="0 0 120 30" version="1.1" xmlns="http://www.w3.org/2000/svg" xmlns:xlink="http://www.w3.org/1999/xlink">
    <!-- Generator: Sketch 3.8.3 (29802) - http://www.bohemiancoding.com/sketch -->
    <title>Group 7</title>
    <desc>Created with Sketch.</desc>
    <defs></defs>
    <g id="Page-1" stroke="none" stroke-width="1" fill="none" fill-rule="evenodd">
        <g id="Group-7" transform="translate(-15.000000, -41.000000)">
            <rect id="Rectangle-1-Copy-8" x="0" y="5.68434189e-14" width="149.692458" height="113.352802"></rect>
            <g id="handlebars_logo" transform="translate(15.586010, 41.798846)" fill="#423426">
                <path d="M43.8846539,0.000202340591 C48.0299653,-0.0178454387 52.2810375,1.17072974 55.5028754,3.8495358 C57.1537771,5.18507152 58.4873962,6.86093671 59.6198116,8.6450886 C61.6576438,5.352658 64.6344258,2.55525223 68.3051032,1.2068253 C72.7780156,-0.471618173 77.8339023,-0.355596736 82.2990755,1.28932943 C86.199331,2.71252573 89.6094755,5.19280627 92.7023367,7.92059919 C95.1219396,10.0553936 97.3609755,12.3912919 99.8528053,14.4461605 C101.165788,15.5109795 102.576793,16.5087638 104.191582,17.0605102 C106.337754,17.7927344 108.876015,17.1017623 110.410838,15.4491014 C111.832162,13.9021489 111.744458,11.2284992 110.17868,9.81561601 C109.18298,8.95705735 107.480488,9.1298004 106.776275,10.2745452 C106.159766,11.1820907 106.505424,12.3139443 106.987797,13.193129 C105.705768,12.2572227 104.42116,10.9526261 104.426319,9.25097831 C104.160627,7.28377036 105.620644,5.54860534 107.369568,4.86021144 C110.782291,3.496315 115.061738,4.67199889 117.215649,7.67566501 C119.287015,10.4782273 119.452105,14.1625525 119.090971,17.5013917 C118.655029,20.6726443 116.88031,23.6324801 114.249185,25.468197 C110.555292,28.1031729 105.873438,28.9204796 101.418583,28.8637578 C97.1365558,28.7477363 92.8983812,27.780891 88.9310579,26.1823734 C82.296496,23.5164588 76.0875573,19.8321334 69.2363148,17.7024955 C66.9637453,16.8207326 64.5467219,16.3437555 62.1168008,16.1967951 C60.1821504,16.1839038 58.3481014,16.0936649 56.5217911,16.2174211 C54.2930739,16.4314162 52.0772539,16.8877672 49.990411,17.7050738 C43.0230893,19.8708073 36.7212876,23.6479495 29.9603288,26.3190209 C24.2518196,28.5388979 17.9268021,29.5701995 11.8674765,28.3377939 C8.47796869,27.6519783 5.10393806,26.1540127 2.81589133,23.4855196 C0.858024936,21.216656 -0.0809254771,18.1794725 0.0119377512,15.2041672 C-0.0964026822,12.3964484 0.520105968,9.41340834 2.37737053,7.22704879 C4.10565836,5.15413245 6.8889757,4.10220474 9.56137299,4.33424761 C11.2819222,4.4141735 13.0256873,5.16444545 14.0884554,6.54896793 C14.9242244,7.64472596 14.9758151,9.1452699 14.6095212,10.4266622 C14.1632619,11.5791419 13.2423682,12.4789525 12.2415089,13.1699247 C12.7522567,12.3087878 13.0618008,11.1717777 12.4581898,10.271967 C11.715284,9.07307881 9.88639427,8.95190083 8.919069,9.93679392 C7.72732424,11.1614647 7.47710944,13.1621899 8.276765,14.6627338 C9.14348847,16.2354689 10.9362647,17.1327013 12.6722911,17.3157574 C15.2982569,17.5426438 17.5759855,15.9157654 19.5028974,14.3378738 C23.4908572,10.9062175 27.0815686,6.97953642 31.5054696,4.0764222 C35.152931,1.63223723 39.4504348,-0.0204236929 43.8846539,0.000202340591 L43.8846539,0.000202340591 L43.8846539,0.000202340591 L43.8846539,0.000202340591 Z" id="Shape"></path>
            </g>
        </g>
    </g>
</svg>