<?xml version="1.0" encoding="UTF-8" standalone="no"?>
<svg width="217px" height="200px" viewBox="0 0 217 200" version="1.1" xmlns="http://www.w3.org/2000/svg" xmlns:xlink="http://www.w3.org/1999/xlink">
    <!-- Generator: Sketch 3.8.3 (29802) - http://www.bohemiancoding.com/sketch -->
    <title>Group 2</title>
    <desc>Created with Sketch.</desc>
    <defs>
        <path d="M14.7006327,35.0462745 L0.946048,27.1113983 C0.431891478,26.8147582 0.115236351,26.266839 0.115236351,25.6732326 L0.115236351,9.79173193 C0.115236351,9.19845186 0.431891478,8.65053258 0.945721551,8.35323987 L14.6999798,0.412163221 C15.2144628,0.115523183 15.847773,0.115523183 16.3619295,0.412163221 L30.1132497,8.35323987 C30.6270798,8.65053258 30.9434085,9.19845186 30.9434085,9.79173193 L30.9434085,25.6738852 C30.9434085,26.266839 30.6270798,26.8147582 30.1125968,27.1113983 L16.3616031,35.0462745 C16.1046881,35.1944314 15.8177397,35.2688362 15.5311179,35.2688362 C15.2441696,35.2688362 14.9575477,35.1944314 14.7006327,35.0462745" id="path-1"></path>
        <linearGradient x1="-4418.47%" y1="16.568%" x2="5323.2292%" y2="16.568%" id="linearGradient-3">
            <stop stop-color="#9BB48F" offset="0%"></stop>
            <stop stop-color="#9BB48F" offset="9.19165%"></stop>
            <stop stop-color="#9BB48F" offset="30.262629%"></stop>
            <stop stop-color="#687E67" offset="86.2444%"></stop>
            <stop stop-color="#687E67" offset="100%"></stop>
        </linearGradient>
        <path d="M14.7006327,35.0462745 L0.946048,27.1113983 C0.431891478,26.8147582 0.115236351,26.266839 0.115236351,25.6732326 L0.115236351,9.79173193 C0.115236351,9.19845186 0.431891478,8.65053258 0.945721551,8.35323987 L14.6999798,0.412163221 C15.2144628,0.115523183 15.847773,0.115523183 16.3619295,0.412163221 L30.1132497,8.35323987 C30.6270798,8.65053258 30.9434085,9.19845186 30.9434085,9.79173193 L30.9434085,25.6738852 C30.9434085,26.266839 30.6270798,26.8147582 30.1125968,27.1113983 L16.3616031,35.0462745 C16.1046881,35.1944314 15.8177397,35.2688362 15.5311179,35.2688362 C15.2441696,35.2688362 14.9575477,35.1944314 14.7006327,35.0462745" id="path-4"></path>
        <linearGradient x1="-9713.77%" y1="31.987%" x2="27.9292%" y2="31.987%" id="linearGradient-6">
            <stop stop-color="#9BB48F" offset="0%"></stop>
            <stop stop-color="#9BB48F" offset="9.19165%"></stop>
            <stop stop-color="#9BB48F" offset="30.262629%"></stop>
            <stop stop-color="#687E67" offset="86.2444%"></stop>
            <stop stop-color="#687E67" offset="100%"></stop>
        </linearGradient>
        <linearGradient x1="68.1407211%" y1="82.520314%" x2="27.8327029%" y2="10.2813689%" id="linearGradient-7">
            <stop stop-color="#687E67" offset="0%"></stop>
            <stop stop-color="#687E67" offset="52.88042%"></stop>
            <stop stop-color="#83A178" offset="100%"></stop>
        </linearGradient>
        <linearGradient x1="43.2035882%" y1="44.7780851%" x2="159.268147%" y2="118.300172%" id="linearGradient-8">
            <stop stop-color="#687E67" offset="0%"></stop>
            <stop stop-color="#687E67" offset="13.7556%"></stop>
            <stop stop-color="#9BB48F" offset="69.737407%"></stop>
            <stop stop-color="#9BB48F" offset="90.8084%"></stop>
            <stop stop-color="#9BB48F" offset="100%"></stop>
        </linearGradient>
        <linearGradient x1="-4.53258439%" y1="49.9981197%" x2="101.719247%" y2="49.9981197%" id="linearGradient-9">
            <stop stop-color="#9BB48F" offset="0%"></stop>
            <stop stop-color="#9BB48F" offset="9.19165%"></stop>
            <stop stop-color="#9BB48F" offset="30.262629%"></stop>
            <stop stop-color="#687E67" offset="86.2444%"></stop>
            <stop stop-color="#687E67" offset="100%"></stop>
        </linearGradient>
        <path d="M14.7006327,35.0462745 L0.946048,27.1113983 C0.431891478,26.8147582 0.115236351,26.266839 0.115236351,25.6732326 L0.115236351,9.79173193 C0.115236351,9.19845186 0.431891478,8.65053258 0.945721551,8.35323987 L14.6999798,0.412163221 C15.2144628,0.115523183 15.847773,0.115523183 16.3619295,0.412163221 L30.1132497,8.35323987 C30.6270798,8.65053258 30.9434085,9.19845186 30.9434085,9.79173193 L30.9434085,25.6738852 C30.9434085,26.266839 30.6270798,26.8147582 30.1125968,27.1113983 L16.3616031,35.0462745 C16.1046881,35.1944314 15.8177397,35.2688362 15.5311179,35.2688362 C15.2441696,35.2688362 14.9575477,35.1944314 14.7006327,35.0462745" id="path-10"></path>
        <linearGradient x1="-103.698492%" y1="49.9989911%" x2="100.585677%" y2="49.9989911%" id="linearGradient-12">
            <stop stop-color="#9BB48F" offset="0%"></stop>
            <stop stop-color="#9BB48F" offset="9.19165%"></stop>
            <stop stop-color="#9BB48F" offset="30.262629%"></stop>
            <stop stop-color="#687E67" offset="86.2444%"></stop>
            <stop stop-color="#687E67" offset="100%"></stop>
        </linearGradient>
        <path d="M14.7006327,35.0462745 L0.946048,27.1113983 C0.431891478,26.8147582 0.115236351,26.266839 0.115236351,25.6732326 L0.115236351,9.79173193 C0.115236351,9.19845186 0.431891478,8.65053258 0.945721551,8.35323987 L14.6999798,0.412163221 C15.2144628,0.115523183 15.847773,0.115523183 16.3619295,0.412163221 L30.1132497,8.35323987 C30.6270798,8.65053258 30.9434085,9.19845186 30.9434085,9.79173193 L30.9434085,25.6738852 C30.9434085,26.266839 30.6270798,26.8147582 30.1125968,27.1113983 L16.3616031,35.0462745 C16.1046881,35.1944314 15.8177397,35.2688362 15.5311179,35.2688362 C15.2441696,35.2688362 14.9575477,35.1944314 14.7006327,35.0462745" id="path-13"></path>
        <linearGradient x1="130.347411%" y1="311.036321%" x2="4.35792774%" y2="-101.152817%" id="linearGradient-15">
            <stop stop-color="#687E67" offset="0%"></stop>
            <stop stop-color="#687E67" offset="52.88042%"></stop>
            <stop stop-color="#83A178" offset="100%"></stop>
        </linearGradient>
    </defs>
    <g id="Page-1" stroke="none" stroke-width="1" fill="none" fill-rule="evenodd">
        <g id="Group-2">
            <rect id="Rectangle-1" fill="#FFFFFF" x="0" y="0" width="216.964286" height="200"></rect>
            <g id="Node-js_logo" transform="translate(35.714286, 54.910714)">
                <g id="svg3355">
                    <g id="g3363" transform="translate(72.575394, 45.083754) scale(1, -1) translate(-72.575394, -45.083754) translate(0.030751, 0.440897)">
                        <g id="g3449" transform="translate(37.998615, 33.025272)">
                            <g id="g3451-Clipped">
                                <mask id="mask-2" fill="white">
                                    <use xlink:href="#path-1"></use>
                                </mask>
                                <g id="path3455"></g>
                                <g id="g3451" mask="url(#mask-2)">
                                    <g transform="translate(14.037289, 37.855054)" id="g3457">
                                        <g>
                                            <g id="g3459" fill="url(#linearGradient-3)">
                                                <g id="g3465">
                                                    <g id="g3467">
                                                        <polygon id="path3481" points="0.397617981 0.41375 0.0229409785 0 0.522940978 0"></polygon>
                                                    </g>
                                                </g>
                                            </g>
                                        </g>
                                    </g>
                                </g>
                            </g>
                        </g>
                        <g id="g3509" transform="translate(37.998615, 33.025272)">
                            <g id="g3511-Clipped">
                                <mask id="mask-5" fill="white">
                                    <use xlink:href="#path-4"></use>
                                </mask>
                                <g id="path3515"></g>
                                <g id="g3511" mask="url(#mask-5)">
                                    <g transform="translate(31.339064, 8.484754)" id="g3517">
                                        <g>
                                            <g id="g3519" fill="url(#linearGradient-6)">
                                                <g id="g3525">
                                                    <g id="g3527">
                                                        <polygon id="path3541" points="0.34875 0.233131177 0 0.606370614 0 0.106370614 0.34875 0.233131177"></polygon>
                                                    </g>
                                                </g>
                                            </g>
                                        </g>
                                    </g>
                                </g>
                            </g>
                        </g>
                        <g id="g3590">
                            <g id="g3365" transform="translate(0.000000, 0.000000)">
                                <g id="g3367-Clipped" transform="translate(0.000000, 0.000000)">
                                    <g id="g3367" transform="translate(0.130579, 0.065267)">
                                        <g id="g3373" transform="translate(55.480982, 0.018144)" fill="#689F63">
                                            <path d="M15.9959807,0 C15.5193657,0 15.0453624,0.124334273 14.6281611,0.365823413 L10.2739899,2.94127245 C9.62403074,3.30481151 9.94133877,3.43371449 10.1558155,3.50844559 C11.0231894,3.80932801 11.1988187,3.87883772 12.1246269,4.40358709 C12.2209292,4.45808532 12.3488971,4.43719977 12.4484639,4.37878551 L15.7935826,2.39367951 C15.914695,2.32645416 16.085754,2.32645416 16.1973995,2.39367951 L29.2390204,9.91835056 C29.3604593,9.98753394 29.4381541,10.127206 29.4381541,10.2711205 L29.4381541,25.3165466 C29.4381541,25.4637244 29.3604593,25.6011122 29.2357559,25.6758433 L16.1996846,33.1939876 C16.0792251,33.2644763 15.9192653,33.2644763 15.7978264,33.1939876 L2.76501952,25.6735589 C2.63835747,25.6011122 2.55805111,25.4591557 2.55805111,25.3165466 L2.55805111,10.2711205 C2.55805111,10.127206 2.63835747,9.99079731 2.76371372,9.92259294 L6.33636704,7.85916614 C8.27481874,6.89027256 9.46178579,8.03147191 9.46178579,9.17789265 L9.46178579,24.0324118 C9.46178579,24.2425726 9.63055971,24.4080253 9.8407926,24.4080253 L11.4942547,24.4080253 C11.7012231,24.4080253 11.8722821,24.2425726 11.8722821,24.0324118 L11.8722821,9.17789265 C11.8722821,6.5916745 10.4633301,5.10847431 8.01072183,5.10847431 C7.25695205,5.10847431 6.66346852,5.10847431 5.00674195,5.92464234 L1.58686657,7.89277882 C0.742017634,8.38097849 0.219047001,9.29374217 0.219047001,10.2711205 L0.219047001,25.3165466 C0.219047001,26.2939249 0.742017634,27.2066886 1.58686657,27.6926039 L14.6281611,35.226086 C15.4534231,35.6924212 16.5502904,35.6924212 17.3690234,35.226086 L30.4096651,27.6926039 C31.2541875,27.2044042 31.7794433,26.2939249 31.7794433,25.3165466 L31.7794433,10.2711205 C31.7794433,9.29374217 31.2541875,8.38424185 30.4096651,7.89277882 L17.3690234,0.365823413 C16.9521486,0.124334273 16.4791246,0 15.9959807,0" id="path3375"></path>
                                        </g>
                                        <g id="g3377" transform="translate(68.323534, 10.383511)" fill="#689F63">
                                            <path d="M7.18186887,0 C1.47489471,0 0.279439989,2.61852548 0.279439989,4.81509764 C0.279439989,5.02395311 0.447234562,5.19071115 0.656161656,5.19071115 L2.3422686,5.19071115 C2.53062943,5.19071115 2.6876512,5.05528143 2.71703157,4.87155388 C2.97166147,3.15567565 3.73065443,2.28957811 7.18186887,2.28957811 C9.92926017,2.28957811 11.0989254,2.91092314 11.0989254,4.3680164 C11.0989254,5.208007 10.7672537,5.83163638 6.49763264,6.24967366 C2.92922316,6.60244361 0.72210427,7.39054668 0.72210427,10.2440346 C0.72210427,12.8746345 2.93999596,14.4433349 6.65889824,14.4433349 C10.8367872,14.4433349 12.9041861,12.9937474 13.1659979,9.88375888 C13.1757913,9.77639411 13.1379233,9.67359806 13.0664311,9.59364557 C12.9949388,9.51891447 12.895372,9.47322734 12.7902556,9.47322734 L11.0976197,9.47322734 C10.9223168,9.47322734 10.7672537,9.59788795 10.7316708,9.76790936 C10.3255687,11.5735302 9.33806178,12.1504934 6.65889824,12.1504934 C3.65916219,12.1504934 3.3105151,11.1058897 3.3105151,10.323008 C3.3105151,9.37467366 3.72184032,9.09891917 7.77208792,8.56307435 C11.7798972,8.03342993 13.6837453,7.28350825 13.6837453,4.46754908 C13.6837453,1.62711466 11.3143815,0 7.18186887,0" id="path3379"></path>
                                        </g>
                                        <g id="g3381" transform="translate(89.100485, 23.398307)" fill="#689F63">
                                            <path d="M2.2851401,2.93703008 L2.72356055,2.93703008 C3.08200109,2.93703008 3.1492495,3.18928832 3.1492495,3.33548716 C3.1492495,3.72154344 2.88286746,3.72154344 2.73661849,3.72154344 L2.2851401,3.72154344 L2.2851401,2.93703008 L2.2851401,2.93703008 Z M1.75237601,4.17351974 L2.72356055,4.17351974 C3.05621165,4.17351974 3.70812948,4.17351974 3.70812948,3.42849311 C3.70812948,2.90994413 3.37547837,2.80388471 3.17536539,2.73731203 C3.56188051,2.71087876 3.5879964,2.45796784 3.64088107,2.09932383 C3.6679763,1.87349885 3.70812948,1.48744256 3.78713004,1.35494987 L3.18940268,1.35494987 C3.17536539,1.48744256 3.08200109,2.20570959 3.08200109,2.24519632 C3.04315371,2.40510129 2.98896325,2.48440111 2.78982961,2.48440111 L2.29819804,2.48440111 L2.29819804,1.35494987 L1.75237601,1.35494987 L1.75237601,4.17351974 L1.75237601,4.17351974 Z M0.589239696,2.77092471 C0.589239696,1.60068139 1.53365545,0.65658939 2.69026279,0.65658939 C3.86090742,0.65658939 4.80499673,1.62058793 4.80499673,2.77092471 C4.80499673,3.94051535 3.84784947,4.87122755 2.69026279,4.87122755 C1.5467134,4.87122755 0.589239696,3.95422149 0.589239696,2.77092471 L0.589239696,2.77092471 Z M5.21011942,2.7637453 C5.21011942,1.38138315 4.07930152,0.25127924 2.69679176,0.25127924 C1.32668705,0.25127924 0.183137656,1.36800334 0.183137656,2.7637453 C0.183137656,4.18624687 1.35378228,5.27686404 2.69679176,5.27686404 C4.05351208,5.27686404 5.21011942,4.18624687 5.21011942,2.7637453 L5.21011942,2.7637453 Z" id="path3383"></path>
                                        </g>
                                        <g id="g3385" transform="translate(0.079262, 36.364642)" fill="#333333">
                                            <path d="M31.0126156,22.5172306 C31.0126156,23.1180164 30.6962869,23.670178 30.1775601,23.9677971 L16.3508303,31.9222536 C16.1170931,32.0599676 15.8549549,32.1314354 15.5898786,32.1422045 L15.4468942,32.1422045 C15.1824708,32.1314354 14.920659,32.0599676 14.6833309,31.9222536 L0.856601088,23.9677971 C0.341138772,23.670178 0.0205662609,23.1180164 0.0205662609,22.5172306 L0.0509259793,1.09812291 C0.0509259793,0.800177527 0.205662609,0.52311769 0.467800823,0.37691886 C0.724389411,0.223214286 1.04169744,0.223214286 1.29730668,0.37691886 L9.51467046,5.08073569 C10.0343766,5.38912385 10.3507053,5.93377976 10.3507053,6.52934419 L10.3507053,16.536132 C10.3507053,17.1326754 10.6667075,17.6848371 11.184455,17.9814771 L14.6833309,19.9959534 C14.9441633,20.1463946 15.2291529,20.2201467 15.5203451,20.2201467 C15.8053347,20.2201467 16.0975062,20.1463946 16.3508303,19.9959534 L19.8487269,17.9814771 C20.3664743,17.6848371 20.6837824,17.1326754 20.6837824,16.536132 L20.6837824,6.52934419 C20.6837824,5.93377976 21.0043549,5.38586048 21.5207965,5.08073569 L29.7358752,0.37691886 C29.9934431,0.223214286 30.3153214,0.223214286 30.5706042,0.37691886 C30.8252341,0.52311769 30.9855204,0.800177527 30.9855204,1.09812291 L31.0126156,22.5172306 L31.0126156,22.5172306 Z" id="path3387"></path>
                                        </g>
                                        <g id="g3389" transform="translate(75.445304, 32.717503)" fill="#333333">
                                            <path d="M20.8927095,15.0114871 C20.8927095,14.8626775 20.813056,14.7246371 20.6837824,14.6505587 L15.9346083,11.9138993 C15.8056611,11.8398209 15.6466807,11.8398209 15.5177335,11.9138993 L10.7685595,14.6505587 C10.6389594,14.7246371 10.5596324,14.8626775 10.5596324,15.0114871 L10.5596324,20.4936169 C10.5596324,20.6424264 10.6389594,20.7804668 10.768233,20.8551979 L15.5170806,23.5970786 C15.6466807,23.6718097 15.8056611,23.6718097 15.9352612,23.5970786 L20.6841088,20.8551979 C20.813056,20.7804668 20.8927095,20.6424264 20.8927095,20.4936169 L20.8927095,15.0114871 L20.8927095,15.0114871 Z M22.1759788,55.6087484 C21.9171051,55.7523366 21.6014293,55.7493995 21.3458201,55.5992847 C21.0908637,55.4494961 20.933842,55.1753733 20.933842,54.879386 L20.933842,33.6675021 C20.933842,33.458973 20.8221966,33.2657816 20.6419969,33.1613539 C20.4611444,33.0569262 20.23818,33.0569262 20.0573275,33.1613539 L16.5940345,35.1559237 C16.0775928,35.453869 15.4419974,35.4532164 14.9252293,35.1555973 L1.09327631,27.1756866 C0.576181753,26.8774149 0.257894382,26.3262322 0.257894382,25.7296888 L0.257894382,9.76660401 C0.257894382,9.17006057 0.576181753,8.61920426 1.09262341,8.32027987 L14.92425,0.334495092 C15.4413445,0.0362233709 16.0779193,0.0362233709 16.5950138,0.334495092 L30.4289255,8.32027987 C30.9453672,8.61920426 31.263981,9.17006057 31.263981,9.76660401 L31.263981,49.5587928 C31.263981,50.163821 30.9362266,50.7218567 30.4073799,51.0168651 L22.1759788,55.6087484 L22.1759788,55.6087484 Z" id="path3391"></path>
                                        </g>
                                        <g id="g3393" transform="translate(113.320424, 33.121541)" fill="#333333">
                                            <path d="M30.3597184,20.2328739 C30.8742014,20.5314719 31.1908565,21.0816755 31.1908565,21.6765873 L31.1908565,25.5449822 C31.1908565,26.139894 30.8742014,26.690424 30.3590655,26.989022 L16.6159065,34.9656694 C16.098812,35.2662255 15.460605,35.2665518 14.9422046,34.9679537 L1.11514837,26.988043 C0.598380257,26.6897713 0.280092886,26.138915 0.280092886,25.5423716 L0.280092886,9.58352914 C0.280092886,8.98306965 0.60229764,8.42927632 1.12363603,8.13263628 L14.8648363,0.305451128 C15.3714845,0.0163168338 15.9927162,0.013053467 16.5026289,0.296313701 L24.8140099,4.91430399 C25.0777803,5.06115549 25.241984,5.33756266 25.2436162,5.63844507 C25.2455749,5.93965382 25.0852886,6.21834534 24.8244562,6.36813388 L10.9095853,14.3519606 C10.6497322,14.5007702 10.4897724,14.7775037 10.4897724,15.0761017 L10.4897724,20.0775376 C10.4897724,20.3758093 10.6490793,20.6518901 10.907953,20.8006997 L15.23862,23.2965226 C15.4961879,23.4453321 15.8144753,23.4453321 16.0723696,23.2965226 L20.4049953,20.8006997 C20.663869,20.6518901 20.8228495,20.3758093 20.8228495,20.0775376 L20.8228495,16.14257 C20.8228495,15.8436456 20.9828093,15.5675647 21.241683,15.4187552 C21.5005567,15.269293 21.819497,15.2705984 22.0777178,15.4203869 L30.3597184,20.2328739 L30.3597184,20.2328739 Z" id="path3395"></path>
                                        </g>
                                        <g id="g3397" transform="translate(125.957640, 47.248851)" fill="#689F63">
                                            <path d="M2.93803727,6.85307018 C3.03727764,6.91050543 3.15936941,6.91050543 3.25860978,6.85307018 L5.91263678,5.32255117 C6.01187715,5.26511591 6.07292303,5.15938283 6.07292303,5.04483866 L6.07292303,1.98118995 C6.07292303,1.86631944 6.01187715,1.7609127 5.91263678,1.70347744 L3.25860978,0.172632101 C3.15936941,0.115196846 3.03727764,0.115196846 2.93803727,0.172632101 L0.285968961,1.70347744 C0.186728591,1.7609127 0.125682705,1.86631944 0.125682705,1.98118995 L0.125682705,5.04483866 C0.125682705,5.15938283 0.186728591,5.26511591 0.285968961,5.32255117 L2.93803727,6.85307018 L2.93803727,6.85307018 Z" id="path3399"></path>
                                        </g>
                                    </g>
                                </g>
                            </g>
                            <g id="g3401" transform="translate(37.998615, 33.025272)" fill="url(#linearGradient-7)">
                                <g id="g3403">
                                    <g id="g3409">
                                        <g id="g3411">
                                            <path d="M14.7006327,35.0462745 L0.946048,27.1113983 C0.43156503,26.8147582 0.115236351,26.266839 0.115236351,25.6732326 L0.115236351,25.6732326 L0.115236351,9.79173193 C0.115236351,9.19845186 0.43156503,8.65053258 0.945721551,8.35323987 L0.945721551,8.35323987 L14.6999798,0.412163221 C15.2144628,0.115523183 15.847773,0.115523183 16.3619295,0.412163221 L16.3619295,0.412163221 L30.1132497,8.35323987 C30.6270798,8.65053258 30.9434085,9.19845186 30.9434085,9.79173193 L30.9434085,9.79173193 L30.9434085,25.6738852 C30.9434085,26.266839 30.6270798,26.8147582 30.1125968,27.1113983 L30.1125968,27.1113983 L16.3616031,35.0462745 C16.1046881,35.1944314 15.8177397,35.2688362 15.5311179,35.2688362 L15.5311179,35.2688362 C15.2441696,35.2688362 14.9575477,35.1944314 14.7006327,35.0462745" id="path3421"></path>
                                        </g>
                                    </g>
                                </g>
                            </g>
                            <g id="g3423" transform="translate(38.325064, 33.025272)" fill="url(#linearGradient-8)">
                                <g id="g3425">
                                    <g id="g3431">
                                        <g id="g3433">
                                            <path d="M0.130579434,8.78302527 C0.261485317,8.61169852 0.426341852,8.46484701 0.619272966,8.35323987 L0.619272966,8.35323987 L12.4181042,1.54128812 L14.3823453,0.412163221 C14.676149,0.242794486 15.0114117,0.171000418 15.3407984,0.195149332 L15.3407984,0.195149332 C15.4508115,0.204286759 15.5604983,0.224519632 15.6675734,0.255521617 L15.6675734,0.255521617 L30.171684,26.8052945 C30.0606915,26.9244074 29.9314179,27.0278561 29.7861483,27.1113983 L29.7861483,27.1113983 L20.7800847,32.3083098 L16.0207908,35.0462745 C15.8846617,35.1245953 15.7387392,35.1810516 15.5888993,35.2179276 L15.5888993,35.2179276 L0.130579434,8.78302527 L0.130579434,8.78302527 Z" id="path3447"></path>
                                        </g>
                                    </g>
                                </g>
                            </g>
                            <g id="g3483" transform="translate(38.977961, 33.025272)" fill="url(#linearGradient-9)">
                                <g id="g3485">
                                    <g id="g3491">
                                        <g id="g3493">
                                            <path d="M14.3849569,35.2600251 C14.1548107,35.2371815 13.9285818,35.1657138 13.7212869,35.0462745 L13.7212869,35.0462745 L0.00587607453,27.1342419 L14.7917118,0.207223789 C14.9967216,0.236920426 15.1974874,0.305451128 15.3825838,0.412163221 L15.3825838,0.412163221 L29.133904,8.35323987 C29.5586136,8.59897139 29.8484999,9.01602966 29.9363146,9.48791249 L29.9363146,9.48791249 L14.8615718,35.2326128 C14.7502529,35.2548037 14.6369752,35.2658991 14.5236976,35.2658991 L14.5236976,35.2658991 C14.4773419,35.2658991 14.4309862,35.2639411 14.3849569,35.2600251" id="path3507"></path>
                                        </g>
                                    </g>
                                </g>
                            </g>
                            <g id="g3543" transform="translate(37.998615, 33.025272)">
                                <g id="g3545-Clipped">
                                    <mask id="mask-11" fill="white">
                                        <use xlink:href="#path-10"></use>
                                    </mask>
                                    <g id="path3549"></g>
                                    <g id="g3545" mask="url(#mask-11)">
                                        <g transform="translate(15.669532, -0.326337)" id="g3551">
                                            <g>
                                                <g id="g3553" fill="url(#linearGradient-12)">
                                                    <g id="g3559">
                                                        <g id="g3561">
                                                            <path d="M14.4783212,8.67957655 L0.709699224,0.738826232 C0.520359045,0.629503446 0.31371709,0.560972744 0.102178407,0.532255117 L0.376395219,0.0329600042 L15.6695321,8.88223162 L15.6695321,9.09076076 L15.2915046,9.73658104 C15.178227,9.2966792 14.8792001,8.91160192 14.4783212,8.67957655" id="path3575"></path>
                                                        </g>
                                                    </g>
                                                </g>
                                            </g>
                                        </g>
                                    </g>
                                </g>
                            </g>
                            <g id="g3577" transform="translate(37.998615, 33.025272)">
                                <g id="g3579-Clipped">
                                    <mask id="mask-14" fill="white">
                                        <use xlink:href="#path-13"></use>
                                    </mask>
                                    <g id="path3583"></g>
                                    <g id="g3579" mask="url(#mask-14)">
                                        <g transform="translate(15.669532, -0.326337)" id="g3585">
                                            <g>
                                                <g id="g3587" fill="url(#linearGradient-15)">
                                                    <g id="g3593">
                                                        <g id="g3595">
                                                            <path d="M14.4783212,8.67957655 L0.709699224,0.738826232 C0.520359045,0.629503446 0.31371709,0.560972744 0.102178407,0.532255117 L0.376395219,0.0329600042 L15.6695321,8.88223162 L15.6695321,9.09076076 L15.2915046,9.73658104 C15.178227,9.2966792 14.8792001,8.91160192 14.4783212,8.67957655" id="path3605"></path>
                                                        </g>
                                                    </g>
                                                </g>
                                            </g>
                                        </g>
                                    </g>
                                </g>
                            </g>
                        </g>
                    </g>
                </g>
            </g>
        </g>
    </g>
</svg>