<?xml version="1.0" encoding="UTF-8" standalone="no"?>
<svg width="136px" height="114px" viewBox="0 0 136 114" version="1.1" xmlns="http://www.w3.org/2000/svg" xmlns:xlink="http://www.w3.org/1999/xlink">
    <!-- Generator: Sketch 3.8.3 (29802) - http://www.bohemiancoding.com/sketch -->
    <title>Group 9</title>
    <desc>Created with Sketch.</desc>
    <defs>
        <path d="M10.4147369,24.8287088 L0.670232446,19.207206 C0.305975682,18.9970498 0.08163977,18.6088737 0.08163977,18.1883303 L0.08163977,6.93700155 C0.08163977,6.51668931 0.305975682,6.12851315 0.670001172,5.91789464 L10.4142743,0.291999099 C10.7787624,0.0818429778 11.2274342,0.0818429778 11.591691,0.291999099 L21.3338827,5.91789464 C21.6979082,6.12851315 21.9220128,6.51668931 21.9220128,6.93700155 L21.9220128,18.1887926 C21.9220128,18.6088737 21.6979082,18.9970498 21.3334201,19.207206 L11.5914597,24.8287088 C11.409447,24.9336713 11.206157,24.9863837 11.0030983,24.9863837 C10.7998083,24.9863837 10.5967496,24.9336713 10.4147369,24.8287088" id="path-1"></path>
        <linearGradient x1="-4418.47%" y1="16.568%" x2="5323.2292%" y2="16.568%" id="linearGradient-3">
            <stop stop-color="#9BB48F" offset="0%"></stop>
            <stop stop-color="#9BB48F" offset="9.19165%"></stop>
            <stop stop-color="#9BB48F" offset="30.262629%"></stop>
            <stop stop-color="#687E67" offset="86.2444%"></stop>
            <stop stop-color="#687E67" offset="100%"></stop>
        </linearGradient>
        <path d="M10.4147369,24.8287088 L0.670232446,19.207206 C0.305975682,18.9970498 0.08163977,18.6088737 0.08163977,18.1883303 L0.08163977,6.93700155 C0.08163977,6.51668931 0.305975682,6.12851315 0.670001172,5.91789464 L10.4142743,0.291999099 C10.7787624,0.0818429778 11.2274342,0.0818429778 11.591691,0.291999099 L21.3338827,5.91789464 C21.6979082,6.12851315 21.9220128,6.51668931 21.9220128,6.93700155 L21.9220128,18.1887926 C21.9220128,18.6088737 21.6979082,18.9970498 21.3334201,19.207206 L11.5914597,24.8287088 C11.409447,24.9336713 11.206157,24.9863837 11.0030983,24.9863837 C10.7998083,24.9863837 10.5967496,24.9336713 10.4147369,24.8287088" id="path-4"></path>
        <linearGradient x1="-9713.77%" y1="31.987%" x2="27.9292%" y2="31.987%" id="linearGradient-6">
            <stop stop-color="#9BB48F" offset="0%"></stop>
            <stop stop-color="#9BB48F" offset="9.19165%"></stop>
            <stop stop-color="#9BB48F" offset="30.262629%"></stop>
            <stop stop-color="#687E67" offset="86.2444%"></stop>
            <stop stop-color="#687E67" offset="100%"></stop>
        </linearGradient>
        <linearGradient x1="68.1407211%" y1="82.520314%" x2="27.8327029%" y2="10.2813689%" id="linearGradient-7">
            <stop stop-color="#687E67" offset="0%"></stop>
            <stop stop-color="#687E67" offset="52.88042%"></stop>
            <stop stop-color="#83A178" offset="100%"></stop>
        </linearGradient>
        <linearGradient x1="43.2035882%" y1="44.7780851%" x2="159.268147%" y2="118.300172%" id="linearGradient-8">
            <stop stop-color="#687E67" offset="0%"></stop>
            <stop stop-color="#687E67" offset="13.7556%"></stop>
            <stop stop-color="#9BB48F" offset="69.737407%"></stop>
            <stop stop-color="#9BB48F" offset="90.8084%"></stop>
            <stop stop-color="#9BB48F" offset="100%"></stop>
        </linearGradient>
        <linearGradient x1="-4.53258439%" y1="49.9981197%" x2="101.719247%" y2="49.9981197%" id="linearGradient-9">
            <stop stop-color="#9BB48F" offset="0%"></stop>
            <stop stop-color="#9BB48F" offset="9.19165%"></stop>
            <stop stop-color="#9BB48F" offset="30.262629%"></stop>
            <stop stop-color="#687E67" offset="86.2444%"></stop>
            <stop stop-color="#687E67" offset="100%"></stop>
        </linearGradient>
        <path d="M10.4147369,24.8287088 L0.670232446,19.207206 C0.305975682,18.9970498 0.08163977,18.6088737 0.08163977,18.1883303 L0.08163977,6.93700155 C0.08163977,6.51668931 0.305975682,6.12851315 0.670001172,5.91789464 L10.4142743,0.291999099 C10.7787624,0.0818429778 11.2274342,0.0818429778 11.591691,0.291999099 L21.3338827,5.91789464 C21.6979082,6.12851315 21.9220128,6.51668931 21.9220128,6.93700155 L21.9220128,18.1887926 C21.9220128,18.6088737 21.6979082,18.9970498 21.3334201,19.207206 L11.5914597,24.8287088 C11.409447,24.9336713 11.206157,24.9863837 11.0030983,24.9863837 C10.7998083,24.9863837 10.5967496,24.9336713 10.4147369,24.8287088" id="path-10"></path>
        <linearGradient x1="-103.698492%" y1="49.9989911%" x2="100.585677%" y2="49.9989911%" id="linearGradient-12">
            <stop stop-color="#9BB48F" offset="0%"></stop>
            <stop stop-color="#9BB48F" offset="9.19165%"></stop>
            <stop stop-color="#9BB48F" offset="30.262629%"></stop>
            <stop stop-color="#687E67" offset="86.2444%"></stop>
            <stop stop-color="#687E67" offset="100%"></stop>
        </linearGradient>
        <path d="M10.4147369,24.8287088 L0.670232446,19.207206 C0.305975682,18.9970498 0.08163977,18.6088737 0.08163977,18.1883303 L0.08163977,6.93700155 C0.08163977,6.51668931 0.305975682,6.12851315 0.670001172,5.91789464 L10.4142743,0.291999099 C10.7787624,0.0818429778 11.2274342,0.0818429778 11.591691,0.291999099 L21.3338827,5.91789464 C21.6979082,6.12851315 21.9220128,6.51668931 21.9220128,6.93700155 L21.9220128,18.1887926 C21.9220128,18.6088737 21.6979082,18.9970498 21.3334201,19.207206 L11.5914597,24.8287088 C11.409447,24.9336713 11.206157,24.9863837 11.0030983,24.9863837 C10.7998083,24.9863837 10.5967496,24.9336713 10.4147369,24.8287088" id="path-13"></path>
        <linearGradient x1="130.347411%" y1="311.036321%" x2="4.35792774%" y2="-101.152817%" id="linearGradient-15">
            <stop stop-color="#687E67" offset="0%"></stop>
            <stop stop-color="#687E67" offset="52.88042%"></stop>
            <stop stop-color="#83A178" offset="100%"></stop>
        </linearGradient>
    </defs>
    <g id="Page-1" stroke="none" stroke-width="1" fill="none" fill-rule="evenodd">
        <g id="Group-9">
            <rect id="Rectangle-1" fill="#FFFFFF" x="0" y="0" width="135.224042" height="113.352802"></rect>
            <g id="Node-js_logo" transform="translate(16.294465, 24.795925)">
                <g id="svg3355">
                    <g id="g3363" transform="translate(51.416402, 31.939811) scale(1, -1) translate(-51.416402, -31.939811) translate(0.021786, 0.312355)">
                        <g id="g3449" transform="translate(26.920309, 23.396919)">
                            <g id="g3451-Clipped">
                                <mask id="mask-2" fill="white">
                                    <use xlink:href="#path-1"></use>
                                </mask>
                                <g id="path3455"></g>
                                <g id="g3451" mask="url(#mask-2)">
                                    <g transform="translate(9.944788, 26.818603)" id="g3457">
                                        <g>
                                            <g id="g3459" fill="url(#linearGradient-3)">
                                                <g id="g3465">
                                                    <g id="g3467">
                                                        <polygon id="path3481" points="0.397617981 0.41375 0.0229409785 0 0.522940978 0"></polygon>
                                                    </g>
                                                </g>
                                            </g>
                                        </g>
                                    </g>
                                </g>
                            </g>
                        </g>
                        <g id="g3509" transform="translate(26.920309, 23.396919)">
                            <g id="g3511-Clipped">
                                <mask id="mask-5" fill="white">
                                    <use xlink:href="#path-4"></use>
                                </mask>
                                <g id="path3515"></g>
                                <g id="g3511" mask="url(#mask-5)">
                                    <g transform="translate(22.202317, 6.011066)" id="g3517">
                                        <g>
                                            <g id="g3519" fill="url(#linearGradient-6)">
                                                <g id="g3525">
                                                    <g id="g3527">
                                                        <polygon id="path3541" points="0.34875 0.233131177 0 0.606370614 0 0.106370614 0.34875 0.233131177"></polygon>
                                                    </g>
                                                </g>
                                            </g>
                                        </g>
                                    </g>
                                </g>
                            </g>
                        </g>
                        <g id="g3590">
                            <g id="g3365" transform="translate(0.000000, 0.000000)">
                                <g id="g3367-Clipped" transform="translate(0.000000, 0.000000)">
                                    <g id="g3367" transform="translate(0.092510, 0.046239)">
                                        <g id="g3373" transform="translate(39.305779, 0.012854)" fill="#689F63">
                                            <path d="M11.3324327,0 C10.9947724,0 10.6589624,0.0880852389 10.363394,0.25916943 L7.27865961,2.08375921 C6.8181928,2.34131027 7.04299126,2.43263224 7.19493837,2.48557586 C7.80943375,2.69873752 7.93385924,2.74798202 8.58975269,3.11974334 C8.65797856,3.15835288 8.74863802,3.14355641 8.81917663,3.10217253 L11.1890427,1.69581424 C11.2748454,1.6481881 11.3960331,1.6481881 11.4751288,1.69581424 L20.7145305,7.02670516 C20.8005645,7.07571847 20.8556078,7.17466986 20.8556078,7.27662679 L20.8556078,17.9356343 C20.8556078,18.0399032 20.8005645,18.1372362 20.7122178,18.1901798 L11.4767477,23.5164468 C11.3914076,23.5663849 11.2780832,23.5663849 11.1920493,23.5164468 L1.95889193,18.1885615 C1.86915757,18.1372362 1.81226413,18.0366664 1.81226413,17.9356343 L1.81226413,7.27662679 C1.81226413,7.17466986 1.86915757,7.07803041 1.95796684,7.02971069 L4.48903098,5.56786564 C5.8623368,4.88144812 6.70324956,5.68993652 6.70324956,6.50212404 L6.70324956,17.0258825 C6.70324956,17.174772 6.82281829,17.2919878 6.97175883,17.2919878 L8.14316233,17.2919878 C8.28979013,17.2919878 8.41097778,17.174772 8.41097778,17.0258825 L8.41097778,6.50212404 C8.41097778,4.66990483 7.41279861,3.61912422 5.67523602,3.61912422 C5.14122404,3.61912422 4.72076766,3.61912422 3.54705142,4.19734255 L1.12422358,5.59167871 C0.525686111,5.93754621 0.155184945,6.58419821 0.155184945,7.27662679 L0.155184945,17.9356343 C0.155184945,18.6280629 0.525686111,19.2747149 1.12422358,19.618964 L10.363394,24.9560972 C10.9480551,25.2864746 11.7251361,25.2864746 12.3051717,24.9560972 L21.5438796,19.618964 C22.1421858,19.2730965 22.5143059,18.6280629 22.5143059,17.9356343 L22.5143059,7.27662679 C22.5143059,6.58419821 22.1421858,5.93985816 21.5438796,5.59167871 L12.3051717,0.25916943 C12.0098346,0.0880852389 11.6747184,0 11.3324327,0" id="path3375"></path>
                                        </g>
                                        <g id="g3377" transform="translate(48.404150, 7.356250)" fill="#689F63">
                                            <path d="M5.08803099,0 C1.04489655,0 0.19797066,1.8551075 0.19797066,3.41128005 C0.19797066,3.55924476 0.316845566,3.67738533 0.464861013,3.67738533 L1.65939193,3.67738533 C1.7928371,3.67738533 1.90407996,3.58143946 1.92489463,3.45127676 C2.10528846,2.23565423 2.64300083,1.62206309 5.08803099,1.62206309 C7.03443412,1.62206309 7.86308935,2.06225809 7.86308935,3.0945431 C7.86308935,3.68963865 7.62811483,4.13145202 4.6032804,4.42761262 C2.07522282,4.67753426 0.511578389,5.23586983 0.511578389,7.25743762 C0.511578389,9.12109933 2.08285487,10.232453 4.71752983,10.232453 C7.67737622,10.232453 9.14203532,9.20548545 9.32751718,7.0021985 C9.3344554,6.9261354 9.3076276,6.85330902 9.25697857,6.79666628 C9.20632953,6.74372266 9.13579092,6.71135538 9.06132065,6.71135538 L7.86216425,6.71135538 C7.73797004,6.71135538 7.62811483,6.79967181 7.60290595,6.92012433 C7.31520092,8.19932545 6.61559666,8.60807795 4.71752983,8.60807795 C2.59235179,8.60807795 2.34535101,7.86802323 2.34535101,7.31338677 C2.34535101,6.64153453 2.63675642,6.44617488 5.50617463,6.06655293 C8.3455272,5.69132369 9.69431796,5.16003792 9.69431796,3.16505753 C9.69431796,1.15273754 8.01573028,0 5.08803099,0" id="path3379"></path>
                                        </g>
                                        <g id="g3381" transform="translate(63.123685, 16.576648)" fill="#689F63">
                                            <path d="M1.61891895,2.08075367 L1.92952012,2.08075367 C2.18345912,2.08075367 2.23110159,2.2594673 2.23110159,2.36304259 C2.23110159,2.6365461 2.0423819,2.6365461 1.93877108,2.6365461 L1.61891895,2.6365461 L1.61891895,2.08075367 L1.61891895,2.08075367 Z M1.24147956,2.95675097 L1.92952012,2.95675097 C2.16518846,2.95675097 2.62704291,2.95675097 2.62704291,2.42893312 C2.62704291,2.0615645 2.39137457,1.98642617 2.24960352,1.93926242 C2.5234321,1.92053564 2.54193403,1.74135963 2.57940044,1.48727649 C2.59859619,1.32728965 2.62704291,1.05378614 2.68301125,0.959921028 L2.25954831,0.959921028 C2.24960352,1.05378614 2.18345912,1.56264601 2.18345912,1.59062059 C2.1559375,1.70390606 2.11754599,1.76008641 1.97646877,1.76008641 L1.62816992,1.76008641 L1.62816992,0.959921028 L1.24147956,0.959921028 L1.24147956,2.95675097 L1.24147956,2.95675097 Z M0.417449815,1.96307549 C0.417449815,1.13401075 1.08652589,0.465164044 1.90593015,0.465164044 C2.73527921,0.465164044 3.40412401,1.14811364 3.40412401,1.96307549 C3.40412401,2.79167785 2.72602824,3.45104557 1.90593015,3.45104557 C1.09577686,3.45104557 0.417449815,2.80138803 0.417449815,1.96307549 L0.417449815,1.96307549 Z M3.69113521,1.95798921 C3.69113521,0.978647811 2.8900016,0.178020037 1.91055564,0.178020037 C0.939898089,0.178020037 0.12974479,0.969168822 0.12974479,1.95798921 C0.12974479,2.96576757 0.959093842,3.73842077 1.91055564,3.73842077 C2.87173095,3.73842077 3.69113521,2.96576757 3.69113521,1.95798921 L3.69113521,1.95798921 Z" id="path3383"></path>
                                        </g>
                                        <g id="g3385" transform="translate(0.056153, 25.762713)" fill="#333333">
                                            <path d="M21.9710429,15.9524448 C21.9710429,16.3780746 21.7469383,16.7692562 21.3794437,16.980106 L11.5838277,22.6154805 C11.4182354,22.7130447 11.2325222,22.7636764 11.0447276,22.7713058 L10.9434296,22.7713058 C10.7560975,22.7636764 10.5706157,22.7130447 10.4024794,22.6154805 L0.606863333,16.980106 C0.241681472,16.7692562 0.0145702706,16.3780746 0.0145702706,15.9524448 L0.0360787652,0.777970679 C0.0360787652,0.566889779 0.145702706,0.370605349 0.331415837,0.267030055 C0.513197308,0.158137279 0.737995768,0.158137279 0.919083417,0.267030055 L6.74071597,3.59947266 C7.10890439,3.8179518 7.33300903,4.20381601 7.33300903,4.62574661 L7.33300903,11.7151056 C7.33300903,12.1377298 7.55688239,12.5289115 7.92368317,12.7390676 L10.4024794,14.1662334 C10.5872674,14.2728142 10.7891697,14.3250643 10.9954662,14.3250643 C11.1973686,14.3250643 11.4043589,14.2728142 11.5838277,14.1662334 L14.06193,12.7390676 C14.4287308,12.5289115 14.6535293,12.1377298 14.6535293,11.7151056 L14.6535293,4.62574661 C14.6535293,4.20381601 14.8806405,3.81563985 15.2465161,3.59947266 L21.0665298,0.267030055 C21.2490051,0.158137279 21.4770414,0.158137279 21.6578977,0.267030055 C21.8382916,0.370605349 21.9518472,0.566889779 21.9518472,0.777970679 L21.9710429,15.9524448 L21.9710429,15.9524448 Z" id="path3387"></path>
                                        </g>
                                        <g id="g3389" transform="translate(53.449604, 23.178879)" fill="#333333">
                                            <path d="M14.8015447,10.6349632 C14.8015447,10.5295384 14.7451138,10.4317429 14.6535293,10.3792617 L11.2889531,8.44046168 C11.1975998,8.38798045 11.0849693,8.38798045 10.9936161,8.44046168 L7.62903992,10.3792617 C7.53722409,10.4317429 7.48102448,10.5295384 7.48102448,10.6349632 L7.48102448,14.5188056 C7.48102448,14.6242304 7.53722409,14.7220258 7.62880865,14.7749695 L10.9931535,16.7174686 C11.0849693,16.7704122 11.1975998,16.7704122 11.2894157,16.7174686 L14.6537605,14.7749695 C14.7451138,14.7220258 14.8015447,14.6242304 14.8015447,14.5188056 L14.8015447,10.6349632 L14.8015447,10.6349632 Z M15.7106833,39.3962965 C15.5272829,39.4980222 15.3036409,39.4959415 15.1225532,39.3895918 C14.9419281,39.2834734 14.8306852,39.0892697 14.8306852,38.879576 L14.8306852,23.8519106 C14.8306852,23.7041771 14.7515895,23.5673097 14.6239262,23.4933273 C14.4958003,23.419345 14.3378401,23.419345 14.2097142,23.4933273 L11.7561269,24.9063903 C11.3902512,25.1174712 10.9399605,25.1170088 10.5738535,24.9061591 L0.774537081,19.2527514 C0.40819885,19.0414393 0.182706567,18.6509512 0.182706567,18.228327 L0.182706567,6.91919955 C0.182706567,6.49657536 0.40819885,6.10631845 0.774074533,5.89454396 L10.5731597,0.236974724 C10.9394979,0.0256626286 11.3904825,0.0256626286 11.7568207,0.236974724 L21.5575248,5.89454396 C21.9234004,6.10631845 22.149124,6.49657536 22.149124,6.91919955 L22.149124,35.1101751 C22.149124,35.5388104 21.9169248,35.9341536 21.5422607,36.1431537 L15.7106833,39.3962965 L15.7106833,39.3962965 Z" id="path3391"></path>
                                        </g>
                                        <g id="g3393" transform="translate(80.282422, 23.465122)" fill="#333333">
                                            <path d="M21.5084946,14.3340809 C21.8729827,14.5456242 22.0973186,14.9354187 22.0973186,15.3568869 L22.0973186,18.0974707 C22.0973186,18.5189389 21.8729827,18.9089646 21.5080321,19.1205079 L11.7716222,24.7716037 C11.405284,24.9845341 10.9531431,24.9847653 10.5858798,24.773222 L0.790032449,19.1198143 C0.423925491,18.9085022 0.198433209,18.5182453 0.198433209,18.0956211 L0.198433209,6.78949924 C0.198433209,6.36410071 0.426700781,5.97176304 0.796045576,5.76160692 L10.5310678,0.216398382 C10.8900052,0.0115597426 11.3301199,0.00924779411 11.6913701,0.209924926 L17.5796096,3.48156329 C17.7664791,3.58560097 17.88281,3.78142301 17.8839664,3.99458466 C17.885354,4.20797751 17.7717984,4.40541792 17.5870104,4.51153636 L7.72895035,10.1677184 C7.54485614,10.2731433 7.43153181,10.4691965 7.43153181,10.6807398 L7.43153181,14.2240321 C7.43153181,14.4353442 7.54439359,14.6309351 7.72779398,14.7363599 L10.7958767,16.5045381 C10.978352,16.609963 11.2038442,16.609963 11.3865508,16.5045381 L14.4560211,14.7363599 C14.6394215,14.6309351 14.752052,14.4353442 14.752052,14.2240321 L14.752052,11.4362846 C14.752052,11.2245101 14.8653764,11.0289193 15.0487768,10.9234944 C15.2321771,10.8176072 15.458132,10.8185319 15.6410698,10.9246504 L21.5084946,14.3340809 L21.5084946,14.3340809 Z" id="path3395"></path>
                                        </g>
                                        <g id="g3397" transform="translate(89.235321, 33.473685)" fill="#689F63">
                                            <path d="M2.08146722,4.85509191 C2.15177456,4.8957822 2.23827109,4.8957822 2.30857843,4.85509191 L4.18883715,3.77078805 C4.25914449,3.73009775 4.30239275,3.65519062 4.30239275,3.57404123 L4.30239275,1.40358395 C4.30239275,1.32220336 4.25914449,1.24752743 4.18883715,1.20683713 L2.30857843,0.122302077 C2.23827109,0.081611783 2.15177456,0.081611783 2.08146722,0.122302077 L0.202596143,1.20683713 C0.132288806,1.24752743 0.0890405424,1.32220336 0.0890405424,1.40358395 L0.0890405424,3.57404123 C0.0890405424,3.65519062 0.132288806,3.73009775 0.202596143,3.77078805 L2.08146722,4.85509191 L2.08146722,4.85509191 Z" id="path3399"></path>
                                        </g>
                                    </g>
                                </g>
                            </g>
                            <g id="g3401" transform="translate(26.920309, 23.396919)" fill="url(#linearGradient-7)">
                                <g id="g3403">
                                    <g id="g3409">
                                        <g id="g3411">
                                            <path d="M10.4147369,24.8287088 L0.670232446,19.207206 C0.305744408,18.9970498 0.08163977,18.6088737 0.08163977,18.1883303 L0.08163977,18.1883303 L0.08163977,6.93700155 C0.08163977,6.51668931 0.305744408,6.12851315 0.670001172,5.91789464 L0.670001172,5.91789464 L10.4142743,0.291999099 C10.7787624,0.0818429778 11.2274342,0.0818429778 11.591691,0.291999099 L11.591691,0.291999099 L21.3338827,5.91789464 C21.6979082,6.12851315 21.9220128,6.51668931 21.9220128,6.93700155 L21.9220128,6.93700155 L21.9220128,18.1887926 C21.9220128,18.6088737 21.6979082,18.9970498 21.3334201,19.207206 L21.3334201,19.207206 L11.5914597,24.8287088 C11.409447,24.9336713 11.206157,24.9863837 11.0030983,24.9863837 L11.0030983,24.9863837 C10.7998083,24.9863837 10.5967496,24.9336713 10.4147369,24.8287088" id="path3421"></path>
                                        </g>
                                    </g>
                                </g>
                            </g>
                            <g id="g3423" transform="translate(27.151584, 23.396919)" fill="url(#linearGradient-8)">
                                <g id="g3425">
                                    <g id="g3431">
                                        <g id="g3433">
                                            <path d="M0.0925096544,6.22237827 C0.185250583,6.10100097 0.302044022,5.99696328 0.438727036,5.91789464 L0.438727036,5.91789464 L8.79766813,1.09193329 L10.1892446,0.291999099 C10.3973913,0.17200897 10.6349099,0.121146103 10.8682655,0.138254522 L10.8682655,0.138254522 C10.9462049,0.144727978 11.023913,0.159062059 11.0997709,0.18102557 L11.0997709,0.18102557 L21.3752807,18.9903452 C21.2966475,19.0747313 21.205063,19.1480201 21.102146,19.207206 L21.102146,19.207206 L14.7217551,22.888984 L11.3500095,24.8287088 C11.2535682,24.8841956 11.1501886,24.9241923 11.0440338,24.9503173 L11.0440338,24.9503173 L0.0925096544,6.22237827 L0.0925096544,6.22237827 Z" id="path3447"></path>
                                        </g>
                                    </g>
                                </g>
                            </g>
                            <g id="g3483" transform="translate(27.614132, 23.396919)" fill="url(#linearGradient-9)">
                                <g id="g3485">
                                    <g id="g3491">
                                        <g id="g3493">
                                            <path d="M10.1910948,24.9801414 C10.0280465,24.9639578 9.86777356,24.9133261 9.72091448,24.8287088 L9.72091448,24.8287088 L0.00416293445,19.2233896 L10.4792624,0.146808731 C10.6245025,0.167847463 10.7667361,0.216398382 10.8978686,0.291999099 L10.8978686,0.291999099 L20.6400603,5.91789464 C20.9409479,6.09198437 21.1463194,6.38745139 21.2085321,6.72175915 L21.2085321,6.72175915 L10.528755,24.9607211 C10.4498906,24.9764423 10.3696384,24.9843029 10.2893863,24.9843029 L10.2893863,24.9843029 C10.2565454,24.9843029 10.2237045,24.9829158 10.1910948,24.9801414" id="path3507"></path>
                                        </g>
                                    </g>
                                </g>
                            </g>
                            <g id="g3543" transform="translate(26.920309, 23.396919)">
                                <g id="g3545-Clipped">
                                    <mask id="mask-11" fill="white">
                                        <use xlink:href="#path-10"></use>
                                    </mask>
                                    <g id="path3549"></g>
                                    <g id="g3545" mask="url(#mask-11)">
                                        <g transform="translate(11.101159, -0.231195)" id="g3551">
                                            <g>
                                                <g id="g3553" fill="url(#linearGradient-12)">
                                                    <g id="g3559">
                                                        <g id="g3561">
                                                            <path d="M10.2572392,6.1490895 L0.502789972,0.523425146 C0.368650973,0.445974871 0.222254445,0.397423952 0.0723888046,0.377078805 L0.266659079,0.0233506801 L11.1011585,6.2926615 L11.1011585,6.44039501 L10.8333431,6.89792962 C10.753091,6.58627896 10.5412438,6.31346904 10.2572392,6.1490895" id="path3575"></path>
                                                        </g>
                                                    </g>
                                                </g>
                                            </g>
                                        </g>
                                    </g>
                                </g>
                            </g>
                            <g id="g3577" transform="translate(26.920309, 23.396919)">
                                <g id="g3579-Clipped">
                                    <mask id="mask-14" fill="white">
                                        <use xlink:href="#path-13"></use>
                                    </mask>
                                    <g id="path3583"></g>
                                    <g id="g3579" mask="url(#mask-14)">
                                        <g transform="translate(11.101159, -0.231195)" id="g3585">
                                            <g>
                                                <g id="g3587" fill="url(#linearGradient-15)">
                                                    <g id="g3593">
                                                        <g id="g3595">
                                                            <path d="M10.2572392,6.1490895 L0.502789972,0.523425146 C0.368650973,0.445974871 0.222254445,0.397423952 0.0723888046,0.377078805 L0.266659079,0.0233506801 L11.1011585,6.2926615 L11.1011585,6.44039501 L10.8333431,6.89792962 C10.753091,6.58627896 10.5412438,6.31346904 10.2572392,6.1490895" id="path3605"></path>
                                                        </g>
                                                    </g>
                                                </g>
                                            </g>
                                        </g>
                                    </g>
                                </g>
                            </g>
                        </g>
                    </g>
                </g>
            </g>
        </g>
    </g>
</svg>