<?xml version="1.0" encoding="UTF-8" standalone="no"?>
<svg width="135px" height="114px" viewBox="0 0 135 114" version="1.1" xmlns="http://www.w3.org/2000/svg" xmlns:xlink="http://www.w3.org/1999/xlink">
    <!-- Generator: Sketch 3.8.3 (29802) - http://www.bohemiancoding.com/sketch -->
    <title>Group 3</title>
    <desc>Created with Sketch.</desc>
    <defs></defs>
    <g id="Page-1" stroke="none" stroke-width="1" fill="none" fill-rule="evenodd">
        <g id="Group-3">
            <rect id="Rectangle-1-Copy-5" fill="#FFFFFF" x="0" y="0" width="134.111087" height="113.352802"></rect>
            <g id="Sass_logo" transform="translate(16.294465, 18.419830)" fill="#CD6799">
                <g id="Layer_1">
                    <path d="M87.6309812,44.0281821 C84.0878996,44.0467594 81.0085721,44.9013148 78.4300991,46.1645707 C77.4840407,44.2882642 76.5379823,42.6163079 76.3710308,41.3902066 C76.1855291,39.9597551 75.9629271,39.0866224 76.1855291,37.3775116 C76.4081311,35.6684007 77.40984,33.2347754 77.3912899,33.0490025 C77.3727397,32.8632296 77.1686879,31.9900969 75.1281697,31.9715196 C73.0876515,31.9529423 71.3253858,32.3616427 71.121334,32.9003842 C70.9172822,33.4391256 70.5277287,34.6652269 70.2680264,35.9284828 C69.9155732,37.786212 66.18699,44.4183052 64.053721,47.8922588 C63.3673649,46.5361165 62.7737596,45.3471698 62.6439084,44.3997279 C62.4584068,42.9692765 62.2358048,42.0961437 62.4584068,40.3870329 C62.6810088,38.677922 63.6827177,36.2442967 63.6641675,36.0585238 C63.6456174,35.8727509 63.4415655,34.9996182 61.4010473,34.9810409 C59.3605292,34.9624636 57.5982634,35.371164 57.3942116,35.9099055 C57.1901598,36.448647 56.9675578,37.7119028 56.540904,38.9380041 C56.1142502,40.1641054 51.1613561,51.2361714 49.8628445,54.0970744 C49.1950385,55.5646805 48.6199834,56.7350498 48.2118798,57.5338734 L48.2118798,57.5338734 C48.2118798,57.5338734 48.1933296,57.5896053 48.1376791,57.6824917 C47.785226,58.3698515 47.5811741,58.7413974 47.5811741,58.7413974 C47.5811741,58.7413974 47.5811741,58.7413974 47.5811741,58.7599747 C47.3029217,59.2615616 47.006119,59.7259939 46.8577177,59.7259939 C46.7464167,59.7259939 46.5423649,58.3884288 46.894818,56.5678542 C47.6368246,52.7223548 49.3990904,46.7404667 49.3805402,46.5361165 C49.3805402,46.4246528 49.7144432,45.3843244 48.2304299,44.845583 C46.783517,44.3068415 46.2641124,45.1985515 46.1342613,45.1985515 C46.0044101,45.1985515 45.9116593,45.5143655 45.9116593,45.5143655 C45.9116593,45.5143655 47.5255237,38.7893858 42.8323318,38.7893858 C39.9014057,38.7893858 35.8574696,42.0032573 33.8540518,44.9013148 C32.5926405,45.5886746 29.9028666,47.0562807 27.0275909,48.6353505 C25.9331312,49.2484012 24.8015711,49.8614518 23.7442117,50.4373479 C23.670011,50.3630387 23.5958103,50.2701522 23.5216097,50.1958431 C17.8452591,44.1210686 7.34586548,39.8297141 7.79106945,31.6742829 C7.95802094,28.7019162 8.97828003,20.8994535 27.9550992,11.4250346 C43.5743384,3.71545841 56.0029492,5.85184699 58.1547684,10.5890565 C61.2340959,17.3511908 51.495259,29.9094402 35.3566152,31.7300148 C29.1979603,32.4173746 25.9702315,30.0394812 25.1540242,29.1477712 C24.3007166,28.2189066 24.1708655,28.1631747 23.8555127,28.3489476 C23.336108,28.627607 23.670011,29.4635852 23.8555127,29.9465947 C24.337817,31.2098506 26.3226846,33.4391256 29.6802646,34.5351859 C32.648291,35.5012051 39.8643054,36.0399465 48.6014332,32.6588794 C58.3773704,28.8691118 66.0200385,18.3357872 63.7754685,9.51157352 C61.5308985,0.557318761 46.6907662,-2.39647067 32.648291,2.60082088 C24.3007166,5.57318761 15.2482359,10.2546652 8.73712788,16.348017 C1.00170893,23.5931609 -0.222601984,29.8908629 0.27825248,32.5288383 C2.07761852,41.8917935 14.9699834,47.9851453 20.1269294,52.4994273 C19.8672271,52.6480456 19.626075,52.7780866 19.4220231,52.8895504 C16.8435501,54.1713835 7.01196251,59.3172934 4.56334068,64.76044 C1.78081587,70.928101 5.00854465,75.3494965 7.14181366,75.9439698 C13.7642227,77.7831217 20.5721334,74.4763637 24.226516,69.0146399 C27.8808985,63.552916 27.4356946,56.4563905 25.7476295,53.2053644 C25.7290794,53.1682098 25.7105292,53.1310552 25.6734289,53.0939006 C26.3412348,52.7037775 27.0275909,52.2950771 27.6953969,51.9049539 C29.0124586,51.1247077 30.3109702,50.4001933 31.4239801,49.8057199 C30.7932745,51.5334081 30.3295204,53.5954875 30.1069184,56.5678542 C29.8286659,60.0603851 31.2570286,64.5932444 33.1305953,66.3766644 C33.9653528,67.1569107 34.9485115,67.175488 35.5792172,67.175488 C37.7681367,67.175488 38.7512954,65.3549133 39.8457552,63.1999475 C41.1813671,60.561972 42.3871278,57.4967188 42.3871278,57.4967188 C42.3871278,57.4967188 40.8845645,65.7821911 44.9656008,65.7821911 C46.4496141,65.7821911 47.9521775,63.8501527 48.6199834,62.8655562 L48.6199834,62.8841335 C48.6199834,62.8841335 48.6570837,62.8284016 48.7312844,62.6983606 C48.8796857,62.4568558 48.9724366,62.3082375 48.9724366,62.3082375 L48.9724366,62.2710829 C49.5660418,61.2307545 50.9016537,58.8714384 52.8865214,54.9516298 C55.4464443,49.8986064 57.9136163,43.5823271 57.9136163,43.5823271 C57.9136163,43.5823271 58.1362182,45.1242423 58.896775,47.6879086 C59.341979,49.1926693 60.2694873,50.8460483 61.0114939,52.4436954 C60.4178886,53.2796735 60.0468853,53.7441058 60.0468853,53.7441058 C60.0468853,53.7441058 60.0468853,53.7441058 60.0654354,53.7626831 C59.5831311,54.3943111 59.0637265,55.0816709 58.4886714,55.7504534 C56.4667034,58.1655013 54.0551819,60.9335178 53.7212789,61.7323414 C53.3317254,62.6797833 53.4244762,63.3671431 54.1664829,63.9244619 C54.7044376,64.3331623 55.6690462,64.3888942 56.652205,64.3331623 C58.4701212,64.2031212 59.7500826,63.7572662 60.3807882,63.4786069 C61.363947,63.1256383 62.5140573,62.5868968 63.5899669,61.7880733 C65.5748345,60.3204672 66.7805953,58.2212332 66.6692943,55.4532167 C66.6136438,53.9298788 66.1127893,52.4065408 65.5006339,50.9760893 C65.6861355,50.7160072 65.853087,50.4559251 66.0385887,50.1958431 C69.1735666,45.6072519 71.6036383,40.5728058 71.6036383,40.5728058 C71.6036383,40.5728058 71.8262403,42.114721 72.5867971,44.6783873 C72.9578004,45.9787978 73.7183571,47.390672 74.3861631,48.7653916 C71.4366868,51.1618622 69.6187706,53.948456 68.9695148,55.7690307 C67.8008544,59.1500978 68.7098125,60.6734358 70.4349779,61.0264043 C71.2140848,61.1935999 72.3270947,60.8220541 73.143302,60.4690855 C74.1821113,60.1346943 75.4064222,59.5587982 76.5750826,58.7042428 C78.5599503,57.2366367 80.4706173,55.1931346 80.3593163,52.4251181 C80.3036658,51.1618622 79.9697629,49.9171837 79.5060087,48.7096597 C82.0102811,47.6693313 85.2380098,47.0934353 89.3561465,47.5764449 C98.1860253,48.6167732 99.9297408,54.134229 99.5958378,56.4563905 C99.2619348,58.778552 97.4069183,60.0418078 96.7947628,60.431931 C96.1826074,60.8220541 95.9785556,60.9520951 96.0342061,61.2307545 C96.1084067,61.6394549 96.4052094,61.6208777 96.924614,61.5465685 C97.6480705,61.4165274 101.562155,59.670262 101.729107,55.3974848 C102.007359,49.935761 96.813313,43.9724502 87.6309812,44.0281821 L87.6309812,44.0281821 Z M19.514774,67.0268696 C16.5838478,70.2221639 12.5028115,71.4296878 10.7405457,70.4079368 C8.84842888,69.3118766 9.59043549,64.5932444 13.1891676,61.2121772 C15.3780871,59.1500978 18.1977122,57.2366367 20.0712789,56.0662673 C20.4979327,55.8061852 21.1286383,55.4346394 21.8891951,54.9702071 C22.0190463,54.8958979 22.0932469,54.8587434 22.0932469,54.8587434 L22.0932469,54.8587434 C22.2416483,54.7658569 22.3900496,54.6729704 22.5384509,54.580084 C23.8555127,59.4101799 22.5941014,63.6643798 19.514774,67.0268696 L19.514774,67.0268696 Z M40.8474641,52.4994273 C39.827205,54.9887844 37.693936,61.3607956 36.3954244,61.007827 C35.2824145,60.7105903 34.5960584,55.8804944 36.1728225,51.1061304 C36.9704796,48.7096597 38.6585446,45.8487567 39.6417034,44.7341192 C41.2370176,42.9506992 42.9992833,42.3562258 43.4259371,43.0807402 C43.9638919,44.0281821 41.4781697,50.9389347 40.8474641,52.4994273 L40.8474641,52.4994273 Z M58.451571,60.9335178 C58.0249172,61.1564454 57.6168136,61.3050637 57.431312,61.1935999 C57.3014608,61.1192908 57.6168136,60.8220541 57.6168136,60.8220541 C57.6168136,60.8220541 59.8242833,58.4441607 60.6961411,57.3666778 C61.1969955,56.7350498 61.7906008,55.9919582 62.4213064,55.15598 L62.4213064,55.3974848 C62.4213064,58.2398105 59.675882,60.1532716 58.451571,60.9335178 L58.451571,60.9335178 Z M72.0302921,57.8311101 C71.7149393,57.6081826 71.7705898,56.8650909 72.8279492,54.5429294 C73.2360528,53.6326421 74.2006614,52.1093041 75.8516262,50.6416981 C76.0371278,51.2361714 76.166979,51.8120675 76.1484288,52.3508089 C76.1298786,55.9362263 73.5699558,57.2737913 72.0302921,57.8311101 L72.0302921,57.8311101 Z" id="Shape"></path>
                </g>
            </g>
        </g>
    </g>
</svg>