<?xml version="1.0" encoding="UTF-8" standalone="no"?>
<svg width="216px" height="200px" viewBox="0 0 216 200" version="1.1" xmlns="http://www.w3.org/2000/svg" xmlns:xlink="http://www.w3.org/1999/xlink">
    <!-- Generator: Sketch 3.8.3 (29802) - http://www.bohemiancoding.com/sketch -->
    <title>Group 8</title>
    <desc>Created with Sketch.</desc>
    <defs></defs>
    <g id="Page-1" stroke="none" stroke-width="1" fill="none" fill-rule="evenodd">
        <g id="Group-8">
            <rect id="Rectangle-1-Copy-5" fill="#FFFFFF" x="0" y="0" width="215.178571" height="200"></rect>
            <g id="Sass_logo" transform="translate(35.714286, 45.982143)" fill="#CD6799">
                <g id="Layer_1">
                    <path d="M123.693078,62.146758 C118.69194,62.1729802 114.345401,63.3792042 110.705829,65.162318 C109.370446,62.5138696 108.035064,60.1538662 107.799408,58.4231969 C107.537568,56.4040829 107.223361,55.1716366 107.537568,52.7591886 C107.851776,50.3467406 109.26571,46.9116245 109.239526,46.6494019 C109.213342,46.3871793 108.925319,45.154733 106.045082,45.1285107 C103.164845,45.1022885 100.677368,45.6791782 100.389344,46.4396238 C100.101321,47.2000693 99.5514572,48.9307386 99.1848816,50.7138523 C98.6873862,53.3360784 93.424408,62.6974255 90.4132514,67.6009882 C89.4444444,65.6867632 88.6065574,64.0085385 88.4232696,62.6712032 C88.1614299,60.6520891 87.8472222,59.4196429 88.1614299,57.0071949 C88.4756375,54.5947469 89.8895719,51.1596307 89.863388,50.8974081 C89.837204,50.6351855 89.5491803,49.4027393 86.6689435,49.376517 C83.7887067,49.3502947 81.3012295,49.9271845 81.0132058,50.68763 C80.7251821,51.4480756 80.4109745,53.2311893 79.8087432,54.9618585 C79.2065118,56.6925277 72.2153916,72.3209951 70.3825137,76.3592233 C69.4398907,78.4307819 68.6281876,80.0827843 68.0521403,81.2103415 L68.0521403,81.2103415 C68.0521403,81.2103415 68.0259563,81.2890083 67.9474044,81.4201196 C67.4499089,82.3903433 67.1618852,82.9147885 67.1618852,82.9147885 C67.1618852,82.9147885 67.1618852,82.9147885 67.1618852,82.9410107 C66.7691257,83.6490118 66.3501821,84.3045683 66.1407104,84.3045683 C65.9836066,84.3045683 65.6955829,82.4165655 66.1930783,79.846784 C67.2404372,74.418776 69.7279144,65.975208 69.7017304,65.6867632 C69.7017304,65.5294296 70.1730419,64.060983 68.0783242,63.3005374 C66.0359745,62.5400919 65.3028233,63.7987604 65.1195355,63.7987604 C64.9362477,63.7987604 64.8053279,64.2445388 64.8053279,64.2445388 C64.8053279,64.2445388 67.0833333,54.7520804 60.4587887,54.7520804 C56.3217213,54.7520804 50.6136157,59.2885316 47.7857468,63.3792042 C46.0052368,64.3494279 42.208561,66.4209865 38.1500455,68.6498786 C36.6051913,69.5152132 35.007969,70.3805479 33.5154827,71.1934379 C33.4107468,71.0885489 33.3060109,70.9574376 33.201275,70.8525485 C25.18898,62.2778693 10.3688525,56.220527 10.9972678,44.7089546 C11.2329235,40.5133929 12.6730419,29.5000433 39.4592441,16.1266904 C61.5061475,5.24445215 79.049408,8.26001214 82.0867486,14.9466886 C86.4332878,24.4915915 72.6867031,42.2178398 49.9066485,44.7876214 C41.2135701,45.757845 36.6575592,42.4013956 35.5054645,41.1427271 C34.3010018,39.8316141 34.117714,39.7529473 33.6725865,40.0151699 C32.9394353,40.4085038 33.4107468,41.5885055 33.6725865,42.2702843 C34.3533698,44.0533981 37.1550546,47.2000693 41.8943534,48.7471827 C46.0837887,50.1107403 56.2693534,50.8711859 68.6020036,46.0987344 C82.4009563,40.7493932 93.1887523,25.8813714 90.0204918,13.4257975 C86.8522313,0.786667822 65.9050546,-3.38267164 46.0837887,3.6711165 C34.3010018,7.86667822 21.523224,14.4746879 12.3326503,23.0755895 C1.41393443,33.3022712 -0.31420765,42.1916175 0.392759563,45.9151786 C2.93260474,59.131198 21.1304645,67.7320995 28.4096084,74.1041089 C28.0430328,74.313887 27.7026412,74.4974428 27.4146175,74.6547764 C23.7750455,76.4641123 9.89754098,83.7276786 6.44125683,91.410801 C2.5136612,100.116592 7.06967213,106.35749 10.0808288,107.196602 C19.4285064,109.792606 29.0380237,105.125043 34.1962659,97.4156987 C39.3545082,89.706354 38.7260929,79.6894504 36.3433515,75.1005548 C36.3171676,75.0481103 36.2909836,74.9956657 36.2386157,74.9432212 C37.1812386,74.3925537 38.1500455,73.815664 39.0926685,73.2649965 C40.9517304,72.1636616 42.7846084,71.1409934 44.3556466,70.3018811 C43.4653916,72.7405513 42.8107923,75.6512223 42.4965847,79.846784 C42.1038251,84.776569 44.1199909,91.1748006 46.7645719,93.6921377 C47.9428506,94.7934726 49.3306011,94.8196949 50.2208561,94.8196949 C53.3105647,94.8196949 54.6983151,92.2499133 56.2431694,89.2081311 C58.1284153,85.48457 59.8303734,81.157897 59.8303734,81.157897 C59.8303734,81.157897 57.7094718,92.8530253 63.4699454,92.8530253 C65.564663,92.8530253 67.6855647,90.1259102 68.6281876,88.7361304 L68.6281876,88.7623526 C68.6281876,88.7623526 68.6805556,88.6836859 68.7852914,88.50013 C68.9947632,88.1592406 69.1256831,87.9494626 69.1256831,87.9494626 L69.1256831,87.897018 C69.9635701,86.4285714 71.848816,83.0983443 74.6505009,77.5654473 C78.2638889,70.4329924 81.746357,61.5174237 81.746357,61.5174237 C81.746357,61.5174237 82.0605647,63.6938714 83.1341075,67.3125433 C83.7625228,69.4365465 85.0717213,71.7703277 86.1190801,74.0254421 C85.2811931,75.2054438 84.7575137,75.8610003 84.7575137,75.8610003 C84.7575137,75.8610003 84.7575137,75.8610003 84.7836976,75.8872226 C84.1029144,76.7787795 83.3697632,77.7490031 82.5580601,78.6930045 C79.7040073,82.1018984 76.3000911,86.0090153 75.8287796,87.1365725 C75.2789162,88.4739078 75.4098361,89.4441314 76.4571949,90.2307992 C77.2165301,90.807689 78.5780965,90.8863558 79.965847,90.807689 C82.5318761,90.6241331 84.3385701,89.9947989 85.2288251,89.601465 C86.6165756,89.103242 88.2399818,88.3427965 89.7586521,87.2152393 C92.560337,85.1436807 94.2622951,82.1805652 94.1051913,78.2734483 C94.0266393,76.123223 93.3196721,73.9729976 92.4556011,71.9538835 C92.7174408,71.5867718 92.9530965,71.2196602 93.2149362,70.8525485 C97.6400273,64.3756501 101.070128,57.2694175 101.070128,57.2694175 C101.070128,57.2694175 101.384335,59.4458651 102.457878,63.0645371 C102.981557,64.9000954 104.0551,66.8929872 104.997723,68.8334345 C100.834472,72.2161061 98.2684426,76.1494452 97.3520036,78.7192268 C95.7024135,83.4916782 96.9854281,85.6419036 99.4205373,86.1401266 C100.520264,86.3761269 102.091302,85.8516817 103.243397,85.3534587 C104.709699,84.881458 106.437842,84.068568 108.087432,82.862344 C110.889117,80.7907854 113.586066,77.9063367 113.428962,73.9992198 C113.35041,72.2161061 112.879098,70.4592146 112.224499,68.7547677 C115.759335,67.2863211 120.315346,66.473431 126.128188,67.1552098 C138.591758,68.6236564 141.053051,76.4116678 140.58174,79.6894504 C140.110428,82.967233 137.492031,84.7503467 136.62796,85.3010142 C135.763889,85.8516817 135.475865,86.0352375 135.554417,86.4285714 C135.659153,87.0054612 136.078097,86.9792389 136.811248,86.8743499 C137.832423,86.690794 143.35724,84.2259015 143.592896,78.1947816 C143.985656,70.4854369 136.654144,62.0680912 123.693078,62.146758 L123.693078,62.146758 Z M27.5455373,94.6099168 C23.4084699,99.1201456 17.6479964,100.824593 15.1605191,99.3823682 C12.4897541,97.8352549 13.5371129,91.1748006 18.6168033,86.4023492 C21.7065118,83.4916782 25.6864754,80.7907854 28.3310565,79.1387829 C28.9332878,78.7716713 29.8235428,78.2472261 30.8970856,77.5916696 C31.0803734,77.4867805 31.1851093,77.434336 31.1851093,77.434336 L31.1851093,77.434336 C31.3945811,77.3032247 31.6040528,77.1721134 31.8135246,77.0410021 C33.6725865,83.8587899 31.8920765,89.8636876 27.5455373,94.6099168 L27.5455373,94.6099168 Z M57.6571038,74.1041089 C56.2169854,77.6178918 53.2058288,86.6121273 51.3729508,86.1139043 C49.8019126,85.6943481 48.8331056,78.8765603 51.0587432,72.1374393 C52.1846539,68.7547677 54.5673953,64.7165395 55.9551457,63.1432039 C58.2069672,60.6258669 60.6944444,59.7867545 61.2966758,60.8094227 C62.0560109,62.146758 58.5473588,71.901439 57.6571038,74.1041089 L57.6571038,74.1041089 Z M82.5056922,86.0090153 C81.9034608,86.3236824 81.3274135,86.5334605 81.0655738,86.3761269 C80.882286,86.2712379 81.3274135,85.8516817 81.3274135,85.8516817 C81.3274135,85.8516817 84.443306,82.4952323 85.6739526,80.9743412 C86.3809199,80.0827843 87.2188069,79.0338939 88.1090619,77.8538922 L88.1090619,78.1947816 C88.1090619,82.2067874 84.2338342,84.9076803 82.5056922,86.0090153 L82.5056922,86.0090153 Z M101.672359,81.6298977 C101.227231,81.3152306 101.305783,80.2663402 102.79827,76.9885576 C103.374317,75.7036668 104.735883,73.5534414 107.066257,71.4818828 C107.328097,72.3209951 107.511384,73.1338852 107.4852,73.8943308 C107.459016,78.9552271 103.845628,80.8432299 101.672359,81.6298977 L101.672359,81.6298977 Z" id="Shape"></path>
                </g>
            </g>
        </g>
    </g>
</svg>