<svg xmlns="http://www.w3.org/2000/svg" width="123" height="114" viewBox="0 0 123 114">
  <g fill="none" fill-rule="evenodd">
    <rect width="122.703" height="113.353" fill="#FFFFFF"/>
    <g transform="translate(21 17)">
      <g fill="#CB3349" transform="translate(6.075 33.377)">
        <path d="M13.276305 1.86096482C13.276305 1.86096482.673515 10.7762563.18063 14.1725578L1.126305 13.9771809C1.126305 13.9771809 16.218225 3.9238191 28.18152 2.69782915L28.452465 1.17185427 13.276305 1.86096482 13.276305 1.86096482zM33.059745.586944724L23.13279 7.66325126 23.669415 8.09592965C24.07401 7.7678593 41.30271 2.47965829 41.30271 2.47965829L44.935155.190899497C42.497865.495768844 33.059745.586944724 33.059745.586944724L33.059745.586944724zM41.68746 9.14567337C48.736485 9.14567337 59.302935 2.20735176 59.302935 2.20735176L55.887165 1.5540603C55.71828 1.72379397 50.379165 1.36601005 50.379165 1.36601005L47.844675.658582915 41.78952 7.59283417 41.296635 8.79603015C41.73201 8.61815578 41.68746 9.14567337 41.68746 9.14567337L41.68746 9.14567337z"/>
      </g>
      <path fill="#CB3349" d="M70.76484,64.6502111 L68.587155,65.2664623 L58.52574,65.0478844 L52.231635,60.1288643 L44.624115,62.0419296 L35.825085,61.2767035 L30.897855,66.6878291 L21.652515,69.463402 L17.036325,68.0249397 C16.88931,67.8975377 16.803855,67.8238643 16.803855,67.8238643 L18.875835,72.922794 C18.875835,72.922794 23.568975,77.979799 26.19054,78.5744774 C28.8117,79.1691558 33.547365,78.5317387 37.099215,77.9789849 C40.65066,77.4266382 43.483635,76.151804 44.624925,74.0702261 C45.766215,71.9874271 45.935505,71.3927487 45.935505,71.3927487 C45.935505,71.3927487 49.31847,76.1945427 52.235685,76.7472965 C55.1529,77.2996432 63.82071,74.3246231 63.82071,74.3246231 C63.82071,74.3246231 69.106365,72.8800553 70.03584,71.0528744 C70.966125,69.2256935 73.418805,63.2341357 73.418805,63.2341357 L70.76484,64.6502111 L70.76484,64.6502111 Z M18.00468,68.8044121 C17.95608,68.7820251 17.907075,68.7592312 17.858475,68.7368442 C17.511795,68.4360452 17.228295,68.190196 17.04321,68.0302312 L18.00468,68.8044121 L18.00468,68.8044121 Z"/>
      <path fill="#F4EDAE" d="M79.31196,28.5270603 C79.29009,28.2539397 79.26012,27.9808191 79.22691,27.7093266 C79.20342,27.516799 79.173045,27.3157236 79.139835,27.1297085 C78.41367,26.5154925 77.58828,25.9692513 76.729275,25.4726683 C75.79818,24.9260201 74.824155,24.4363568 73.82988,23.9816985 C72.84249,23.513608 71.82837,23.0898844 70.808175,22.6763367 C70.29909,22.4687487 69.78555,22.2672663 69.269985,22.0751457 C68.75604,21.8736633 68.237235,21.6860201 67.71681,21.4955276 C68.809095,21.6774724 69.89004,21.9265779 70.962885,22.2041759 C71.6607,22.3857136 72.35487,22.5888241 73.044585,22.8053668 C68.139225,9.92066834 56.411235,1.52963819 43.60635,1.52963819 C30.79944,1.52963819 19.072665,9.92066834 14.16852,22.8053668 C14.858235,22.5888241 15.552405,22.3857136 16.249005,22.2041759 C17.32347,21.9265779 18.40482,21.6774724 19.496295,21.4955276 C18.97425,21.6860201 18.45666,21.8736633 17.941095,22.0751457 C17.42796,22.2672663 16.914015,22.4687487 16.402905,22.6763367 C15.38271,23.0898844 14.371425,23.513608 13.381605,23.9816985 C12.389355,24.4363568 11.41452,24.9260201 10.483425,25.4726683 C9.62442,25.9688442 8.79984,26.5154925 8.07084,27.1297085 C8.040465,27.3157236 8.009685,27.516799 7.98579,27.7093266 C7.952985,27.9808191 7.923015,28.2539397 7.90074,28.5270603 C7.85295,29.0761508 7.83351,29.6272764 7.829055,30.1800302 C7.81812,31.2843166 7.892235,32.388603 8.031555,33.4810854 C8.181405,34.5768241 8.381475,35.6652362 8.67753,36.7174221 C8.82333,37.2445327 8.98857,37.7643166 9.17973,38.2674121 C9.275715,38.5185528 9.380205,38.7660302 9.48915,39.0065879 C9.54342,39.1262563 9.60012,39.2447035 9.656415,39.3582663 L9.726075,39.4917739 C9.80667,39.5328844 9.891315,39.574809 9.97191,39.6138844 L10.45953,39.8479296 C10.731285,39.9720754 11.10753,40.1515779 11.41857,40.291598 C11.435985,40.2765377 11.4534,40.2610704 11.468385,40.245196 L10.56321,36.7801055 C10.75518,36.727191 12.474,36.2814874 15.43617,35.7148945 C15.19722,35.6693065 14.95584,35.616799 14.71851,35.5598141 C14.044185,35.3913015 13.378365,35.1857487 12.734415,34.9232111 C12.414465,34.7876683 12.099375,34.6395075 11.79927,34.4693668 C11.49876,34.2959698 11.20311,34.0997789 10.974285,33.8392764 C14.228865,34.9065226 20.953485,34.4229648 26.93088,33.8022362 C32.397975,33.2360503 37.877625,32.8689045 43.38603,32.8579146 C48.89484,32.8689045 54.376515,33.2360503 59.84118,33.8022362 C65.82141,34.4229648 72.54603,34.9065226 75.800205,33.8392764 C75.571785,34.0997789 75.27654,34.2963769 74.97603,34.4693668 C74.675925,34.6395075 74.360835,34.7876683 74.04129,34.9232111 C73.39653,35.1857487 72.73152,35.3913015 72.057195,35.5598141 C71.95716,35.5838291 71.856315,35.605809 71.75628,35.6273819 C75.00438,36.2330503 76.895325,36.7251558 77.09742,36.7796985 L76.23153,40.0807538 C76.40568,40.0017889 76.58145,39.9256734 76.75398,39.8471156 L77.24079,39.6130704 C77.32179,39.5735879 77.404005,39.5320704 77.486625,39.4909598 L77.553855,39.3574523 C77.612985,39.2438894 77.669685,39.1254422 77.72355,39.0057739 C77.8329,38.7652161 77.93739,38.5177387 78.03297,38.266598 C78.224535,37.7635025 78.39018,37.2437186 78.535575,36.716608 C78.83163,35.6644221 79.0317,34.5760101 79.18155,33.4802714 C79.321275,32.3873819 79.39458,31.2830955 79.384455,30.1792161 C79.38,29.6272764 79.360155,29.0761508 79.31196,28.5270603 L79.31196,28.5270603 Z"/>
      <path fill="#E6CCAD" d="M47.298735 74.3494523C46.867815 74.4145779 46.436895 74.4695276 46.008405 74.5020905 45.732195 74.5155226 45.439785 74.543608 45.17451 74.543608L45.0765 74.5456432C45.40941 73.7979196 45.66213 73.2187085 45.853695 72.7795176 46.24371 73.2191156 46.739835 73.7633216 47.298735 74.3494523L47.298735 74.3494523zM48.235905 75.3088342C49.574025 76.6406533 51.232095 77.4034372 53.057025 77.5389799 49.99158 78.790206 47.102715 79.2729497 44.87724 79.4235528 42.65865 79.5729347 40.40928 79.3099899 38.20527 78.7026935 38.38995 78.6693166 38.52522 78.6457085 38.688435 78.6257638 38.86947 78.6037839 42.821865 78.0856281 44.60346 75.4232111L44.770725 75.4268744 45.208125 75.4232111C45.50418 75.4232111 45.7731 75.3987889 46.056195 75.387799 46.728495 75.3291859 47.38581 75.2327186 48.031785 75.1016533 48.09942 75.1712563 48.16665 75.2392312 48.235905 75.3088342L48.235905 75.3088342z"/>
      <path fill="#656C67" d="M52.02792 35.4409598C51.899535 35.6090653 51.756165 35.7946734 51.60348 35.987608 50.820615 36.982402 49.73481 38.254794 48.44691 39.4991005 46.95003 39.4526985 45.41184 39.4270553 43.82829 39.4270553 41.21199 39.4270553 38.703015 39.4966583 36.320805 39.6130704 39.68676 38.209206 43.730685 36.8379045 48.10995 36.0140653 49.38894 35.7706583 50.698305 35.5760955 52.02792 35.4409598L52.02792 35.4409598zM32.327505 36.9555377C31.126275 37.803799 29.76912 38.8865126 28.453275 40.2000151 25.08327 40.5390754 22.144185 40.9497739 19.71864 41.3437839 23.447475 39.6212111 27.702405 38.035809 32.327505 36.9555377L32.327505 36.9555377zM73.4994 43.9471809L72.12888 53.5853668 65.56302 58.2072513 48.438405 56.2506332 45.86058 47.7187688C45.799425 47.5111809 45.625275 47.3585427 45.41184 47.3235377 44.777205 47.2205578 44.215875 47.1680503 43.7481 47.1680503 43.2783 47.1680503 42.718995 47.2205578 42.081525 47.3235377 41.870115 47.3585427 41.696775 47.5111809 41.633595 47.7187688L39.11895 56.0426382 22.089915 59.8512663 15.341805 55.1003518 14.01219 44.2846131C14.301765 44.1201709 14.595795 43.9565427 14.89347 43.7925075 15.311025 43.7021457 15.780825 43.6064925 16.300845 43.5059548L17.553915 53.7115477C17.573355 53.8711055 17.660835 54.0131608 17.791245 54.1051508L22.433355 57.3744573C22.528935 57.4395829 22.642335 57.4745879 22.75533 57.4745879 22.796235 57.4745879 22.835925 57.4705176 22.87926 57.4611558L36.88011 54.3302412C36.928305 54.3192513 36.976095 54.3021558 37.01943 54.2797688 37.14984 54.2101658 37.252305 54.0900905 37.29564 53.9431508L39.816765 45.5997437C40.493115 45.4247186 42.2253 45.0180905 43.747695 45.0180905 45.26604 45.0180905 46.999845 45.4247186 47.6766 45.5997437L50.197725 53.9431508C50.26293 54.1596935 50.450445 54.3143668 50.674005 54.3408241L64.674855 55.9392513C64.81053 55.9543116 64.94904 55.9188995 65.060415 55.8407487L69.70536 52.5742915C69.83091 52.4847437 69.91596 52.3439095 69.937425 52.1892362L71.177535 43.4701357C72.10944 43.6508593 72.888255 43.8144874 73.4994 43.9471809L73.4994 43.9471809zM75.229155 37.9027085L74.023875 42.4981357C71.559045 41.9518945 66.144195 40.8801709 58.774005 40.1589045 61.182135 39.1270704 63.634005 37.8326985 65.87406 36.2147337 70.259805 36.8374975 73.47996 37.5046281 75.229155 37.9027085L75.229155 37.9027085z"/>
      <g fill="#E5CAA3" transform="translate(17.01 40.704)">
        <path d="M8.845605 11.5764874C9.80019 11.0579246 10.87911 11.1348543 12.567555 11.1372965 12.74859 11.1417739 12.935295 11.1393317 13.130505 11.1352613 13.296555 11.1332261 13.463415 11.1307839 13.639995 11.1263065 15.379875 11.1092111 16.82694 11.2752814 16.801425 8.52901508 16.7751 5.78315578 15.561315 3.564 13.823055 3.58150251 12.08277 3.59656281 10.399185 5.84624623 10.50327 8.59047739 10.53162 9.30523116 10.63611 9.82094472 10.80378 10.1929749 9.287055 10.5747739 8.869095 11.5174673 8.845605 11.5764874L8.845605 11.5764874zM29.76669.281668342C29.092365.830758794 28.381185 1.34403015 27.640845 1.79258291L25.17156 3.29047236C23.62284 3.48015075 22.278645 3.86520603 22.202505 3.88759296 22.157145 3.90021106 22.11381 3.91974874 22.07412 3.94457789 21.95424 4.0141809 21.863115 4.12977889 21.819375 4.26776382L19.30473 12.5957035 5.864805 15.5996231 1.631745 12.6197186.40014 2.59281407C2.80422 2.14914573 6.01911 1.63546734 9.88119 1.20075377 9.46728 1.69937186 9.06552 2.22159799 8.684415 2.76987437L6.38523 6.08680402 9.73296 3.84363317C9.782775 3.80862814 11.914695 2.39906533 15.40215.684633166 18.87786.422502513 22.713615.253582915 26.81829.253582915 27.819045.253175879 28.800765.264572864 29.76669.281668342L29.76669.281668342zM44.483175 10.4506281C44.466165 10.3855025 44.10045 9.28121608 42.481665 9.47496482 42.66837 9.06670854 42.751395 8.51598995 42.69267 7.76134673 42.47883 5.02159296 40.893255 2.84436181 39.154995 2.90501005 37.416735 2.9668794 36.302985 5.23772864 36.39897 7.98399497 36.49455 10.7278191 37.95417 10.7086884 39.69243 10.6472261 42.02928 10.6036734 43.312725 9.882 44.483175 10.4506281L44.483175 10.4506281zM53.061075 2.56025126L51.849315 11.085196 47.58102 14.0887085 34.158915 12.5558141 31.6548 4.26735678C31.5981 4.08378392 31.45473 3.94213568 31.272075 3.88718593 31.18905 3.86276382 29.527335 3.38653266 27.76518 3.2330804L28.087155 3.21150754C28.36539 3.19156281 32.994945 2.6208995 38.52279.70539196 44.644365 1.1779598 49.64328 1.93463819 53.061075 2.56025126L53.061075 2.56025126z"/>
      </g>
      <g fill="#C7B39A" transform="translate(17.01 40.704)">
        <path d="M8.845605 11.5764874C9.80019 11.0579246 10.87911 11.1348543 12.567555 11.1372965 12.74859 11.1417739 12.935295 11.1393317 13.130505 11.1352613 13.296555 11.1332261 13.463415 11.1307839 13.639995 11.1263065 15.379875 11.1092111 16.82694 11.2752814 16.801425 8.52901508 16.7751 5.78315578 15.561315 3.564 13.823055 3.58150251 12.08277 3.59656281 10.399185 5.84624623 10.50327 8.59047739 10.53162 9.30523116 10.63611 9.82094472 10.80378 10.1929749 9.287055 10.5747739 8.869095 11.5174673 8.845605 11.5764874L8.845605 11.5764874zM29.76669.281668342C29.092365.830758794 28.381185 1.34403015 27.640845 1.79258291L25.17156 3.29047236C23.62284 3.48015075 22.278645 3.86520603 22.202505 3.88759296 22.157145 3.90021106 22.11381 3.91974874 22.07412 3.94457789 21.95424 4.0141809 21.863115 4.12977889 21.819375 4.26776382L19.30473 12.5957035 5.864805 15.5996231 1.631745 12.6197186.40014 2.59281407C2.80422 2.14914573 6.01911 1.63546734 9.88119 1.20075377 9.46728 1.69937186 9.06552 2.22159799 8.684415 2.76987437L6.38523 6.08680402 9.73296 3.84363317C9.782775 3.80862814 11.914695 2.39906533 15.40215.684633166 18.87786.422502513 22.713615.253582915 26.81829.253582915 27.819045.253175879 28.800765.264572864 29.76669.281668342L29.76669.281668342zM44.483175 10.4506281C44.466165 10.3855025 44.10045 9.28121608 42.481665 9.47496482 42.66837 9.06670854 42.751395 8.51598995 42.69267 7.76134673 42.47883 5.02159296 40.893255 2.84436181 39.154995 2.90501005 37.416735 2.9668794 36.302985 5.23772864 36.39897 7.98399497 36.49455 10.7278191 37.95417 10.7086884 39.69243 10.6472261 42.02928 10.6036734 43.312725 9.882 44.483175 10.4506281L44.483175 10.4506281zM53.061075 2.56025126L51.849315 11.085196 47.58102 14.0887085 34.158915 12.5558141 31.6548 4.26735678C31.5981 4.08378392 31.45473 3.94213568 31.272075 3.88718593 31.18905 3.86276382 29.527335 3.38653266 27.76518 3.2330804L28.087155 3.21150754C28.36539 3.19156281 32.994945 2.6208995 38.52279.70539196 44.644365 1.1779598 49.64328 1.93463819 53.061075 2.56025126L53.061075 2.56025126z"/>
      </g>
      <path fill="#E6CCAD" d="M75.929805 47.0133769C76.135545 47.1839246 76.29876 47.6255578 76.114485 49.6827136 75.88809 52.2014472 74.834685 56.6222563 74.18223 57.3349749 73.46214 57.474995 71.952705 57.3089246 71.03214 57.0927889 71.191305 56.4582211 71.236665 56.1541658 71.36505 55.5053518L72.974925 54.3733869C73.10331 54.2838392 73.187955 54.143005 73.209825 53.9903668L74.334915 46.0670201C75.017745 46.4382362 75.72042 46.8399799 75.929805 47.0133769L75.929805 47.0133769zM16.579485 57.3545126C16.66008 57.6410653 16.744725 57.9272111 16.832205 58.2092864 15.96591 58.4649045 14.20173 58.7099397 13.40388 58.5699196 12.742515 57.9003467 11.508885 53.2923015 11.239155 50.845206 11.01924 48.8625377 11.173545 48.4339296 11.37402 48.2670452 11.606895 48.0704472 12.47886 47.5718291 13.234185 47.165201L14.25438 55.4886633C14.27382 55.6486281 14.358465 55.7902764 14.49171 55.8822663L16.579485 57.3545126 16.579485 57.3545126zM49.145535 57.4709246L49.08438 58.0021055C49.08438 58.0021055 47.229075 59.731191 44.2422 60.1182814 41.255325 60.5049648 38.907945 58.6602814 38.907945 58.6602814 39.005955 58.9810251 39.145275 59.7051407 39.821625 60.3234271 39.0258 60.2277739 38.16639 60.1634623 37.26486 60.1634623 36.93924 60.1634623 36.61038 60.1728241 36.292455 60.1882915 34.45416 60.2847588 31.868235 63.0782412 30.049785 65.8924824 29.15757 66.1761859 26.36874 67.0659648 23.140485 68.0241256 20.127285 63.828 18.645795 59.5406985 18.49554 59.0970302L18.497565 59.0945879C18.436815 58.9240402 18.37566 58.7530854 18.31896 58.5784673L19.093725 59.1230804 19.093725 59.1251156 21.007755 60.471995 21.647655 60.9201407C21.743235 60.9881156 21.85623 61.0231206 21.969225 61.0231206 22.010535 61.0231206 22.051845 61.0186432 22.09275 61.0105025L39.683925 57.0744724C39.88116 57.0309196 40.04073 56.8819447 40.09905 56.6877889L42.60762 48.3883417C43.040565 48.3293216 43.42086 48.298794 43.74729 48.298794 44.071695 48.298794 44.45442 48.3293216 44.887365 48.3883417L47.468835 56.9348593C47.534445 57.151402 47.721555 57.3089246 47.94309 57.3325327L49.145535 57.4709246 49.145535 57.4709246z"/>
      <path fill="#E6CCAD" d="M69.22503,57.0117889 L69.79284,56.6112663 C69.69888,57.0073116 69.59682,57.4009146 69.490305,57.7900402 C68.70096,60.333196 67.769055,62.5824724 66.73428,64.5696181 C66.505455,64.5854925 66.264075,64.5944472 66.00528,64.5944472 C65.20662,64.5944472 64.39095,64.5264724 63.488205,64.4434372 C61.921665,64.2989397 59.43537,64.012794 58.650075,63.9212111 C57.973725,63.3790402 55.65915,61.5306935 53.733375,60.0075678 C53.65764,59.9461055 53.592435,59.8891206 53.52885,59.8366131 C53.189865,59.5484322 52.804305,59.2207688 52.023465,59.2207688 C51.31431,59.2207688 50.278725,59.4804573 47.77542,60.2416131 C49.07628,59.2643216 49.084785,58.0029196 49.084785,58.0029196 L49.14594,57.4717387 L65.64888,59.3559045 C65.78334,59.3713719 65.92266,59.3363668 66.035655,59.257809 L67.693725,58.0904322 L69.22503,57.0117889 L69.22503,57.0117889 Z"/>
      <path fill="#EBD599" d="M57.079485 22.1170704C57.129705 23.5925729 57.09285 26.2663869 56.40921 28.7700603 56.38167 28.8665276 56.38572 28.9650302 56.40921 29.0566131 55.53927 28.9646231 54.668925 28.8860653 53.79858 28.8160553 54.77544 26.7588995 54.98847 24.5682362 55.03464 23.7964975 55.7847 23.2604322 56.53152 22.6177236 57.079485 22.1170704L57.079485 22.1170704zM32.17968 23.7960905C32.22504 24.5678291 32.43807 26.7540151 33.41331 28.8095427 32.542965 28.8791457 31.673025 28.9601457 30.804705 29.0521357 30.828195 28.9621809 30.83103 28.8661206 30.804705 28.7696533 30.121875 26.2708643 30.087045 23.594608 30.134835 22.1166633 30.6828 22.6177236 31.426785 23.2604322 32.17968 23.7960905L32.17968 23.7960905z"/>
      <path fill="#2D3136" d="M61.493175,51.1541457 C60.322725,50.5859246 59.03928,51.307598 56.702835,51.3511508 C54.964575,51.4126131 53.504955,51.4317437 53.409375,48.6879196 C53.31339,45.9416533 54.42714,43.670804 56.1654,43.6089347 C57.90366,43.5478794 59.489235,45.7255176 59.703075,48.4652714 C59.7618,49.2199146 59.678775,49.7706332 59.49207,50.1788894 C61.11045,49.9847337 61.476165,51.0886131 61.493175,51.1541457 L61.493175,51.1541457 Z M56.030535,47.1334523 C56.52018,47.1224623 56.91141,46.7158342 56.902905,46.2237286 C56.8944,45.7295879 56.489805,45.3359849 55.99773,45.3473819 C55.506465,45.3555226 55.116855,45.7625578 55.12617,46.2566985 C55.134675,46.748397 55.53927,47.142407 56.030535,47.1334523 L56.030535,47.1334523 Z"/>
      <ellipse cx="56.014" cy="46.237" fill="#EDF6FA" transform="rotate(-1.049 56.014 46.237)" rx=".889" ry=".893"/>
      <path fill="#2D3136" d="M33.81102,49.2321256 C33.836535,51.978392 32.389875,51.8123216 30.64959,51.8294171 C30.473415,51.8338945 30.30615,51.8359296 30.1401,51.8383719 C29.94489,51.8428492 29.75778,51.8448844 29.57715,51.840407 C27.88911,51.8383719 26.809785,51.7614422 25.8552,52.279598 C25.87869,52.2205779 26.29665,51.2778844 27.813375,50.8956784 C27.645705,50.5236482 27.54081,50.0079347 27.512865,49.2931809 C27.40878,46.5493568 29.092365,44.2992663 30.83265,44.284206 C32.57091,44.2671106 33.784695,46.4866734 33.81102,49.2321256 L33.81102,49.2321256 Z M31.12425,47.7956985 C31.613895,47.7830804 32.001075,47.3711608 31.988115,46.8794623 C31.97475,46.3853216 31.56651,45.996196 31.076865,46.0096281 C30.58479,46.0222462 30.197205,46.4333518 30.21057,46.9254573 C30.22353,47.420005 30.63258,47.8091307 31.12425,47.7956985 L31.12425,47.7956985 Z"/>
      <ellipse cx="31.101" cy="46.904" fill="#EDF6FA" transform="rotate(-1.473 31.101 46.904)" rx=".889" ry=".893"/>
      <g fill="#EBD599" opacity=".8" transform="translate(19.44 21.166)">
        <path d="M1.089855 9.4248995C1.089855 9.4248995 1.35999 5.88694975 1.912005 4.53111558 2.196315 3.83223618 3.935385 3.38734673 5.263785 3.06945226 6.591375 2.75196482 8.709525 2.11617588 9.121005 3.9909799 9.53208 5.86578392 10.19547 7.23220101 10.638135 7.83583417L10.069515.114376884.931905 2.33841709.330885 9.17090955.6156 9.71104523 1.089855 9.4248995M47.326275 9.4248995C47.326275 9.4248995 47.056545 5.88694975 46.50453 4.53111558 46.219815 3.83223618 44.480745 3.38734673 43.153155 3.06945226 41.824755 2.75196482 39.706605 2.11617588 39.295125 3.9909799 38.88486 5.86578392 38.220255 7.23220101 37.777185 7.83583417L38.34702.114376884 47.48463 2.33841709 48.085245 9.17090955 47.80053 9.71104523 47.326275 9.4248995"/>
      </g>
      <path fill="#EBD599" d="M53.850825 7.48049246C53.850825 7.48049246 53.608635 25.9965226 49.305105 25.9965226L44.141355 25.9965226 43.28073 25.9965226 38.11617 25.9965226C33.81264 25.9965226 33.46515 7.48863317 33.46515 7.48863317L31.35105 13.7724422 31.385475 22.3946683 32.88681 23.594201 33.569235 27.296593 34.52382 29.4567286 52.94403 29.4909196 53.796555 27.9478492 54.513 25.3428241 54.61587 23.6971809 56.650185 17.8598894 53.850825 7.48049246 53.850825 7.48049246zM67.403745 24.7452965C67.403745 24.7452965 68.28948 31.1324925 70.633215 32.284402 72.977355 33.4359045 70.633215 32.284402 70.633215 32.284402L67.3515 31.289608 67.403745 24.7452965 67.403745 24.7452965zM19.80774 24.7452965C19.80774 24.7452965 18.922005 31.1324925 16.577865 32.284402 14.233725 33.4359045 16.577865 32.284402 16.577865 32.284402L19.859985 31.289608 19.80774 24.7452965 19.80774 24.7452965z" opacity=".75"/>
      <path fill="#2D3136" d="M68.034735,31.2603015 C69.15051,31.6274472 70.272765,32.0165729 71.289315,32.6136935 C70.7454,32.3971508 70.18407,32.2420704 69.618285,32.1020503 C69.05493,31.9575528 68.48712,31.8354422 67.91688,31.7259497 C66.77478,31.5098141 65.62863,31.3262412 64.47519,31.1858141 C63.324585,31.0352111 62.171955,30.9082161 61.01406,30.8097136 C59.85657,30.7116181 58.701915,30.6131156 57.541995,30.5451407 C52.906365,30.2585879 48.257775,30.1869497 43.605945,30.1820653 C38.95533,30.1845075 34.306335,30.2720201 29.6703,30.5471759 C28.51119,30.6147437 27.355725,30.7136533 26.19864,30.8121558 C25.041555,30.9102513 23.88609,31.0352111 22.73751,31.1878492 C21.584475,31.3282764 20.43792,31.5118492 19.29582,31.7279849 C18.725985,31.8354422 18.15777,31.959995 17.59239,32.1020503 C17.029035,32.2420704 16.465275,32.3971508 15.92136,32.6136935 C16.937505,32.0169799 18.05976,31.6258191 19.177965,31.2578593 C19.271925,31.2273317 19.3671,31.2012814 19.46268,31.1707538 C19.456605,31.1467387 19.44972,31.1247588 19.445265,31.0987085 C19.425825,30.9696784 19.01232,27.8998191 19.73241,23.5095377 C19.76724,23.2995075 19.91709,23.1289598 20.12202,23.0719749 L21.303405,22.7337286 C21.560175,13.5245578 25.333965,9.19329648 25.45182,9.05978894 C22.07979,14.5128392 22.11057,20.9802211 22.16889,22.4862513 L29.51073,20.389206 C29.51721,20.3871709 29.52126,20.3871709 29.52774,20.3851357 C29.55852,20.3786231 29.588895,20.3741457 29.61927,20.3721106 C29.627775,20.3721106 29.639115,20.3696683 29.649645,20.3696683 C29.686905,20.3676332 29.72862,20.3721106 29.76993,20.3806583 C29.776005,20.3806583 29.782485,20.3851357 29.791395,20.3871709 C29.82177,20.3936834 29.85012,20.4042663 29.882115,20.4176985 C29.89548,20.4242111 29.903985,20.4311307 29.916945,20.4376432 C29.940435,20.4510754 29.96514,20.4661357 29.98863,20.4832312 C29.99511,20.4877085 30.0024,20.4897437 30.008475,20.4966633 C30.01293,20.5011407 30.01698,20.5056181 30.021435,20.5096884 C30.027915,20.516201 30.03642,20.5206784 30.043305,20.527598 C30.048165,20.5341106 30.243375,20.7282663 30.554415,21.0197035 C30.480705,18.5884824 30.595725,11.6139347 33.900525,5.83322111 C33.830865,6.03592462 31.208895,13.7411005 32.11245,22.3771658 C32.40567,22.6132462 32.71428,22.8448492 33.015195,23.0483668 C33.16059,23.1489045 33.250095,23.3149749 33.25212,23.4920352 C33.25455,23.5205276 33.317325,26.2733065 34.52706,28.6149799 C34.54407,28.6499849 34.55703,28.6870251 34.56837,28.7240653 C37.577115,28.5185126 40.59396,28.4354774 43.60473,28.4334422 C46.61631,28.4354774 49.63113,28.5229899 52.639065,28.7309849 C52.65,28.6915025 52.663365,28.6524271 52.68321,28.6149799 C53.89254,26.2733065 53.95572,23.5205276 53.95572,23.4920352 C53.95977,23.3145678 54.049275,23.1489045 54.195075,23.0483668 C54.49518,22.8448492 54.79974,22.6132462 55.095795,22.3771658 C56.000565,13.7411005 53.378595,6.03592462 53.30934,5.83322111 C56.611305,11.6135276 56.72916,18.5880754 56.65545,21.0197035 C56.96406,20.7286734 57.16008,20.5345176 57.166155,20.527598 C57.172635,20.5210854 57.18195,20.516608 57.18762,20.5096884 C57.19248,20.5056181 57.19491,20.5011407 57.200985,20.4966633 C57.207465,20.4901508 57.21435,20.4877085 57.22083,20.4832312 C57.24513,20.4661357 57.269025,20.4510754 57.292515,20.435201 C57.303855,20.4311307 57.314385,20.4242111 57.32532,20.4176985 C57.358125,20.4042663 57.388095,20.3936834 57.4209,20.3851357 C57.42738,20.3851357 57.434265,20.3806583 57.440745,20.3806583 C57.479625,20.3721106 57.521745,20.3676332 57.560625,20.3696683 C57.57156,20.3696683 57.58047,20.3721106 57.588975,20.3721106 C57.61935,20.3741457 57.652155,20.3786231 57.68253,20.3851357 C57.68739,20.3875779 57.69387,20.3875779 57.69954,20.389206 L65.041785,22.4862513 C65.100915,20.9802211 65.13129,14.5124322 61.759665,9.05978894 C61.87671,9.19329648 65.65131,13.5245578 65.90565,22.7337286 L67.08906,23.0719749 C67.291155,23.1289598 67.443435,23.2995075 67.47867,23.5095377 C68.198355,27.8998191 67.78323,30.9696784 67.76541,31.0987085 C67.76136,31.1251658 67.75488,31.1491809 67.7484,31.1727889 C67.845195,31.2012814 67.93875,31.2293668 68.034735,31.2603015 L68.034735,31.2603015 Z M66.69945,30.8662915 C66.75615,30.375 67.018995,27.6877538 66.460095,24.0276935 L58.149495,21.6534573 C58.224015,23.0679045 58.25682,26.1357286 57.45816,29.0610905 C57.44763,29.0960955 57.43467,29.1311005 57.417255,29.1661055 C57.49947,29.1746533 57.582495,29.1811658 57.662685,29.1921558 C59.99913,29.461206 62.32464,29.8368995 64.62423,30.3440653 C65.31759,30.5060653 66.01176,30.6790553 66.69945,30.8662915 L66.69945,30.8662915 Z M56.408805,28.7696533 C57.092445,26.2663869 57.1293,23.5921658 57.07908,22.1166633 C56.531115,22.6173166 55.784295,23.2600251 55.034235,23.7956834 C54.988065,24.5674221 54.775035,26.7580854 53.798175,28.8152412 C54.66852,28.8856583 55.538865,28.9642161 56.408805,29.055799 C56.385315,28.9646231 56.381265,28.8665276 56.408805,28.7696533 L56.408805,28.7696533 Z M33.412905,28.8095427 C32.437665,26.7540151 32.224635,24.5674221 32.179275,23.7960905 C31.426785,23.2604322 30.682395,22.6177236 30.13443,22.1170704 C30.086235,23.5950151 30.12147,26.2712714 30.8043,28.7700603 C30.830625,28.8665276 30.82779,28.9625879 30.8043,29.0525427 C31.673025,28.9601457 32.54256,28.8795528 33.412905,28.8095427 L33.412905,28.8095427 Z M29.79504,29.1612211 C29.779245,29.1306935 29.76669,29.0956884 29.75535,29.0606834 C28.955475,26.1353216 28.990305,23.0679045 29.06199,21.6530503 L20.75382,24.0272864 C20.19492,27.6832764 20.45574,30.3701156 20.512035,30.8642563 C21.20175,30.676206 21.89349,30.5032161 22.59009,30.3416231 C23.738265,30.086005 24.895755,29.8719045 26.05527,29.6748995 C27.217215,29.4803367 28.382805,29.3317688 29.5488,29.1897136 C29.631825,29.1787236 29.71242,29.1726181 29.79504,29.1612211 L29.79504,29.1612211 Z"/>
      <g transform="translate(34.83 7.327)">
        <path fill="#2D3136" d="M17.533665,0.396045226 L17.533665,7.3258191 L12.646125,7.3258191 L12.646125,5.30122613 L11.544525,5.30122613 L11.544525,14.6553015 L13.20867,14.6553015 L13.20867,19.8857035 L4.659525,19.8857035 L4.659525,14.6553015 L6.316785,14.6553015 L6.316785,5.30163317 L5.21883,5.30163317 L5.21883,7.32622613 L0.33453,7.32622613 L0.33453,0.396045226 L17.533665,0.396045226 L17.533665,0.396045226 Z M16.065135,5.85357286 L16.065135,1.86910553 L13.93605,1.86910553 L10.079235,1.86910553 L1.799415,1.86910553 L1.799415,5.85357286 L3.749895,5.85357286 L3.749895,3.8289799 L7.785315,3.8289799 L7.785315,16.1316181 L6.124815,16.1316181 L6.124815,18.4134573 L11.74014,18.4134573 L11.74014,16.1316181 L10.07964,16.1316181 L10.07964,3.8289799 L14.11506,3.8289799 L14.11506,5.85357286 L16.065135,5.85357286 L16.065135,5.85357286 Z"/>
        <polygon fill="#CB3349" points="16.065 1.869 16.065 5.854 14.115 5.854 14.115 3.829 10.079 3.829 10.079 16.132 11.74 16.132 11.74 18.413 6.125 18.413 6.125 16.132 7.785 16.132 7.785 3.829 3.75 3.829 3.75 5.854 1.799 5.854 1.799 1.869 10.079 1.869 13.936 1.869"/>
      </g>
      <path fill="#656C67" d="M12.43107,37.9027085 C13.143465,37.7403015 14.10615,37.5335276 15.286725,37.3043668 C14.56137,37.8013568 13.70358,38.4253417 12.766815,39.1755075 L12.43107,37.9027085 L12.43107,37.9027085 Z"/>
      <path fill="#C7B39A" d="M38.519955 56.8953769C38.519955 56.8953769 38.719215 58.1836432 36.925065 58.7347688 35.131725 59.2863015 23.769855 62.6895226 22.473855 62.5051357 21.17826 62.3215628 17.88966 60.1142111 17.88966 60.1142111L17.092215 57.2633367 21.958695 60.3128442 38.519955 56.8953769 38.519955 56.8953769zM48.69801 56.6458643C48.69801 56.6458643 48.55464 57.9410503 50.371065 58.4144322 52.187085 58.887 63.68544 61.7907889 64.971315 61.5502312 66.257595 61.3096734 69.44778 58.9610804 69.44778 58.9610804L70.121295 56.0776432 65.64807 58.759191 48.69801 56.6458643 48.69801 56.6458643z"/>
      <path fill="#C7B39A" d="M11.50686 54.524804C11.50686 54.524804 13.081095 57.6895025 15.62409 56.5937638L17.440515 57.2633367 17.259075 58.6024824 13.44438 59.0888894 12.415275 58.4807789 11.50686 54.524804 11.50686 54.524804zM75.958155 53.656191C75.958155 53.656191 73.38519 56.9592814 70.842195 55.8639497L70.0245 56.3939095 70.20594 57.7326482 74.020635 58.2194623 75.049335 57.6109447 75.958155 53.656191 75.958155 53.656191zM36.157995 78.5187136C36.157995 78.5187136 45.485145 83.244799 56.045925 76.8140503L52.654455 76.5816332C52.654455 76.5816332 45.254295 79.5253116 39.395565 77.898392L36.157995 78.5187136 36.157995 78.5187136z"/>
      <path fill="#2D3136" d="M45.61353,69.810196 L46.2591,70.5831558 C46.27368,70.6018794 47.707785,72.3171256 49.46103,74.0641206 C50.627025,75.225392 52.035615,75.8131508 53.649945,75.8131508 C54.20115,75.8131508 54.7803,75.7419196 55.36512,75.6002714 C55.90782,75.4675779 56.4975,75.3263367 57.101355,75.1810251 C59.281875,74.6571709 61.751565,74.0620854 62.948745,73.7250603 C63.18567,73.6574925 63.450135,73.5968442 63.72837,73.5329397 C65.322045,73.1629447 67.506615,72.6525226 68.664105,70.3218392 C69.53445,68.572809 70.70814,66.3027739 71.57889,64.6392211 C70.824375,64.9888643 70.03341,65.3678141 69.471675,65.6649497 C68.605785,66.1220503 67.471785,66.3434774 66.005685,66.3434774 C65.134125,66.3434774 64.277955,66.269804 63.33066,66.1851407 C61.437285,66.0101156 58.23333,65.6311658 58.200525,65.6266884 L57.955095,65.5994171 L57.761505,65.4435226 C57.73275,65.4223568 54.92529,63.1743015 52.656075,61.3809045 C52.56414,61.305196 52.480305,61.2351859 52.40457,61.1720955 C52.16562,60.9673568 52.16562,60.9673568 52.02306,60.9673568 C51.295275,60.9673568 49.17996,61.6267538 44.54595,63.0705075 L44.261235,63.1612764 L43.98219,63.0554472 C43.9506,63.0448643 40.910265,61.9116784 37.266885,61.9116784 C36.968805,61.9116784 36.671535,61.9194121 36.38196,61.9344724 C36.017055,61.953196 33.96897,62.9308945 31.349835,67.0956784 L31.18014,67.3631005 L30.880035,67.4599749 C30.8367,67.4750352 26.328645,68.9375126 21.548025,70.3112563 L21.237795,70.3999899 L20.94417,70.2628191 C20.912985,70.250201 19.04229,69.3779246 17.262315,68.5557136 C18.2331,69.9970251 19.474425,71.7948995 20.56671,73.2048693 C22.474665,75.6743518 24.879555,77.956598 29.49048,77.956598 C30.06882,77.956598 30.683205,77.9207789 31.314195,77.8487337 C36.0045,77.3159246 37.21221,77.1010101 37.862235,76.9870402 C38.08215,76.949593 38.2563,76.9174372 38.478645,76.8901658 C38.514285,76.8856884 42.3549,76.3866633 43.432605,73.9570704 C44.543925,71.4603166 44.768295,70.8656382 44.7768,70.8428442 L45.16884,69.7914724 C45.16884,69.7914724 45.21744,69.5191658 45.297225,69.4345025 C45.297225,69.4365377 45.297225,69.4365377 45.29925,69.4365377 L45.306945,69.4430503 C45.43047,69.532191 45.61353,69.810196 45.61353,69.810196 L45.61353,69.810196 Z M16.402095,22.6759296 C15.383115,23.0886633 14.370615,23.5144221 13.380795,23.9821055 C12.38895,24.4375779 11.414115,24.9264271 10.48302,25.4718543 C9.624015,25.9692513 8.799435,26.5150854 8.07165,27.1309296 C8.040465,27.3161307 8.011305,27.5184271 7.986195,27.7101407 C7.954605,27.9816332 7.923015,28.2539397 7.901955,28.5278744 C7.85376,29.0757437 7.834725,29.6280905 7.829055,30.1800302 C7.818525,31.2843166 7.893855,32.388603 8.032365,33.4818995 C8.183025,34.5776382 8.382285,35.6672714 8.677935,36.7186432 C8.82495,37.2457538 8.98857,37.7659447 9.18135,38.267005 C9.275715,38.5205879 9.38061,38.7668442 9.48996,39.006995 C9.54423,39.1266633 9.60093,39.2451106 9.657225,39.3586734 L9.726885,39.4913668 C9.80829,39.5336985 9.89253,39.5756231 9.97191,39.6134774 L10.46034,39.8471156 C10.732905,39.9737035 11.10834,40.152799 11.41857,40.292005 C11.4372,40.2769447 11.45421,40.2602563 11.46879,40.245603 L10.565235,36.7813266 C10.75599,36.7288191 12.47562,36.2818945 15.438195,35.7153015 C15.199245,35.6709347 14.95584,35.6184271 14.71932,35.5610352 C14.04621,35.3929296 13.379175,35.1861558 12.73563,34.9248392 C12.416895,34.7880754 12.100185,34.6403216 11.800485,34.4693668 C11.50038,34.2963769 11.20473,34.101 10.97631,33.8396834 C14.230485,34.9077437 20.954295,34.4229648 26.9325,33.8038643 C32.400405,33.2368643 37.87884,32.8705327 43.38684,32.8575075 C48.89484,32.8701256 54.37773,33.2364573 59.84199,33.8038643 C65.82384,34.4233719 72.54846,34.9081508 75.80142,33.8396834 C75.573,34.101 75.277755,34.2963769 74.97765,34.4693668 C74.678355,34.6403216 74.36124,34.7876683 74.042505,34.9248392 C73.39653,35.1861558 72.731925,35.3925226 72.05679,35.5610352 C71.95797,35.5838291 71.85753,35.6074372 71.756685,35.628603 C75.004785,36.2334573 76.89573,36.7263769 77.097015,36.7813266 L76.231125,40.0811608 C76.405275,40.0030101 76.581045,39.9277085 76.752765,39.8475226 L77.2416,39.6138844 C77.32098,39.5756231 77.40522,39.5341055 77.48703,39.4917739 L77.55426,39.3590804 C77.61258,39.2455176 77.66928,39.1270704 77.723955,39.007402 C77.833305,38.7668442 77.937795,38.5205879 78.03459,38.2674121 C78.225345,37.7663518 78.390585,37.2457538 78.53517,36.7190503 C78.831225,35.6676784 79.03251,34.5780452 79.181145,33.4823065 C79.321275,32.3890101 79.394985,31.2843166 79.384455,30.1804372 C79.380405,29.6284975 79.359345,29.0761508 79.313175,28.5282814 C79.29009,28.2543467 79.260525,27.9824472 79.22691,27.7105477 C79.203825,27.5188342 79.172235,27.3165377 79.140645,27.1313367 C78.41286,26.5154925 77.58909,25.9700653 76.729275,25.4722613 C75.79818,24.9268342 74.824155,24.4379849 73.82988,23.9825126 C72.84249,23.5148291 71.827965,23.0890704 70.80858,22.6763367 C70.298685,22.4695628 69.78474,22.2672663 69.269175,22.0755528 C68.75604,21.8756985 68.235615,21.6864271 67.716,21.4963417 C68.80788,21.6774724 69.890445,21.927799 70.961265,22.2041759 C71.659485,22.3857136 72.356085,22.5900452 73.04337,22.806995 C68.13882,9.92107538 56.41002,1.53045226 43.605945,1.53045226 C30.799035,1.53045226 19.072665,9.92107538 14.168925,22.806995 C14.858235,22.5900452 15.552405,22.3857136 16.2486,22.2041759 C17.322255,21.928206 18.40401,21.6774724 19.4967,21.4963417 C18.97425,21.6860201 18.45666,21.8752915 17.94069,22.0755528 C17.42715,22.2668593 16.914015,22.4691558 16.402095,22.6759296 L16.402095,22.6759296 Z M80.971245,30.1311859 C81.030375,31.3172864 80.998785,32.5054221 80.866755,33.6858241 C80.74323,34.8637839 80.520885,36.0311608 80.21106,37.1883618 C80.04906,37.7639095 79.86276,38.3325377 79.64244,38.8970955 C79.531065,39.1791709 79.411995,39.4600251 79.28199,39.7400653 C79.216785,39.8788643 79.147935,40.0160352 79.070175,40.1572764 L78.955155,40.3656784 C78.913035,40.4413869 78.87942,40.4983719 78.814215,40.5993166 L78.695145,40.7853317 L78.50844,40.881799 C78.30918,40.9851859 78.145965,41.0629296 77.96493,41.147593 L77.43924,41.3857085 C77.086485,41.5371256 76.732515,41.680402 76.37814,41.819201 C76.130685,41.9164824 75.91239,42.0052161 75.70503,42.0935427 L75.12021,44.3269447 C75.10563,44.3232814 74.929455,44.2781005 74.600595,44.1987286 L74.569005,44.4323668 C75.214575,44.7714271 76.483035,45.4589095 76.91517,45.8175075 C77.78511,46.539995 77.846265,47.6845779 77.653485,49.8231407 C77.554665,50.9209146 77.19219,53.0574422 76.68918,55.0197588 C75.82086,58.3973367 75.359565,58.794196 74.764215,58.9472412 C74.462085,59.025392 73.997145,59.1031357 73.545975,59.1031357 C72.628245,59.1031357 71.37801,59.1287789 70.53723,58.9244472 C70.321365,59.6929296 69.704955,61.6971709 68.48469,64.2004372 C68.545845,64.1707236 68.60619,64.1454874 68.660865,64.1161809 C70.16625,63.3216482 73.05957,62.0549548 73.181475,62.000005 L75.46689,61.0019548 L74.29644,63.214191 C74.269305,63.2622211 71.75952,68.0062161 70.222545,71.1037538 C68.6961,74.1719849 65.83437,74.8399296 64.12122,75.2355678 C63.863235,75.2970302 63.618615,75.3540151 63.419355,75.4085578 C62.19018,75.7561658 59.701455,76.3524724 57.50676,76.8832462 C57.48084,76.8897588 57.45411,76.8966784 57.426975,76.9003417 C56.0763,77.7392412 54.602505,78.4873719 52.9902,79.102809 C47.09016,81.3488291 40.871385,81.2226482 35.23338,79.1402563 C34.317675,79.2587035 33.11361,79.403608 31.510215,79.5867739 C30.813615,79.6649246 30.136455,79.7052211 29.49129,79.7052211 C24.11937,79.7052211 21.27222,76.9634322 19.194165,74.2790352 C16.9695,71.4045528 14.248305,67.137196 14.13288,66.9585075 L12.555,64.4849548 L15.221925,65.6901859 C16.498485,66.2677688 20.294145,68.0334874 21.37995,68.5394322 C21.467835,68.514603 21.5541,68.4889598 21.63996,68.4637236 C19.834875,65.876201 18.3546,62.9260101 17.308485,59.6579246 C16.41951,59.9273819 15.050205,60.136191 13.985055,60.136191 C13.59585,60.136191 13.247145,60.1068844 12.979035,60.0433869 C12.38328,59.9066231 11.704095,59.3294472 10.77948,56.0564774 C10.242855,54.1564372 9.84231,52.0821859 9.725265,51.0145327 C9.494415,48.9301055 9.536535,47.813608 10.398375,47.0923417 C10.91799,46.656407 12.67083,45.7312161 13.03371,45.5419447 L12.95595,44.8988291 C7.3872,48.1876734 4.049595,51.0939045 3.982365,51.1533317 L0,54.6656382 L2.837025,50.1691206 C5.082345,46.6055276 7.675965,43.7249397 10.062225,41.5057839 C9.963405,41.4658945 9.87147,41.426005 9.774675,41.3861156 L9.24858,41.148 C9.068355,41.0633367 8.904735,40.985593 8.70588,40.882206 L8.519175,40.7857387 L8.3997,40.5997236 C8.33247,40.4983719 8.30331,40.441794 8.259165,40.3660854 L8.141715,40.1576834 C8.06841,40.0164422 7.996725,39.8792714 7.931925,39.7404724 C7.79949,39.4600251 7.68042,39.1795779 7.571475,38.8975025 C7.351155,38.3329447 7.16445,37.7643166 7.002855,37.1887688 C6.6906,36.0315678 6.47028,34.864598 6.346755,33.6862312 C6.21675,32.5058291 6.183135,31.3176935 6.24186,30.131593 C6.27345,29.5393568 6.33015,28.9475276 6.411555,28.3593618 C6.453675,28.0642613 6.49782,27.7691608 6.556545,27.4760955 C6.617295,27.1773317 6.676425,26.8989196 6.766335,26.5720704 L6.82911,26.3425025 L6.99273,26.2134724 C7.9218,25.479995 8.92377,24.9260201 9.94275,24.4351357 C10.781505,24.0390905 11.636865,23.6890402 12.498705,23.3703317 C14.90562,16.6571005 19.044315,10.7042111 24.48306,6.55530151 C30.106485,2.26718593 36.71892,0 43.606755,0 C50.49459,0 57.107025,2.26718593 62.730045,6.55570854 C68.169195,10.7046181 72.30789,16.6579146 74.713185,23.3691106 C75.57705,23.6894472 76.430385,24.0370553 77.271165,24.4355427 C78.28974,24.9264271 79.292115,25.480402 80.22078,26.2138794 L80.3844,26.3429095 L80.44758,26.5724774 C80.539515,26.8993266 80.59824,27.1777387 80.656965,27.4765025 C80.716095,27.7695678 80.762265,28.0646683 80.80155,28.3597688 C80.883765,28.9471206 80.94249,29.5389497 80.971245,30.1311859 L80.971245,30.1311859 Z M76.11327,49.6814925 C76.29795,47.6251508 76.13676,47.1827035 75.928995,47.0137839 C75.72123,46.8387588 75.01896,46.4390503 74.33532,46.065799 L73.209825,53.9883317 C73.188765,54.142191 73.1025,54.281804 72.974925,54.3717588 L71.36424,55.5037236 C71.236665,56.1521307 71.190495,56.4582211 71.033355,57.0923819 C71.95392,57.3072965 73.46295,57.4741809 74.18223,57.3345678 C74.83509,56.6230704 75.8889,52.2018543 76.11327,49.6814925 L76.11327,49.6814925 Z M74.023065,42.4981357 L75.22875,37.9027085 C73.47996,37.5046281 70.2594,36.8383116 65.87325,36.2143266 C63.6336,37.8326985 61.18254,39.1266633 58.7736,40.1589045 C66.144195,40.8797638 71.55945,41.9523015 74.023065,42.4981357 L74.023065,42.4981357 Z M72.127665,53.5845528 L73.49859,43.9475879 C72.88866,43.8148945 72.109035,43.6508593 71.177535,43.4717638 L69.93864,52.1912714 C69.915555,52.3451307 69.831315,52.4863719 69.705765,52.5751055 L65.059605,55.8407487 C64.950255,55.9188995 64.810125,55.9547186 64.67607,55.9396583 L50.67441,54.3404171 C50.45004,54.3147739 50.263335,54.1588794 50.19813,53.9443719 L47.676195,45.6001508 C47.000655,45.4247186 45.26685,45.0180905 43.749315,45.0180905 C42.224895,45.0180905 40.49271,45.4247186 39.817575,45.6001508 L37.295235,53.9443719 C37.25109,54.0892764 37.150245,54.2101658 37.019025,54.2789548 C36.976905,54.3021558 36.92871,54.3188442 36.88011,54.3298342 L22.87845,57.4607487 C22.834305,57.4697035 22.79664,57.4741809 22.75452,57.4741809 C22.641525,57.4741809 22.528125,57.440397 22.43376,57.3724221 L17.789625,54.1043367 C17.65962,54.0135678 17.573355,53.8702915 17.5527,53.7103266 L16.300845,43.5051407 C15.780825,43.6064925 15.31143,43.7033668 14.89185,43.7912864 C14.59458,43.9561357 14.30055,44.1205779 14.01138,44.2850201 L15.340185,55.0991307 L22.089915,59.8512663 L39.11895,56.0438593 L41.632785,47.720397 C41.695965,47.5111809 41.86971,47.3573216 42.081525,47.3235377 C42.718995,47.2205578 43.276275,47.1680503 43.748505,47.1680503 C44.21547,47.1680503 44.775585,47.2205578 45.41103,47.3235377 C45.62487,47.3573216 45.798615,47.5111809 45.85977,47.720397 L48.438,56.2502261 L65.56221,58.2072513 L72.127665,53.5845528 L72.127665,53.5845528 Z M68.859315,51.7891206 L70.071075,43.2625477 C66.65328,42.6373417 61.655175,41.8810704 55.53279,41.4089095 C50.005755,43.3248241 45.376605,43.8950804 45.09756,43.9142111 L44.774775,43.9374121 C46.53774,44.0896432 48.198645,44.5658744 48.282075,44.5907035 C48.465135,44.6456533 48.607695,44.7864874 48.664395,44.9704673 L51.169725,53.2601457 L64.590615,54.7922261 L68.859315,51.7891206 L68.859315,51.7891206 Z M69.79203,56.6104523 L69.22341,57.0105678 L67.692915,58.0896181 L66.03444,59.256995 C65.921445,59.3351457 65.782935,59.3709648 65.64807,59.3559045 L49.14594,57.4701106 L47.94471,57.3329397 C47.722365,57.3072965 47.53566,57.151402 47.470455,56.9352663 L44.88777,48.3883417 C44.45604,48.3293216 44.0721,48.299201 43.74972,48.299201 C43.422075,48.299201 43.040565,48.3289146 42.608835,48.3883417 L40.101075,56.688603 C40.04235,56.8823518 39.883185,57.0301055 39.68595,57.0736583 L22.094775,61.0105025 C22.05306,61.0186432 22.011345,61.0227136 21.97125,61.0227136 C21.858255,61.0227136 21.744855,60.9889296 21.64806,60.9197337 L21.00897,60.472809 L19.09494,59.1267437 L19.09494,59.1222663 L18.32139,58.5788744 C18.376065,58.7538995 18.438435,58.9248543 18.499995,59.094995 L18.497565,59.0974372 C18.646605,59.5419196 20.128905,63.828 23.1417,68.0233116 C26.368335,67.0667789 29.15919,66.177407 30.049785,65.8928894 C31.867425,63.0774271 34.45497,60.2851658 36.294075,60.1886985 C36.61038,60.1736382 36.94005,60.1638693 37.266885,60.1638693 C38.16639,60.1638693 39.026205,60.228995 39.822435,60.3238342 C39.14568,59.7063618 39.00717,58.9814322 38.908755,58.6610955 C38.908755,58.6610955 41.25492,60.5049648 44.242605,60.1199095 C47.230695,59.732005 49.086,58.0016985 49.086,58.0016985 C49.086,58.0016985 49.077495,59.2643216 47.77542,60.2416131 C50.27913,59.4808643 51.314715,59.2195477 52.023465,59.2195477 C52.80552,59.2195477 53.19108,59.5484322 53.52885,59.8378342 C53.594055,59.8903417 53.65926,59.9469196 53.734185,60.0083819 C55.65915,61.5315075 57.973725,63.3798543 58.65129,63.9216181 C59.43537,64.0140151 61.921665,64.2985327 63.488205,64.4438442 C64.391355,64.5256583 65.20743,64.5952613 66.00609,64.5952613 C66.264075,64.5952613 66.505455,64.5846784 66.733875,64.5696181 C67.769865,62.5832864 68.70096,60.3319749 69.491115,57.7912613 C69.59682,57.4005075 69.700095,57.0064975 69.79203,56.6104523 L69.79203,56.6104523 Z M63.70326,35.6102864 C63.69921,35.6078442 63.69516,35.605402 63.690705,35.605402 C62.365545,35.5064925 61.04079,35.4157236 59.711175,35.3404221 C57.8664,35.234593 56.020815,35.1462663 54.17604,35.0685226 C54.068715,35.2288945 53.85123,35.5447538 53.53857,35.9741759 C52.534575,37.3397789 50.54238,39.8450804 47.98845,41.969397 C51.60348,41.3181407 57.874095,39.7062814 63.298665,35.9025377 C63.434745,35.8056633 63.569205,35.7047186 63.70326,35.6102864 L63.70326,35.6102864 Z M51.60348,35.987201 C51.756165,35.7954874 51.898725,35.6102864 52.0263,35.4417739 C50.697495,35.5765025 49.38894,35.7706583 48.10995,36.0148794 C43.73028,36.8387186 39.685545,38.208392 36.3204,39.6118492 C38.704635,39.4958442 41.21199,39.4266482 43.8291,39.4266482 C45.41184,39.4266482 46.95084,39.4539196 48.44772,39.4982864 C49.735215,38.2543869 50.821425,36.981995 51.60348,35.987201 L51.60348,35.987201 Z M53.056215,77.5393869 C51.2325,77.4042513 49.574025,76.6418744 48.2355,75.3100553 C48.166245,75.2388241 48.09942,75.1704422 48.03219,75.1016533 C47.385,75.2323116 46.728495,75.3291859 46.055385,75.388206 C45.772695,75.3987889 45.50418,75.4236181 45.20853,75.4236181 L44.769915,75.4280955 L44.60265,75.4236181 C42.82227,78.0852211 38.868255,78.6037839 38.687625,78.6269849 C38.52441,78.6457085 38.390355,78.6689095 38.20527,78.7026935 C40.40928,79.3095829 42.65865,79.5729347 44.87724,79.4231457 C47.1015,79.2737638 49.991175,78.7889849 53.056215,77.5393869 L53.056215,77.5393869 Z M46.009215,74.5024975 C46.436895,74.4687136 46.8666,74.4137638 47.298735,74.3486382 C46.73862,73.7633216 46.244115,73.2191156 45.853695,72.7787035 C45.66294,73.2191156 45.409815,73.7983266 45.076095,74.5448291 L45.17451,74.5448291 C45.441,74.5452362 45.7326,74.5159296 46.009215,74.5024975 L46.009215,74.5024975 Z M44.650845,42.4965075 C45.39078,42.0475477 46.101555,41.5334623 46.77669,40.985593 C45.809955,40.9689045 44.829045,40.9562864 43.8291,40.9562864 C39.723615,40.9562864 35.88867,41.125206 32.412555,41.3881508 C28.925505,43.1013618 26.79318,44.5109246 26.743365,44.5467437 L23.394825,46.7911357 L25.69482,43.474206 C26.074305,42.9234874 26.476875,42.4012613 26.892,41.9042714 C23.02992,42.3381709 19.813815,42.8522563 17.41095,43.2971457 L18.64134,53.3232362 L22.874805,56.3031407 L36.314325,53.3000352 L38.830185,44.9704673 C38.872305,44.8332965 38.96424,44.7176985 39.08412,44.6476884 C39.12381,44.6220452 39.16593,44.6033216 39.211695,44.5907035 C39.289455,44.5695377 40.633245,44.1840754 42.182775,43.994397 L44.650845,42.4965075 L44.650845,42.4965075 Z M46.196325,34.8491307 C45.260775,34.8344774 44.32401,34.8259296 43.38846,34.8238945 L43.386435,34.8238945 C42.013485,34.8259296 40.6377,34.8405829 39.25989,34.8682613 L36.720945,36.0775628 C36.71892,36.079598 36.70434,36.0861106 36.685305,36.0971005 C36.303795,36.2843367 32.969835,37.9747538 29.83311,40.9900704 C32.645025,39.504392 36.77724,37.5636482 41.640075,36.0588392 C43.09686,35.6102864 44.623305,35.1967387 46.196325,34.8491307 L46.196325,34.8491307 Z M28.451655,40.199201 C29.76831,38.8865126 31.12668,37.803392 32.32629,36.9563518 C27.703215,38.035402 23.447475,39.6195829 19.71945,41.3433769 C22.144995,40.9493668 25.08246,40.5386683 28.451655,40.199201 L28.451655,40.199201 Z M29.32605,36.149608 C30.875175,35.7132663 32.473305,35.3318744 34.110315,35.0115377 C31.762125,35.0978291 29.412315,35.2073216 27.06615,35.3404221 C25.70292,35.4161307 24.346575,35.5089347 22.989825,35.6119146 C22.310235,35.6644221 21.6351,35.7189648 20.96199,35.7930452 C20.76921,35.8117688 20.58048,35.8329347 20.3877,35.8581709 C18.618255,36.9221608 11.831265,41.2041709 7.172145,46.8029397 C11.69964,43.6406834 19.587015,38.8889548 29.32605,36.149608 L29.32605,36.149608 Z M16.8318,58.2096935 C16.74351,57.9276181 16.66008,57.6406583 16.580295,57.3541055 L14.489685,55.8838945 C14.35725,55.7910905 14.273415,55.6498492 14.252355,55.4894774 L13.233375,47.1660151 C12.478455,47.5726432 11.60649,48.0716683 11.373615,48.2678593 C11.17233,48.4343367 11.01924,48.8621307 11.237535,50.845206 C11.508075,53.2914874 12.740895,57.9003467 13.403475,58.5703266 C14.200515,58.7115678 15.96591,58.4653116 16.8318,58.2096935 L16.8318,58.2096935 Z M15.286725,37.3043668 C14.10615,37.5339347 13.143465,37.7403015 12.43107,37.9027085 L12.766815,39.1755075 C13.70358,38.4249347 14.56137,37.8013568 15.286725,37.3043668 L15.286725,37.3043668 Z"/>
    </g>
  </g>
</svg>
